999
"DXF R12 Output" (www.mydxf.blogspot.com)
 0 
SECTION
 2 
HEADER
 9 
$ACADVER
 1 
AC1009
 9 
$EXTMIN
 10 
 0 
 20 
 0 
 9 
$EXTMAX
 10 
 8.5 
 20 
 11 
 0 
ENDSEC
 0 
SECTION
 2 
ENTITIES
0
LINE
8
Layer 1
10
13.100000
20
10.000000
11
19.100000
21
10.000000
0
LINE
8
Layer 1
10
19.100000
20
10.000000
11
19.200000
21
10.100000
0
LINE
8
Layer 1
10
19.200000
20
10.100000
11
19.200000
21
13.000000
0
LINE
8
Layer 1
10
19.200000
20
13.000000
11
25.000000
21
13.000000
0
LINE
8
Layer 1
10
25.000000
20
13.000000
11
25.000000
21
10.100000
0
LINE
8
Layer 1
10
25.000000
20
10.100000
11
25.100000
21
10.000000
0
LINE
8
Layer 1
10
25.100000
20
10.000000
11
31.100000
21
10.000000
0
LINE
8
Layer 1
10
31.100000
20
10.000000
11
31.200000
21
10.100000
0
LINE
8
Layer 1
10
31.200000
20
10.100000
11
31.200000
21
13.000000
0
LINE
8
Layer 1
10
31.200000
20
13.000000
11
37.000000
21
13.000000
0
LINE
8
Layer 1
10
37.000000
20
13.000000
11
37.000000
21
10.100000
0
LINE
8
Layer 1
10
37.000000
20
10.100000
11
37.100000
21
10.000000
0
LINE
8
Layer 1
10
37.100000
20
10.000000
11
43.100000
21
10.000000
0
LINE
8
Layer 1
10
43.100000
20
10.000000
11
43.200000
21
10.100000
0
LINE
8
Layer 1
10
43.200000
20
10.100000
11
43.200000
21
13.000000
0
LINE
8
Layer 1
10
43.200000
20
13.000000
11
49.000000
21
13.000000
0
LINE
8
Layer 1
10
49.000000
20
13.000000
11
49.000000
21
10.100000
0
LINE
8
Layer 1
10
49.000000
20
10.100000
11
49.100000
21
10.000000
0
LINE
8
Layer 1
10
49.100000
20
10.000000
11
55.100000
21
10.000000
0
LINE
8
Layer 1
10
55.100000
20
10.000000
11
55.200000
21
10.100000
0
LINE
8
Layer 1
10
55.200000
20
10.100000
11
55.200000
21
13.000000
0
LINE
8
Layer 1
10
55.200000
20
13.000000
11
61.000000
21
13.000000
0
LINE
8
Layer 1
10
61.000000
20
13.000000
11
61.000000
21
10.100000
0
LINE
8
Layer 1
10
61.000000
20
10.100000
11
61.100000
21
10.000000
0
LINE
8
Layer 1
10
61.100000
20
10.000000
11
67.100000
21
10.000000
0
LINE
8
Layer 1
10
67.100000
20
10.000000
11
70.100000
21
10.000000
0
LINE
8
Layer 1
10
70.100000
20
10.000000
11
70.200000
21
10.100000
0
LINE
8
Layer 1
10
70.200000
20
10.100000
11
70.200000
21
19.100000
0
LINE
8
Layer 1
10
70.200000
20
19.100000
11
70.100000
21
19.200000
0
LINE
8
Layer 1
10
70.100000
20
19.200000
11
67.200000
21
19.200000
0
LINE
8
Layer 1
10
67.200000
20
19.200000
11
67.200000
21
25.000000
0
LINE
8
Layer 1
10
67.200000
20
25.000000
11
70.100000
21
25.000000
0
LINE
8
Layer 1
10
70.100000
20
25.000000
11
70.200000
21
25.100000
0
LINE
8
Layer 1
10
70.200000
20
25.100000
11
70.200000
21
31.100000
0
LINE
8
Layer 1
10
70.200000
20
31.100000
11
70.100000
21
31.200000
0
LINE
8
Layer 1
10
70.100000
20
31.200000
11
67.200000
21
31.200000
0
LINE
8
Layer 1
10
67.200000
20
31.200000
11
67.200000
21
37.000000
0
LINE
8
Layer 1
10
67.200000
20
37.000000
11
70.100000
21
37.000000
0
LINE
8
Layer 1
10
70.100000
20
37.000000
11
70.200000
21
37.100000
0
LINE
8
Layer 1
10
70.200000
20
37.100000
11
70.200000
21
43.100000
0
LINE
8
Layer 1
10
70.200000
20
43.100000
11
70.100000
21
43.200000
0
LINE
8
Layer 1
10
70.100000
20
43.200000
11
67.200000
21
43.200000
0
LINE
8
Layer 1
10
67.200000
20
43.200000
11
67.200000
21
49.000000
0
LINE
8
Layer 1
10
67.200000
20
49.000000
11
70.100000
21
49.000000
0
LINE
8
Layer 1
10
70.100000
20
49.000000
11
70.200000
21
49.100000
0
LINE
8
Layer 1
10
70.200000
20
49.100000
11
70.200000
21
55.100000
0
LINE
8
Layer 1
10
70.200000
20
55.100000
11
70.100000
21
55.200000
0
LINE
8
Layer 1
10
70.100000
20
55.200000
11
67.200000
21
55.200000
0
LINE
8
Layer 1
10
67.200000
20
55.200000
11
67.200000
21
61.000000
0
LINE
8
Layer 1
10
67.200000
20
61.000000
11
70.100000
21
61.000000
0
LINE
8
Layer 1
10
70.100000
20
61.000000
11
70.200000
21
61.100000
0
LINE
8
Layer 1
10
70.200000
20
61.100000
11
70.200000
21
70.100000
0
LINE
8
Layer 1
10
70.200000
20
70.100000
11
70.100000
21
70.200000
0
LINE
8
Layer 1
10
70.100000
20
70.200000
11
67.100000
21
70.200000
0
LINE
8
Layer 1
10
67.100000
20
70.200000
11
13.100000
21
70.200000
0
LINE
8
Layer 1
10
13.100000
20
70.200000
11
10.100000
21
70.200000
0
LINE
8
Layer 1
10
10.100000
20
70.200000
11
10.000000
21
70.100000
0
LINE
8
Layer 1
10
10.000000
20
70.100000
11
10.000000
21
61.100000
0
LINE
8
Layer 1
10
10.000000
20
61.100000
11
10.100000
21
61.000000
0
LINE
8
Layer 1
10
10.100000
20
61.000000
11
13.000000
21
61.000000
0
LINE
8
Layer 1
10
13.000000
20
61.000000
11
13.000000
21
55.200000
0
LINE
8
Layer 1
10
13.000000
20
55.200000
11
10.100000
21
55.200000
0
LINE
8
Layer 1
10
10.100000
20
55.200000
11
10.000000
21
55.100000
0
LINE
8
Layer 1
10
10.000000
20
55.100000
11
10.000000
21
49.100000
0
LINE
8
Layer 1
10
10.000000
20
49.100000
11
10.100000
21
49.000000
0
LINE
8
Layer 1
10
10.100000
20
49.000000
11
13.000000
21
49.000000
0
LINE
8
Layer 1
10
13.000000
20
49.000000
11
13.000000
21
43.200000
0
LINE
8
Layer 1
10
13.000000
20
43.200000
11
10.100000
21
43.200000
0
LINE
8
Layer 1
10
10.100000
20
43.200000
11
10.000000
21
43.100000
0
LINE
8
Layer 1
10
10.000000
20
43.100000
11
10.000000
21
37.100000
0
LINE
8
Layer 1
10
10.000000
20
37.100000
11
10.100000
21
37.000000
0
LINE
8
Layer 1
10
10.100000
20
37.000000
11
13.000000
21
37.000000
0
LINE
8
Layer 1
10
13.000000
20
37.000000
11
13.000000
21
31.200000
0
LINE
8
Layer 1
10
13.000000
20
31.200000
11
10.100000
21
31.200000
0
LINE
8
Layer 1
10
10.100000
20
31.200000
11
10.000000
21
31.100000
0
LINE
8
Layer 1
10
10.000000
20
31.100000
11
10.000000
21
25.100000
0
LINE
8
Layer 1
10
10.000000
20
25.100000
11
10.100000
21
25.000000
0
LINE
8
Layer 1
10
10.100000
20
25.000000
11
13.000000
21
25.000000
0
LINE
8
Layer 1
10
13.000000
20
25.000000
11
13.000000
21
19.200000
0
LINE
8
Layer 1
10
13.000000
20
19.200000
11
10.100000
21
19.200000
0
LINE
8
Layer 1
10
10.100000
20
19.200000
11
10.000000
21
19.100000
0
LINE
8
Layer 1
10
10.000000
20
19.100000
11
10.000000
21
10.100000
0
LINE
8
Layer 1
10
10.000000
20
10.100000
11
10.100000
21
10.000000
0
LINE
8
Layer 1
10
10.100000
20
10.000000
11
13.100000
21
10.000000
0
LINE
8
Layer 1
10
13.100000
20
10.000000
11
13.100000
21
10.000000
0
LINE
8
Layer 1
10
13.100000
20
71.700000
11
19.100000
21
71.700000
0
LINE
8
Layer 1
10
19.100000
20
71.700000
11
19.200000
21
71.800000
0
LINE
8
Layer 1
10
19.200000
20
71.800000
11
19.200000
21
74.700000
0
LINE
8
Layer 1
10
19.200000
20
74.700000
11
25.000000
21
74.700000
0
LINE
8
Layer 1
10
25.000000
20
74.700000
11
25.000000
21
71.800000
0
LINE
8
Layer 1
10
25.000000
20
71.800000
11
25.100000
21
71.700000
0
LINE
8
Layer 1
10
25.100000
20
71.700000
11
31.100000
21
71.700000
0
LINE
8
Layer 1
10
31.100000
20
71.700000
11
31.200000
21
71.800000
0
LINE
8
Layer 1
10
31.200000
20
71.800000
11
31.200000
21
74.700000
0
LINE
8
Layer 1
10
31.200000
20
74.700000
11
37.000000
21
74.700000
0
LINE
8
Layer 1
10
37.000000
20
74.700000
11
37.000000
21
71.800000
0
LINE
8
Layer 1
10
37.000000
20
71.800000
11
37.100000
21
71.700000
0
LINE
8
Layer 1
10
37.100000
20
71.700000
11
43.100000
21
71.700000
0
LINE
8
Layer 1
10
43.100000
20
71.700000
11
43.200000
21
71.800000
0
LINE
8
Layer 1
10
43.200000
20
71.800000
11
43.200000
21
74.700000
0
LINE
8
Layer 1
10
43.200000
20
74.700000
11
49.000000
21
74.700000
0
LINE
8
Layer 1
10
49.000000
20
74.700000
11
49.000000
21
71.800000
0
LINE
8
Layer 1
10
49.000000
20
71.800000
11
49.100000
21
71.700000
0
LINE
8
Layer 1
10
49.100000
20
71.700000
11
55.100000
21
71.700000
0
LINE
8
Layer 1
10
55.100000
20
71.700000
11
55.200000
21
71.800000
0
LINE
8
Layer 1
10
55.200000
20
71.800000
11
55.200000
21
74.700000
0
LINE
8
Layer 1
10
55.200000
20
74.700000
11
61.000000
21
74.700000
0
LINE
8
Layer 1
10
61.000000
20
74.700000
11
61.000000
21
71.800000
0
LINE
8
Layer 1
10
61.000000
20
71.800000
11
61.100000
21
71.700000
0
LINE
8
Layer 1
10
61.100000
20
71.700000
11
67.100000
21
71.700000
0
LINE
8
Layer 1
10
67.100000
20
71.700000
11
70.100000
21
71.700000
0
LINE
8
Layer 1
10
70.100000
20
71.700000
11
70.200000
21
71.800000
0
LINE
8
Layer 1
10
70.200000
20
71.800000
11
70.200000
21
80.800000
0
LINE
8
Layer 1
10
70.200000
20
80.800000
11
70.100000
21
80.900000
0
LINE
8
Layer 1
10
70.100000
20
80.900000
11
67.200000
21
80.900000
0
LINE
8
Layer 1
10
67.200000
20
80.900000
11
67.200000
21
86.700000
0
LINE
8
Layer 1
10
67.200000
20
86.700000
11
70.100000
21
86.700000
0
LINE
8
Layer 1
10
70.100000
20
86.700000
11
70.200000
21
86.800000
0
LINE
8
Layer 1
10
70.200000
20
86.800000
11
70.200000
21
92.800000
0
LINE
8
Layer 1
10
70.200000
20
92.800000
11
70.100000
21
92.900000
0
LINE
8
Layer 1
10
70.100000
20
92.900000
11
67.200000
21
92.900000
0
LINE
8
Layer 1
10
67.200000
20
92.900000
11
67.200000
21
98.700000
0
LINE
8
Layer 1
10
67.200000
20
98.700000
11
70.100000
21
98.700000
0
LINE
8
Layer 1
10
70.100000
20
98.700000
11
70.200000
21
98.800000
0
LINE
8
Layer 1
10
70.200000
20
98.800000
11
70.200000
21
104.800000
0
LINE
8
Layer 1
10
70.200000
20
104.800000
11
70.100000
21
104.900000
0
LINE
8
Layer 1
10
70.100000
20
104.900000
11
67.200000
21
104.900000
0
LINE
8
Layer 1
10
67.200000
20
104.900000
11
67.200000
21
110.700000
0
LINE
8
Layer 1
10
67.200000
20
110.700000
11
70.100000
21
110.700000
0
LINE
8
Layer 1
10
70.100000
20
110.700000
11
70.200000
21
110.800000
0
LINE
8
Layer 1
10
70.200000
20
110.800000
11
70.200000
21
116.800000
0
LINE
8
Layer 1
10
70.200000
20
116.800000
11
70.100000
21
116.900000
0
LINE
8
Layer 1
10
70.100000
20
116.900000
11
67.200000
21
116.900000
0
LINE
8
Layer 1
10
67.200000
20
116.900000
11
67.200000
21
122.700000
0
LINE
8
Layer 1
10
67.200000
20
122.700000
11
70.100000
21
122.700000
0
LINE
8
Layer 1
10
70.100000
20
122.700000
11
70.200000
21
122.800000
0
LINE
8
Layer 1
10
70.200000
20
122.800000
11
70.200000
21
131.800000
0
LINE
8
Layer 1
10
70.200000
20
131.800000
11
70.100000
21
131.900000
0
LINE
8
Layer 1
10
70.100000
20
131.900000
11
67.100000
21
131.900000
0
LINE
8
Layer 1
10
67.100000
20
131.900000
11
13.100000
21
131.900000
0
LINE
8
Layer 1
10
13.100000
20
131.900000
11
10.100000
21
131.900000
0
LINE
8
Layer 1
10
10.100000
20
131.900000
11
10.000000
21
131.800000
0
LINE
8
Layer 1
10
10.000000
20
131.800000
11
10.000000
21
122.800000
0
LINE
8
Layer 1
10
10.000000
20
122.800000
11
10.100000
21
122.700000
0
LINE
8
Layer 1
10
10.100000
20
122.700000
11
13.000000
21
122.700000
0
LINE
8
Layer 1
10
13.000000
20
122.700000
11
13.000000
21
116.900000
0
LINE
8
Layer 1
10
13.000000
20
116.900000
11
10.100000
21
116.900000
0
LINE
8
Layer 1
10
10.100000
20
116.900000
11
10.000000
21
116.800000
0
LINE
8
Layer 1
10
10.000000
20
116.800000
11
10.000000
21
110.800000
0
LINE
8
Layer 1
10
10.000000
20
110.800000
11
10.100000
21
110.700000
0
LINE
8
Layer 1
10
10.100000
20
110.700000
11
13.000000
21
110.700000
0
LINE
8
Layer 1
10
13.000000
20
110.700000
11
13.000000
21
104.900000
0
LINE
8
Layer 1
10
13.000000
20
104.900000
11
10.100000
21
104.900000
0
LINE
8
Layer 1
10
10.100000
20
104.900000
11
10.000000
21
104.800000
0
LINE
8
Layer 1
10
10.000000
20
104.800000
11
10.000000
21
98.800000
0
LINE
8
Layer 1
10
10.000000
20
98.800000
11
10.100000
21
98.700000
0
LINE
8
Layer 1
10
10.100000
20
98.700000
11
13.000000
21
98.700000
0
LINE
8
Layer 1
10
13.000000
20
98.700000
11
13.000000
21
92.900000
0
LINE
8
Layer 1
10
13.000000
20
92.900000
11
10.100000
21
92.900000
0
LINE
8
Layer 1
10
10.100000
20
92.900000
11
10.000000
21
92.800000
0
LINE
8
Layer 1
10
10.000000
20
92.800000
11
10.000000
21
86.800000
0
LINE
8
Layer 1
10
10.000000
20
86.800000
11
10.100000
21
86.700000
0
LINE
8
Layer 1
10
10.100000
20
86.700000
11
13.000000
21
86.700000
0
LINE
8
Layer 1
10
13.000000
20
86.700000
11
13.000000
21
80.900000
0
LINE
8
Layer 1
10
13.000000
20
80.900000
11
10.100000
21
80.900000
0
LINE
8
Layer 1
10
10.100000
20
80.900000
11
10.000000
21
80.800000
0
LINE
8
Layer 1
10
10.000000
20
80.800000
11
10.000000
21
71.800000
0
LINE
8
Layer 1
10
10.000000
20
71.800000
11
10.100000
21
71.700000
0
LINE
8
Layer 1
10
10.100000
20
71.700000
11
13.100000
21
71.700000
0
LINE
8
Layer 1
10
13.100000
20
71.700000
11
13.100000
21
71.700000
0
LINE
8
Layer 1
10
13.100000
20
136.400000
11
19.000000
21
136.400000
0
LINE
8
Layer 1
10
19.000000
20
136.400000
11
19.000000
21
133.500000
0
LINE
8
Layer 1
10
19.000000
20
133.500000
11
19.100000
21
133.400000
0
LINE
8
Layer 1
10
19.100000
20
133.400000
11
25.100000
21
133.400000
0
LINE
8
Layer 1
10
25.100000
20
133.400000
11
25.200000
21
133.500000
0
LINE
8
Layer 1
10
25.200000
20
133.500000
11
25.200000
21
136.400000
0
LINE
8
Layer 1
10
25.200000
20
136.400000
11
31.000000
21
136.400000
0
LINE
8
Layer 1
10
31.000000
20
136.400000
11
31.000000
21
133.500000
0
LINE
8
Layer 1
10
31.000000
20
133.500000
11
31.100000
21
133.400000
0
LINE
8
Layer 1
10
31.100000
20
133.400000
11
37.100000
21
133.400000
0
LINE
8
Layer 1
10
37.100000
20
133.400000
11
37.200000
21
133.500000
0
LINE
8
Layer 1
10
37.200000
20
133.500000
11
37.200000
21
136.400000
0
LINE
8
Layer 1
10
37.200000
20
136.400000
11
43.000000
21
136.400000
0
LINE
8
Layer 1
10
43.000000
20
136.400000
11
43.000000
21
133.500000
0
LINE
8
Layer 1
10
43.000000
20
133.500000
11
43.100000
21
133.400000
0
LINE
8
Layer 1
10
43.100000
20
133.400000
11
49.100000
21
133.400000
0
LINE
8
Layer 1
10
49.100000
20
133.400000
11
49.200000
21
133.500000
0
LINE
8
Layer 1
10
49.200000
20
133.500000
11
49.200000
21
136.400000
0
LINE
8
Layer 1
10
49.200000
20
136.400000
11
55.000000
21
136.400000
0
LINE
8
Layer 1
10
55.000000
20
136.400000
11
55.000000
21
133.500000
0
LINE
8
Layer 1
10
55.000000
20
133.500000
11
55.100000
21
133.400000
0
LINE
8
Layer 1
10
55.100000
20
133.400000
11
61.100000
21
133.400000
0
LINE
8
Layer 1
10
61.100000
20
133.400000
11
61.200000
21
133.500000
0
LINE
8
Layer 1
10
61.200000
20
133.500000
11
61.200000
21
136.400000
0
LINE
8
Layer 1
10
61.200000
20
136.400000
11
67.100000
21
136.400000
0
LINE
8
Layer 1
10
67.100000
20
136.400000
11
67.200000
21
136.500000
0
LINE
8
Layer 1
10
67.200000
20
136.500000
11
67.200000
21
142.400000
0
LINE
8
Layer 1
10
67.200000
20
142.400000
11
70.100000
21
142.400000
0
LINE
8
Layer 1
10
70.100000
20
142.400000
11
70.200000
21
142.500000
0
LINE
8
Layer 1
10
70.200000
20
142.500000
11
70.200000
21
148.500000
0
LINE
8
Layer 1
10
70.200000
20
148.500000
11
70.100000
21
148.600000
0
LINE
8
Layer 1
10
70.100000
20
148.600000
11
67.200000
21
148.600000
0
LINE
8
Layer 1
10
67.200000
20
148.600000
11
67.200000
21
154.400000
0
LINE
8
Layer 1
10
67.200000
20
154.400000
11
70.100000
21
154.400000
0
LINE
8
Layer 1
10
70.100000
20
154.400000
11
70.200000
21
154.500000
0
LINE
8
Layer 1
10
70.200000
20
154.500000
11
70.200000
21
160.500000
0
LINE
8
Layer 1
10
70.200000
20
160.500000
11
70.100000
21
160.600000
0
LINE
8
Layer 1
10
70.100000
20
160.600000
11
67.200000
21
160.600000
0
LINE
8
Layer 1
10
67.200000
20
160.600000
11
67.200000
21
166.400000
0
LINE
8
Layer 1
10
67.200000
20
166.400000
11
70.100000
21
166.400000
0
LINE
8
Layer 1
10
70.100000
20
166.400000
11
70.200000
21
166.500000
0
LINE
8
Layer 1
10
70.200000
20
166.500000
11
70.200000
21
172.500000
0
LINE
8
Layer 1
10
70.200000
20
172.500000
11
70.100000
21
172.600000
0
LINE
8
Layer 1
10
70.100000
20
172.600000
11
67.200000
21
172.600000
0
LINE
8
Layer 1
10
67.200000
20
172.600000
11
67.200000
21
178.400000
0
LINE
8
Layer 1
10
67.200000
20
178.400000
11
70.100000
21
178.400000
0
LINE
8
Layer 1
10
70.100000
20
178.400000
11
70.200000
21
178.500000
0
LINE
8
Layer 1
10
70.200000
20
178.500000
11
70.200000
21
184.500000
0
LINE
8
Layer 1
10
70.200000
20
184.500000
11
70.100000
21
184.600000
0
LINE
8
Layer 1
10
70.100000
20
184.600000
11
67.200000
21
184.600000
0
LINE
8
Layer 1
10
67.200000
20
184.600000
11
67.200000
21
190.500000
0
LINE
8
Layer 1
10
67.200000
20
190.500000
11
67.100000
21
190.600000
0
LINE
8
Layer 1
10
67.100000
20
190.600000
11
61.200000
21
190.600000
0
LINE
8
Layer 1
10
61.200000
20
190.600000
11
61.200000
21
193.500000
0
LINE
8
Layer 1
10
61.200000
20
193.500000
11
61.100000
21
193.600000
0
LINE
8
Layer 1
10
61.100000
20
193.600000
11
55.100000
21
193.600000
0
LINE
8
Layer 1
10
55.100000
20
193.600000
11
55.000000
21
193.500000
0
LINE
8
Layer 1
10
55.000000
20
193.500000
11
55.000000
21
190.600000
0
LINE
8
Layer 1
10
55.000000
20
190.600000
11
49.200000
21
190.600000
0
LINE
8
Layer 1
10
49.200000
20
190.600000
11
49.200000
21
193.500000
0
LINE
8
Layer 1
10
49.200000
20
193.500000
11
49.100000
21
193.600000
0
LINE
8
Layer 1
10
49.100000
20
193.600000
11
43.100000
21
193.600000
0
LINE
8
Layer 1
10
43.100000
20
193.600000
11
43.000000
21
193.500000
0
LINE
8
Layer 1
10
43.000000
20
193.500000
11
43.000000
21
190.600000
0
LINE
8
Layer 1
10
43.000000
20
190.600000
11
37.200000
21
190.600000
0
LINE
8
Layer 1
10
37.200000
20
190.600000
11
37.200000
21
193.500000
0
LINE
8
Layer 1
10
37.200000
20
193.500000
11
37.100000
21
193.600000
0
LINE
8
Layer 1
10
37.100000
20
193.600000
11
31.100000
21
193.600000
0
LINE
8
Layer 1
10
31.100000
20
193.600000
11
31.000000
21
193.500000
0
LINE
8
Layer 1
10
31.000000
20
193.500000
11
31.000000
21
190.600000
0
LINE
8
Layer 1
10
31.000000
20
190.600000
11
25.200000
21
190.600000
0
LINE
8
Layer 1
10
25.200000
20
190.600000
11
25.200000
21
193.500000
0
LINE
8
Layer 1
10
25.200000
20
193.500000
11
25.100000
21
193.600000
0
LINE
8
Layer 1
10
25.100000
20
193.600000
11
19.100000
21
193.600000
0
LINE
8
Layer 1
10
19.100000
20
193.600000
11
19.000000
21
193.500000
0
LINE
8
Layer 1
10
19.000000
20
193.500000
11
19.000000
21
190.600000
0
LINE
8
Layer 1
10
19.000000
20
190.600000
11
13.100000
21
190.600000
0
LINE
8
Layer 1
10
13.100000
20
190.600000
11
13.000000
21
190.500000
0
LINE
8
Layer 1
10
13.000000
20
190.500000
11
13.000000
21
184.600000
0
LINE
8
Layer 1
10
13.000000
20
184.600000
11
10.100000
21
184.600000
0
LINE
8
Layer 1
10
10.100000
20
184.600000
11
10.000000
21
184.500000
0
LINE
8
Layer 1
10
10.000000
20
184.500000
11
10.000000
21
178.500000
0
LINE
8
Layer 1
10
10.000000
20
178.500000
11
10.100000
21
178.400000
0
LINE
8
Layer 1
10
10.100000
20
178.400000
11
13.000000
21
178.400000
0
LINE
8
Layer 1
10
13.000000
20
178.400000
11
13.000000
21
172.600000
0
LINE
8
Layer 1
10
13.000000
20
172.600000
11
10.100000
21
172.600000
0
LINE
8
Layer 1
10
10.100000
20
172.600000
11
10.000000
21
172.500000
0
LINE
8
Layer 1
10
10.000000
20
172.500000
11
10.000000
21
166.500000
0
LINE
8
Layer 1
10
10.000000
20
166.500000
11
10.100000
21
166.400000
0
LINE
8
Layer 1
10
10.100000
20
166.400000
11
13.000000
21
166.400000
0
LINE
8
Layer 1
10
13.000000
20
166.400000
11
13.000000
21
160.600000
0
LINE
8
Layer 1
10
13.000000
20
160.600000
11
10.100000
21
160.600000
0
LINE
8
Layer 1
10
10.100000
20
160.600000
11
10.000000
21
160.500000
0
LINE
8
Layer 1
10
10.000000
20
160.500000
11
10.000000
21
154.500000
0
LINE
8
Layer 1
10
10.000000
20
154.500000
11
10.100000
21
154.400000
0
LINE
8
Layer 1
10
10.100000
20
154.400000
11
13.000000
21
154.400000
0
LINE
8
Layer 1
10
13.000000
20
154.400000
11
13.000000
21
148.600000
0
LINE
8
Layer 1
10
13.000000
20
148.600000
11
10.100000
21
148.600000
0
LINE
8
Layer 1
10
10.100000
20
148.600000
11
10.000000
21
148.500000
0
LINE
8
Layer 1
10
10.000000
20
148.500000
11
10.000000
21
142.500000
0
LINE
8
Layer 1
10
10.000000
20
142.500000
11
10.100000
21
142.400000
0
LINE
8
Layer 1
10
10.100000
20
142.400000
11
13.000000
21
142.400000
0
LINE
8
Layer 1
10
13.000000
20
142.400000
11
13.000000
21
136.500000
0
LINE
8
Layer 1
10
13.000000
20
136.500000
11
13.100000
21
136.400000
0
LINE
8
Layer 1
10
13.100000
20
136.400000
11
13.100000
21
136.400000
0
LINE
8
Layer 1
10
74.800000
20
10.000000
11
80.800000
21
10.000000
0
LINE
8
Layer 1
10
80.800000
20
10.000000
11
80.900000
21
10.100000
0
LINE
8
Layer 1
10
80.900000
20
10.100000
11
80.900000
21
13.000000
0
LINE
8
Layer 1
10
80.900000
20
13.000000
11
86.700000
21
13.000000
0
LINE
8
Layer 1
10
86.700000
20
13.000000
11
86.700000
21
10.100000
0
LINE
8
Layer 1
10
86.700000
20
10.100000
11
86.800000
21
10.000000
0
LINE
8
Layer 1
10
86.800000
20
10.000000
11
92.800000
21
10.000000
0
LINE
8
Layer 1
10
92.800000
20
10.000000
11
92.900000
21
10.100000
0
LINE
8
Layer 1
10
92.900000
20
10.100000
11
92.900000
21
13.000000
0
LINE
8
Layer 1
10
92.900000
20
13.000000
11
98.700000
21
13.000000
0
LINE
8
Layer 1
10
98.700000
20
13.000000
11
98.700000
21
10.100000
0
LINE
8
Layer 1
10
98.700000
20
10.100000
11
98.800000
21
10.000000
0
LINE
8
Layer 1
10
98.800000
20
10.000000
11
104.800000
21
10.000000
0
LINE
8
Layer 1
10
104.800000
20
10.000000
11
104.900000
21
10.100000
0
LINE
8
Layer 1
10
104.900000
20
10.100000
11
104.900000
21
13.000000
0
LINE
8
Layer 1
10
104.900000
20
13.000000
11
110.700000
21
13.000000
0
LINE
8
Layer 1
10
110.700000
20
13.000000
11
110.700000
21
10.100000
0
LINE
8
Layer 1
10
110.700000
20
10.100000
11
110.800000
21
10.000000
0
LINE
8
Layer 1
10
110.800000
20
10.000000
11
116.800000
21
10.000000
0
LINE
8
Layer 1
10
116.800000
20
10.000000
11
116.900000
21
10.100000
0
LINE
8
Layer 1
10
116.900000
20
10.100000
11
116.900000
21
13.000000
0
LINE
8
Layer 1
10
116.900000
20
13.000000
11
122.700000
21
13.000000
0
LINE
8
Layer 1
10
122.700000
20
13.000000
11
122.700000
21
10.100000
0
LINE
8
Layer 1
10
122.700000
20
10.100000
11
122.800000
21
10.000000
0
LINE
8
Layer 1
10
122.800000
20
10.000000
11
128.800000
21
10.000000
0
LINE
8
Layer 1
10
128.800000
20
10.000000
11
128.900000
21
10.100000
0
LINE
8
Layer 1
10
128.900000
20
10.100000
11
128.900000
21
19.000000
0
LINE
8
Layer 1
10
128.900000
20
19.000000
11
131.800000
21
19.000000
0
LINE
8
Layer 1
10
131.800000
20
19.000000
11
131.900000
21
19.100000
0
LINE
8
Layer 1
10
131.900000
20
19.100000
11
131.900000
21
25.100000
0
LINE
8
Layer 1
10
131.900000
20
25.100000
11
131.800000
21
25.200000
0
LINE
8
Layer 1
10
131.800000
20
25.200000
11
128.900000
21
25.200000
0
LINE
8
Layer 1
10
128.900000
20
25.200000
11
128.900000
21
31.000000
0
LINE
8
Layer 1
10
128.900000
20
31.000000
11
131.800000
21
31.000000
0
LINE
8
Layer 1
10
131.800000
20
31.000000
11
131.900000
21
31.100000
0
LINE
8
Layer 1
10
131.900000
20
31.100000
11
131.900000
21
37.100000
0
LINE
8
Layer 1
10
131.900000
20
37.100000
11
131.800000
21
37.200000
0
LINE
8
Layer 1
10
131.800000
20
37.200000
11
128.900000
21
37.200000
0
LINE
8
Layer 1
10
128.900000
20
37.200000
11
128.900000
21
43.000000
0
LINE
8
Layer 1
10
128.900000
20
43.000000
11
131.800000
21
43.000000
0
LINE
8
Layer 1
10
131.800000
20
43.000000
11
131.900000
21
43.100000
0
LINE
8
Layer 1
10
131.900000
20
43.100000
11
131.900000
21
49.100000
0
LINE
8
Layer 1
10
131.900000
20
49.100000
11
131.800000
21
49.200000
0
LINE
8
Layer 1
10
131.800000
20
49.200000
11
128.900000
21
49.200000
0
LINE
8
Layer 1
10
128.900000
20
49.200000
11
128.900000
21
55.000000
0
LINE
8
Layer 1
10
128.900000
20
55.000000
11
131.800000
21
55.000000
0
LINE
8
Layer 1
10
131.800000
20
55.000000
11
131.900000
21
55.100000
0
LINE
8
Layer 1
10
131.900000
20
55.100000
11
131.900000
21
61.100000
0
LINE
8
Layer 1
10
131.900000
20
61.100000
11
131.800000
21
61.200000
0
LINE
8
Layer 1
10
131.800000
20
61.200000
11
128.900000
21
61.200000
0
LINE
8
Layer 1
10
128.900000
20
61.200000
11
128.900000
21
70.100000
0
LINE
8
Layer 1
10
128.900000
20
70.100000
11
128.800000
21
70.200000
0
LINE
8
Layer 1
10
128.800000
20
70.200000
11
74.800000
21
70.200000
0
LINE
8
Layer 1
10
74.800000
20
70.200000
11
74.700000
21
70.100000
0
LINE
8
Layer 1
10
74.700000
20
70.100000
11
74.700000
21
61.200000
0
LINE
8
Layer 1
10
74.700000
20
61.200000
11
71.800000
21
61.200000
0
LINE
8
Layer 1
10
71.800000
20
61.200000
11
71.700000
21
61.100000
0
LINE
8
Layer 1
10
71.700000
20
61.100000
11
71.700000
21
55.100000
0
LINE
8
Layer 1
10
71.700000
20
55.100000
11
71.800000
21
55.000000
0
LINE
8
Layer 1
10
71.800000
20
55.000000
11
74.700000
21
55.000000
0
LINE
8
Layer 1
10
74.700000
20
55.000000
11
74.700000
21
49.200000
0
LINE
8
Layer 1
10
74.700000
20
49.200000
11
71.800000
21
49.200000
0
LINE
8
Layer 1
10
71.800000
20
49.200000
11
71.700000
21
49.100000
0
LINE
8
Layer 1
10
71.700000
20
49.100000
11
71.700000
21
43.100000
0
LINE
8
Layer 1
10
71.700000
20
43.100000
11
71.800000
21
43.000000
0
LINE
8
Layer 1
10
71.800000
20
43.000000
11
74.700000
21
43.000000
0
LINE
8
Layer 1
10
74.700000
20
43.000000
11
74.700000
21
37.200000
0
LINE
8
Layer 1
10
74.700000
20
37.200000
11
71.800000
21
37.200000
0
LINE
8
Layer 1
10
71.800000
20
37.200000
11
71.700000
21
37.100000
0
LINE
8
Layer 1
10
71.700000
20
37.100000
11
71.700000
21
31.100000
0
LINE
8
Layer 1
10
71.700000
20
31.100000
11
71.800000
21
31.000000
0
LINE
8
Layer 1
10
71.800000
20
31.000000
11
74.700000
21
31.000000
0
LINE
8
Layer 1
10
74.700000
20
31.000000
11
74.700000
21
25.200000
0
LINE
8
Layer 1
10
74.700000
20
25.200000
11
71.800000
21
25.200000
0
LINE
8
Layer 1
10
71.800000
20
25.200000
11
71.700000
21
25.100000
0
LINE
8
Layer 1
10
71.700000
20
25.100000
11
71.700000
21
19.100000
0
LINE
8
Layer 1
10
71.700000
20
19.100000
11
71.800000
21
19.000000
0
LINE
8
Layer 1
10
71.800000
20
19.000000
11
74.700000
21
19.000000
0
LINE
8
Layer 1
10
74.700000
20
19.000000
11
74.700000
21
10.100000
0
LINE
8
Layer 1
10
74.700000
20
10.100000
11
74.800000
21
10.000000
0
LINE
8
Layer 1
10
74.800000
20
10.000000
11
74.800000
21
10.000000
0
LINE
8
Layer 1
10
74.800000
20
71.700000
11
80.800000
21
71.700000
0
LINE
8
Layer 1
10
80.800000
20
71.700000
11
80.900000
21
71.800000
0
LINE
8
Layer 1
10
80.900000
20
71.800000
11
80.900000
21
74.700000
0
LINE
8
Layer 1
10
80.900000
20
74.700000
11
86.700000
21
74.700000
0
LINE
8
Layer 1
10
86.700000
20
74.700000
11
86.700000
21
71.800000
0
LINE
8
Layer 1
10
86.700000
20
71.800000
11
86.800000
21
71.700000
0
LINE
8
Layer 1
10
86.800000
20
71.700000
11
92.800000
21
71.700000
0
LINE
8
Layer 1
10
92.800000
20
71.700000
11
92.900000
21
71.800000
0
LINE
8
Layer 1
10
92.900000
20
71.800000
11
92.900000
21
74.700000
0
LINE
8
Layer 1
10
92.900000
20
74.700000
11
98.700000
21
74.700000
0
LINE
8
Layer 1
10
98.700000
20
74.700000
11
98.700000
21
71.800000
0
LINE
8
Layer 1
10
98.700000
20
71.800000
11
98.800000
21
71.700000
0
LINE
8
Layer 1
10
98.800000
20
71.700000
11
104.800000
21
71.700000
0
LINE
8
Layer 1
10
104.800000
20
71.700000
11
104.900000
21
71.800000
0
LINE
8
Layer 1
10
104.900000
20
71.800000
11
104.900000
21
74.700000
0
LINE
8
Layer 1
10
104.900000
20
74.700000
11
110.700000
21
74.700000
0
LINE
8
Layer 1
10
110.700000
20
74.700000
11
110.700000
21
71.800000
0
LINE
8
Layer 1
10
110.700000
20
71.800000
11
110.800000
21
71.700000
0
LINE
8
Layer 1
10
110.800000
20
71.700000
11
116.800000
21
71.700000
0
LINE
8
Layer 1
10
116.800000
20
71.700000
11
116.900000
21
71.800000
0
LINE
8
Layer 1
10
116.900000
20
71.800000
11
116.900000
21
74.700000
0
LINE
8
Layer 1
10
116.900000
20
74.700000
11
122.700000
21
74.700000
0
LINE
8
Layer 1
10
122.700000
20
74.700000
11
122.700000
21
71.800000
0
LINE
8
Layer 1
10
122.700000
20
71.800000
11
122.800000
21
71.700000
0
LINE
8
Layer 1
10
122.800000
20
71.700000
11
128.800000
21
71.700000
0
LINE
8
Layer 1
10
128.800000
20
71.700000
11
128.900000
21
71.800000
0
LINE
8
Layer 1
10
128.900000
20
71.800000
11
128.900000
21
80.700000
0
LINE
8
Layer 1
10
128.900000
20
80.700000
11
131.800000
21
80.700000
0
LINE
8
Layer 1
10
131.800000
20
80.700000
11
131.900000
21
80.800000
0
LINE
8
Layer 1
10
131.900000
20
80.800000
11
131.900000
21
86.800000
0
LINE
8
Layer 1
10
131.900000
20
86.800000
11
131.800000
21
86.900000
0
LINE
8
Layer 1
10
131.800000
20
86.900000
11
128.900000
21
86.900000
0
LINE
8
Layer 1
10
128.900000
20
86.900000
11
128.900000
21
92.700000
0
LINE
8
Layer 1
10
128.900000
20
92.700000
11
131.800000
21
92.700000
0
LINE
8
Layer 1
10
131.800000
20
92.700000
11
131.900000
21
92.800000
0
LINE
8
Layer 1
10
131.900000
20
92.800000
11
131.900000
21
98.800000
0
LINE
8
Layer 1
10
131.900000
20
98.800000
11
131.800000
21
98.900000
0
LINE
8
Layer 1
10
131.800000
20
98.900000
11
128.900000
21
98.900000
0
LINE
8
Layer 1
10
128.900000
20
98.900000
11
128.900000
21
104.700000
0
LINE
8
Layer 1
10
128.900000
20
104.700000
11
131.800000
21
104.700000
0
LINE
8
Layer 1
10
131.800000
20
104.700000
11
131.900000
21
104.800000
0
LINE
8
Layer 1
10
131.900000
20
104.800000
11
131.900000
21
110.800000
0
LINE
8
Layer 1
10
131.900000
20
110.800000
11
131.800000
21
110.900000
0
LINE
8
Layer 1
10
131.800000
20
110.900000
11
128.900000
21
110.900000
0
LINE
8
Layer 1
10
128.900000
20
110.900000
11
128.900000
21
116.700000
0
LINE
8
Layer 1
10
128.900000
20
116.700000
11
131.800000
21
116.700000
0
LINE
8
Layer 1
10
131.800000
20
116.700000
11
131.900000
21
116.800000
0
LINE
8
Layer 1
10
131.900000
20
116.800000
11
131.900000
21
122.800000
0
LINE
8
Layer 1
10
131.900000
20
122.800000
11
131.800000
21
122.900000
0
LINE
8
Layer 1
10
131.800000
20
122.900000
11
128.900000
21
122.900000
0
LINE
8
Layer 1
10
128.900000
20
122.900000
11
128.900000
21
131.800000
0
LINE
8
Layer 1
10
128.900000
20
131.800000
11
128.800000
21
131.900000
0
LINE
8
Layer 1
10
128.800000
20
131.900000
11
74.800000
21
131.900000
0
LINE
8
Layer 1
10
74.800000
20
131.900000
11
74.700000
21
131.800000
0
LINE
8
Layer 1
10
74.700000
20
131.800000
11
74.700000
21
122.900000
0
LINE
8
Layer 1
10
74.700000
20
122.900000
11
71.800000
21
122.900000
0
LINE
8
Layer 1
10
71.800000
20
122.900000
11
71.700000
21
122.800000
0
LINE
8
Layer 1
10
71.700000
20
122.800000
11
71.700000
21
116.800000
0
LINE
8
Layer 1
10
71.700000
20
116.800000
11
71.800000
21
116.700000
0
LINE
8
Layer 1
10
71.800000
20
116.700000
11
74.700000
21
116.700000
0
LINE
8
Layer 1
10
74.700000
20
116.700000
11
74.700000
21
110.900000
0
LINE
8
Layer 1
10
74.700000
20
110.900000
11
71.800000
21
110.900000
0
LINE
8
Layer 1
10
71.800000
20
110.900000
11
71.700000
21
110.800000
0
LINE
8
Layer 1
10
71.700000
20
110.800000
11
71.700000
21
104.800000
0
LINE
8
Layer 1
10
71.700000
20
104.800000
11
71.800000
21
104.700000
0
LINE
8
Layer 1
10
71.800000
20
104.700000
11
74.700000
21
104.700000
0
LINE
8
Layer 1
10
74.700000
20
104.700000
11
74.700000
21
98.900000
0
LINE
8
Layer 1
10
74.700000
20
98.900000
11
71.800000
21
98.900000
0
LINE
8
Layer 1
10
71.800000
20
98.900000
11
71.700000
21
98.800000
0
LINE
8
Layer 1
10
71.700000
20
98.800000
11
71.700000
21
92.800000
0
LINE
8
Layer 1
10
71.700000
20
92.800000
11
71.800000
21
92.700000
0
LINE
8
Layer 1
10
71.800000
20
92.700000
11
74.700000
21
92.700000
0
LINE
8
Layer 1
10
74.700000
20
92.700000
11
74.700000
21
86.900000
0
LINE
8
Layer 1
10
74.700000
20
86.900000
11
71.800000
21
86.900000
0
LINE
8
Layer 1
10
71.800000
20
86.900000
11
71.700000
21
86.800000
0
LINE
8
Layer 1
10
71.700000
20
86.800000
11
71.700000
21
80.800000
0
LINE
8
Layer 1
10
71.700000
20
80.800000
11
71.800000
21
80.700000
0
LINE
8
Layer 1
10
71.800000
20
80.700000
11
74.700000
21
80.700000
0
LINE
8
Layer 1
10
74.700000
20
80.700000
11
74.700000
21
71.800000
0
LINE
8
Layer 1
10
74.700000
20
71.800000
11
74.800000
21
71.700000
0
LINE
8
Layer 1
10
74.800000
20
71.700000
11
74.800000
21
71.700000
0
LINE
8
Layer 1
10
96.220222
20
182.520828
11
120.771259
21
182.520828
0
LINE
8
Layer 1
10
120.771259
20
182.520828
11
120.771259
21
161.937637
0
LINE
8
Layer 1
10
120.771259
20
161.937637
11
96.220222
21
161.937637
0
LINE
8
Layer 1
10
96.220222
20
161.937637
11
96.220222
21
182.520828
 0 
ENDSEC
 0 
EOF