<?xml version="1.0" standalone="no"?>
 <!DOCTYPE svg PUBLIC "-//W3C//DTD SVG 1.1//EN" 
 "http://www.w3.org/Graphics/SVG/1.1/DTD/svg11.dtd"> 
<svg
  xmlns:svg="http://www.w3.org/2000/svg"
  xmlns="http://www.w3.org/2000/svg"
  xmlns:xlink="http://www.w3.org/1999/xlink"
  version="1.1"
  width="21.000720cm" height="29.700220cm" viewBox="0 0 210007200 297002200">
<title>SVG Picture created as remote-F_Silkscreen.svg date 2024/04/18 00:31:03 </title>
  <desc>Picture generated by PCBNEW </desc>
<g style="fill:#000000; fill-opacity:1.000000;stroke:#000000; stroke-opacity:1.000000;
stroke-linecap:round; stroke-linejoin:round;"
 transform="translate(0 0) scale(1 1)">
</g>
<g style="fill:#000000; fill-opacity:0.0; 
stroke:#000000; stroke-width:0.000000; stroke-opacity:1; 
stroke-linecap:round; stroke-linejoin:round;">
</g>
<g style="fill:#000000; fill-opacity:0.0; 
stroke:#000000; stroke-width:100000.000000; stroke-opacity:1; 
stroke-linecap:round; stroke-linejoin:round;">
<path d="M49000000 97000000
L174000000 97000000
" />
<path d="M174000000 97000000
L174000000 177000000
" />
<path d="M174000000 177000000
L49000000 177000000
" />
<path d="M49000000 177000000
L49000000 97000000
" />
</g>
<g style="fill:#000000; fill-opacity:0.0; 
stroke:#000000; stroke-width:150000.000000; stroke-opacity:1; 
stroke-linecap:round; stroke-linejoin:round;">
<text x="66205000.000000" y="114210000.000000"
textLength="1623571.000000" font-size="2000000.000000" lengthAdjust="spacingAndGlyphs"
text-anchor="middle" opacity="0">1</text>
<g class="stroked-text"><desc>1</desc>
<path d="M66633571 114138571
L65776428 114138571
" />
<path d="M66205000 114138571
L66205000 112638571
L66062142 112852857
L65919285 112995714
L65776428 113067142
" />
</g><text x="144205000.000000" y="114210000.000000"
textLength="1623571.000000" font-size="2000000.000000" lengthAdjust="spacingAndGlyphs"
text-anchor="middle" opacity="0">1</text>
<g class="stroked-text"><desc>1</desc>
<path d="M144633571 114138571
L143776428 114138571
" />
<path d="M144205000 114138571
L144205000 112638571
L144062142 112852857
L143919285 112995714
L143776428 113067142
" />
</g><g transform="rotate(-180.000000 94620000.000000 165605000.000000)">
<text x="94620000.000000" y="166355000.000000"
textLength="1623571.000000" font-size="2000000.000000" lengthAdjust="spacingAndGlyphs"
text-anchor="middle" opacity="0">1</text>
</g>
<g class="stroked-text"><desc>1</desc>
<path d="M94191428 164926428
L95048571 164926428
" />
<path d="M94620000 164926428
L94620000 166426428
L94762857 166212142
L94905714 166069285
L95048571 165997857
" />
</g><text x="144205000.000000" y="157210000.000000"
textLength="1623571.000000" font-size="2000000.000000" lengthAdjust="spacingAndGlyphs"
text-anchor="middle" opacity="0">1</text>
<g class="stroked-text"><desc>1</desc>
<path d="M144633571 157138571
L143776428 157138571
" />
<path d="M144205000 157138571
L144205000 155638571
L144062142 155852857
L143919285 155995714
L143776428 156067142
" />
</g></g>
<g style="fill:#000000; fill-opacity:0.0; 
stroke:#000000; stroke-width:120000.000000; stroke-opacity:1; 
stroke-linecap:round; stroke-linejoin:round;">
<path d="M135175000 164350000
L128825000 164350000
" />
<path d="M128825000 164350000
L128825000 151650000
" />
<path d="M128825000 151650000
L135175000 151650000
" />
<path d="M135175000 151650000
L135175000 164350000
" />
<path d="M64935000 103935000
L89065000 103935000
" />
<path d="M89065000 103935000
L89065000 128065000
" />
<path d="M89065000 128065000
L64935000 128065000
" />
<path d="M64935000 128065000
L64935000 103935000
" />
<path d="M111190000 102642500
L111190000 103912500
" />
<path d="M118810000 103912500
L122620000 103912500
" />
<path d="M122620000 144552500
L118810000 144552500
" />
<path d="M118810000 102642500
L118810000 103912500
" />
<path d="M122620000 140742500
L122620000 144552500
" />
<path d="M111190000 103912500
L107380000 103912500
" />
<path d="M122620000 103912500
L122620000 110897500
" />
<path d="M107380000 144552500
L111190000 144552500
" />
<path d="M107380000 140742500
L107380000 144552500
" />
<path d="M107380000 103912500
L107380000 110897500
" />
<path d="M142935000 103935000
L167065000 103935000
" />
<path d="M167065000 103935000
L167065000 128065000
" />
<path d="M167065000 128065000
L142935000 128065000
" />
<path d="M142935000 128065000
L142935000 103935000
" />
<path d="M122270000 154370000
L122270000 151630000
" />
<path d="M122270000 151630000
L115730000 151630000
" />
<path d="M115730000 154370000
L122270000 154370000
" />
<path d="M114960000 153000000
L115730000 153000000
" />
<path d="M123040000 153000000
L122270000 153000000
" />
<path d="M115730000 151630000
L115730000 154370000
" />
<path d="M78110000 133855000
L82555000 133855000
" />
<path d="M95890000 168145000
L95890000 161795000
" />
<path d="M78110000 168145000
L82555000 168145000
" />
<path d="M91445000 168145000
L95890000 168145000
" />
<path d="M78110000 138300000
L78110000 133855000
" />
<path d="M78110000 161795000
L78110000 168145000
" />
<path d="M91445000 168780000
L91445000 168145000
" />
<path d="M82555000 168145000
L82555000 168780000
" />
<path d="M95890000 133855000
L91445000 133855000
" />
<path d="M95890000 138300000
L95890000 133855000
" />
<path d="M142935000 146935000
L167065000 146935000
" />
<path d="M167065000 146935000
L167065000 171065000
" />
<path d="M167065000 171065000
L142935000 171065000
" />
<path d="M142935000 171065000
L142935000 146935000
" />
<g >
</g>
<g >
</g>
<g >
</g>
<g >
</g>
<g >
</g>
<g >
</g>
<g >
</g>
<g >
</g>
<g >
</g>
<g >
</g>
<g >
</g>
<g >
</g>
</g> 
</svg>
