M48
; DRILL file {KiCad 6.0.11+dfsg-1} date Ср 17 апр 2024 23:54:20
; FORMAT={-:-/ absolute / inch / decimal}
; #@! TF.CreationDate,2024-04-17T23:54:20+03:00
; #@! TF.GenerationSoftware,Kicad,Pcbnew,6.0.11+dfsg-1
; #@! TF.FileFunction,Plated,1,2,PTH
FMAT,2
INCH
; #@! TA.AperFunction,Plated,PTH,ComponentDrill
T1C0.0197
; #@! TA.AperFunction,Plated,PTH,ViaDrill
T2C0.0236
; #@! TA.AperFunction,Plated,PTH,ComponentDrill
T3C0.0276
; #@! TA.AperFunction,Plated,PTH,ComponentDrill
T4C0.0315
; #@! TA.AperFunction,Plated,PTH,ComponentDrill
T5C0.0394
; #@! TA.AperFunction,Plated,PTH,ComponentDrill
T6C0.0630
%
G90
G05
T2
X3.4Y-5.45
X3.4Y-5.65
X3.4Y-6.1199
X3.4Y-6.55
X4.295Y-5.615
X4.295Y-5.985
X4.4Y-5.4
X4.65Y-5.4
X5.55Y-4.85
X5.75Y-4.85
T3
X2.9528Y-6.2992
X2.9528Y-6.4854
T4
X4.485Y-6.0236
X4.885Y-6.0236
T5
X2.6815Y-4.4669
X2.6815Y-4.5669
X2.6815Y-4.6669
X3.1252Y-5.3199
X3.1252Y-5.4199
X3.1252Y-5.5199
X3.1252Y-5.6199
X3.1252Y-5.7199
X3.1252Y-5.8199
X3.1252Y-5.9199
X3.1252Y-6.0199
X3.1252Y-6.1199
X3.1252Y-6.2199
X3.1252Y-6.3199
X3.1252Y-6.4199
X3.3815Y-4.4669
X3.3815Y-4.5669
X3.3815Y-4.6669
X3.7252Y-5.4199
X3.7252Y-5.6199
X3.7252Y-5.8199
X3.7252Y-6.1199
X3.7252Y-6.2199
X4.3776Y-5.5153
X4.3776Y-5.6153
X4.4776Y-5.5153
X4.4776Y-5.6153
X4.5776Y-5.5153
X4.5776Y-5.6153
X4.6776Y-5.5153
X4.6776Y-5.6153
X5.7524Y-4.4669
X5.7524Y-4.5669
X5.7524Y-4.6669
X5.7524Y-6.1598
X5.7524Y-6.2598
X5.7524Y-6.3598
X6.4524Y-4.4669
X6.4524Y-4.5669
X6.4524Y-4.6669
X6.4524Y-6.1598
X6.4524Y-6.2598
X6.4524Y-6.3598
T6
X4.2776Y-4.191
X4.7776Y-4.191
T1
G00X5.2264Y-6.0354
M15
G01X5.1673Y-6.0354
M16
G05
G00X5.2264Y-6.2205
M15
G01X5.1673Y-6.2205
M16
G05
G00X5.2264Y-6.4055
M15
G01X5.1673Y-6.4055
M16
G05
T0
M30
