%TF.GenerationSoftware,KiCad,Pcbnew,6.0.11+dfsg-1*%
%TF.CreationDate,2024-04-17T23:55:35+03:00*%
%TF.ProjectId,remote,72656d6f-7465-42e6-9b69-6361645f7063,rev?*%
%TF.SameCoordinates,Original*%
%TF.FileFunction,Copper,L2,Bot*%
%TF.FilePolarity,Positive*%
%FSLAX46Y46*%
G04 Gerber Fmt 4.6, Leading zero omitted, Abs format (unit mm)*
G04 Created by KiCad (PCBNEW 6.0.11+dfsg-1) date 2024-04-17 23:55:35*
%MOMM*%
%LPD*%
G01*
G04 APERTURE LIST*
%TA.AperFunction,Profile*%
%ADD10C,0.100000*%
%TD*%
%TA.AperFunction,ComponentPad*%
%ADD11R,1.700000X1.700000*%
%TD*%
%TA.AperFunction,ComponentPad*%
%ADD12C,1.700000*%
%TD*%
%TA.AperFunction,ComponentPad*%
%ADD13C,2.000000*%
%TD*%
%TA.AperFunction,ComponentPad*%
%ADD14C,1.500000*%
%TD*%
%TA.AperFunction,ComponentPad*%
%ADD15O,2.700000X1.200000*%
%TD*%
%TA.AperFunction,ComponentPad*%
%ADD16C,1.600000*%
%TD*%
%TA.AperFunction,ComponentPad*%
%ADD17O,1.600000X1.600000*%
%TD*%
%TA.AperFunction,ViaPad*%
%ADD18C,1.500000*%
%TD*%
%TA.AperFunction,Conductor*%
%ADD19C,0.900000*%
%TD*%
G04 APERTURE END LIST*
D10*
X49000000Y-97000000D02*
X174000000Y-97000000D01*
X174000000Y-97000000D02*
X174000000Y-177000000D01*
X174000000Y-177000000D02*
X49000000Y-177000000D01*
X49000000Y-177000000D02*
X49000000Y-97000000D01*
D11*
%TO.P,U1,1,GND*%
%TO.N,GND*%
X111190000Y-142627500D03*
D12*
%TO.P,U1,2,VCC*%
%TO.N,+3.3V*%
X111190000Y-140087500D03*
%TO.P,U1,3,CE*%
%TO.N,/CE*%
X113730000Y-142627500D03*
%TO.P,U1,4,CSN*%
%TO.N,/CSN*%
X113730000Y-140087500D03*
%TO.P,U1,5,SCK*%
%TO.N,/SCK*%
X116270000Y-142627500D03*
%TO.P,U1,6,MOSI*%
%TO.N,/MOSI*%
X116270000Y-140087500D03*
%TO.P,U1,7,MISO*%
%TO.N,/MISO*%
X118810000Y-142627500D03*
%TO.P,U1,8,IRQ*%
%TO.N,unconnected-(U1-Pad8)*%
X118810000Y-140087500D03*
D13*
%TO.P,U1,9,GND*%
%TO.N,GND*%
X121350000Y-106452500D03*
%TO.P,U1,10,GND*%
X108650000Y-106452500D03*
%TD*%
D12*
%TO.P,U2,3,GND*%
%TO.N,GND*%
X94620000Y-157985000D03*
%TO.P,U2,4,GND*%
X94620000Y-155445000D03*
%TO.P,U2,7,D4/A6*%
%TO.N,/BTN*%
X94620000Y-147825000D03*
%TO.P,U2,9,D6/A7*%
%TO.N,/TMB*%
X94620000Y-142745000D03*
%TO.P,U2,11,D8/A8*%
%TO.N,/CE*%
X94620000Y-137665000D03*
%TO.P,U2,13,D10/A10*%
%TO.N,/CSN*%
X79380000Y-135125000D03*
%TO.P,U2,14,D16*%
%TO.N,/MOSI*%
X79380000Y-137665000D03*
%TO.P,U2,15,D14*%
%TO.N,/MISO*%
X79380000Y-140205000D03*
%TO.P,U2,16,D15*%
%TO.N,/SCK*%
X79380000Y-142745000D03*
%TO.P,U2,17,A0*%
%TO.N,/Z*%
X79380000Y-145285000D03*
%TO.P,U2,18,A1*%
%TO.N,/Y*%
X79380000Y-147825000D03*
%TO.P,U2,19,A2*%
%TO.N,/X*%
X79380000Y-150365000D03*
%TO.P,U2,20,A3*%
%TO.N,/POT*%
X79380000Y-152905000D03*
%TO.P,U2,21,VCC*%
%TO.N,+3.3V*%
X79380000Y-155445000D03*
%TO.P,U2,22,RST*%
%TO.N,unconnected-(U2-Pad22)*%
X79380000Y-157985000D03*
%TO.P,U2,23,GND*%
%TO.N,GND*%
X79380000Y-160525000D03*
%TO.P,U2,24,RAW*%
%TO.N,Net-(U2-Pad24)*%
X79380000Y-163065000D03*
%TD*%
D14*
%TO.P,X1.2,1*%
%TO.N,GND*%
X75000000Y-160000000D03*
%TD*%
D15*
%TO.P,S1,1*%
%TO.N,/TMB*%
X132000000Y-158000000D03*
%TO.P,S1,2*%
%TO.N,GND*%
X132000000Y-162700000D03*
%TO.P,S1,3*%
%TO.N,Net-(R1-Pad1)*%
X132000000Y-153300000D03*
%TD*%
D14*
%TO.P,X1.1,1*%
%TO.N,Net-(U2-Pad24)*%
X75000000Y-164730000D03*
%TD*%
D11*
%TO.P,U5,1,V*%
%TO.N,+3.3V*%
X68110000Y-113460000D03*
D12*
%TO.P,U5,2,S*%
%TO.N,/POT*%
X68110000Y-116000000D03*
%TO.P,U5,3,G*%
%TO.N,GND*%
X68110000Y-118540000D03*
%TO.P,U5,4,NC*%
%TO.N,unconnected-(U5-Pad4)*%
X85890000Y-118540000D03*
%TO.P,U5,5,NC*%
%TO.N,unconnected-(U5-Pad5)*%
X85890000Y-116000000D03*
%TO.P,U5,6,NC*%
%TO.N,unconnected-(U5-Pad6)*%
X85890000Y-113460000D03*
%TD*%
D11*
%TO.P,U4,1,NC*%
%TO.N,unconnected-(U4-Pad1)*%
X146110000Y-113460000D03*
D12*
%TO.P,U4,2,Z*%
%TO.N,/Z*%
X146110000Y-116000000D03*
%TO.P,U4,3,Y*%
%TO.N,/Y*%
X146110000Y-118540000D03*
%TO.P,U4,4,G*%
%TO.N,GND*%
X163890000Y-118540000D03*
%TO.P,U4,5,V*%
%TO.N,+3.3V*%
X163890000Y-116000000D03*
%TO.P,U4,6,X*%
%TO.N,/X*%
X163890000Y-113460000D03*
%TD*%
D16*
%TO.P,R1,1*%
%TO.N,Net-(R1-Pad1)*%
X124080000Y-153000000D03*
D17*
%TO.P,R1,2*%
%TO.N,+3.3V*%
X113920000Y-153000000D03*
%TD*%
D11*
%TO.P,U3,1,V*%
%TO.N,+3.3V*%
X146110000Y-156460000D03*
D12*
%TO.P,U3,2,S*%
%TO.N,/BTN*%
X146110000Y-159000000D03*
%TO.P,U3,3,G*%
%TO.N,GND*%
X146110000Y-161540000D03*
%TO.P,U3,4,NC*%
%TO.N,unconnected-(U3-Pad4)*%
X163890000Y-161540000D03*
%TO.P,U3,5,NC*%
%TO.N,unconnected-(U3-Pad5)*%
X163890000Y-159000000D03*
%TO.P,U3,6,NC*%
%TO.N,unconnected-(U3-Pad6)*%
X163890000Y-156460000D03*
%TD*%
D18*
%TO.N,+3.3V*%
X111760000Y-137160000D03*
X86360000Y-166370000D03*
X86360000Y-155445000D03*
X118110000Y-137160000D03*
%TO.N,GND*%
X109093000Y-152019000D03*
X109093000Y-142621000D03*
%TO.N,/SCK*%
X86360000Y-138430000D03*
X86360000Y-143510000D03*
%TO.N,/Y*%
X140970000Y-123190000D03*
X146050000Y-123190000D03*
%TD*%
D19*
%TO.N,Net-(R1-Pad1)*%
X132000000Y-153300000D02*
X124380000Y-153300000D01*
X124380000Y-153300000D02*
X124080000Y-153000000D01*
%TO.N,+3.3V*%
X60960000Y-113460000D02*
X60960000Y-155445000D01*
X86360000Y-155445000D02*
X79380000Y-155445000D01*
X113920000Y-153000000D02*
X113920000Y-166370000D01*
X111190000Y-140087500D02*
X111190000Y-137730000D01*
X154940000Y-137160000D02*
X154940000Y-156210000D01*
X154940000Y-156210000D02*
X154940000Y-166370000D01*
X154690000Y-156460000D02*
X154940000Y-156210000D01*
X118110000Y-137160000D02*
X154940000Y-137160000D01*
X60960000Y-155445000D02*
X79380000Y-155445000D01*
X111190000Y-137730000D02*
X111760000Y-137160000D01*
X163890000Y-116000000D02*
X154940000Y-116000000D01*
X154940000Y-166370000D02*
X86360000Y-166370000D01*
X146110000Y-156460000D02*
X154690000Y-156460000D01*
X154940000Y-116000000D02*
X154940000Y-137160000D01*
X68110000Y-113460000D02*
X60960000Y-113460000D01*
%TO.N,/TMB*%
X91440000Y-149860000D02*
X91560000Y-149980000D01*
X118745000Y-158000000D02*
X132000000Y-158000000D01*
X118745000Y-149980000D02*
X118745000Y-158000000D01*
X94620000Y-142745000D02*
X91440000Y-142745000D01*
X91440000Y-142745000D02*
X91440000Y-149860000D01*
X91560000Y-149980000D02*
X118745000Y-149980000D01*
%TO.N,/CE*%
X104140000Y-144780000D02*
X104140000Y-137665000D01*
X113730000Y-144780000D02*
X104140000Y-144780000D01*
X104140000Y-137665000D02*
X94620000Y-137665000D01*
X113730000Y-142627500D02*
X113730000Y-144780000D01*
%TO.N,/CSN*%
X79380000Y-135125000D02*
X79380000Y-133425000D01*
X79380000Y-133425000D02*
X113730000Y-133425000D01*
X113730000Y-133425000D02*
X113730000Y-140087500D01*
%TO.N,/SCK*%
X102840000Y-139573000D02*
X86487000Y-139573000D01*
X102870000Y-146080000D02*
X102840000Y-146050000D01*
X86360000Y-143510000D02*
X86360000Y-142875000D01*
X86360000Y-139446000D02*
X86360000Y-138430000D01*
X116270000Y-142627500D02*
X116270000Y-145918478D01*
X86360000Y-142875000D02*
X86230000Y-142745000D01*
X116108478Y-146080000D02*
X102870000Y-146080000D01*
X102840000Y-146050000D02*
X102840000Y-139573000D01*
X116270000Y-145918478D02*
X116108478Y-146080000D01*
X86230000Y-142745000D02*
X79380000Y-142745000D01*
X86487000Y-139573000D02*
X86360000Y-139446000D01*
%TO.N,/MOSI*%
X77470000Y-132125000D02*
X116270000Y-132125000D01*
X116270000Y-132125000D02*
X116270000Y-140087500D01*
X79380000Y-137665000D02*
X77470000Y-137665000D01*
X77470000Y-137665000D02*
X77470000Y-132125000D01*
%TO.N,/MISO*%
X101540000Y-140873000D02*
X101540000Y-147320000D01*
X79380000Y-140205000D02*
X80048000Y-140873000D01*
X118810000Y-147380000D02*
X118810000Y-142627500D01*
X101600000Y-147380000D02*
X118810000Y-147380000D01*
X80048000Y-140873000D02*
X101540000Y-140873000D01*
X101540000Y-147320000D02*
X101600000Y-147380000D01*
%TO.N,/BTN*%
X95475000Y-148680000D02*
X94620000Y-147825000D01*
X142240000Y-159000000D02*
X142240000Y-148680000D01*
X146110000Y-159000000D02*
X142240000Y-159000000D01*
X142240000Y-148680000D02*
X95475000Y-148680000D01*
%TO.N,/Z*%
X143510000Y-130810000D02*
X143510000Y-116000000D01*
X76170000Y-145285000D02*
X76170000Y-130855000D01*
X79380000Y-145285000D02*
X76170000Y-145285000D01*
X76170000Y-130855000D02*
X76200000Y-130825000D01*
X76200000Y-130825000D02*
X143495000Y-130825000D01*
X143495000Y-130825000D02*
X143510000Y-130810000D01*
X143510000Y-116000000D02*
X146110000Y-116000000D01*
%TO.N,/Y*%
X140970000Y-129525000D02*
X140970000Y-123190000D01*
X79380000Y-147825000D02*
X74930000Y-147825000D01*
X74885000Y-129525000D02*
X140970000Y-129525000D01*
X74930000Y-147825000D02*
X74870000Y-147765000D01*
X74870000Y-147765000D02*
X74870000Y-129540000D01*
X146110000Y-118540000D02*
X146110000Y-123130000D01*
X146110000Y-123130000D02*
X146050000Y-123190000D01*
X74870000Y-129540000D02*
X74885000Y-129525000D01*
%TO.N,/X*%
X138430000Y-128225000D02*
X73615000Y-128225000D01*
X163890000Y-113460000D02*
X163890000Y-110550000D01*
X73660000Y-150365000D02*
X79380000Y-150365000D01*
X73570000Y-128270000D02*
X73570000Y-150275000D01*
X163830000Y-110490000D02*
X138430000Y-110490000D01*
X138430000Y-110490000D02*
X138430000Y-128225000D01*
X163890000Y-110550000D02*
X163830000Y-110490000D01*
X73570000Y-150275000D02*
X73660000Y-150365000D01*
X73615000Y-128225000D02*
X73570000Y-128270000D01*
%TO.N,/POT*%
X62260000Y-152905000D02*
X79380000Y-152905000D01*
X62260000Y-116000000D02*
X62260000Y-152905000D01*
X68110000Y-116000000D02*
X62260000Y-116000000D01*
%TO.N,Net-(U2-Pad24)*%
X75000000Y-164730000D02*
X79375000Y-164730000D01*
X79375000Y-164730000D02*
X79380000Y-164725000D01*
X79380000Y-164725000D02*
X79380000Y-163065000D01*
%TD*%
%TA.AperFunction,Conductor*%
%TO.N,GND*%
G36*
X172942121Y-98020002D02*
G01*
X172988614Y-98073658D01*
X173000000Y-98126000D01*
X173000000Y-175874000D01*
X172979998Y-175942121D01*
X172926342Y-175988614D01*
X172874000Y-176000000D01*
X50126000Y-176000000D01*
X50057879Y-175979998D01*
X50011386Y-175926342D01*
X50000000Y-175874000D01*
X50000000Y-164730000D01*
X73736693Y-164730000D01*
X73755885Y-164949371D01*
X73812880Y-165162076D01*
X73830682Y-165200253D01*
X73903618Y-165356666D01*
X73903621Y-165356671D01*
X73905944Y-165361653D01*
X73909100Y-165366160D01*
X73909101Y-165366162D01*
X74019777Y-165524223D01*
X74032251Y-165542038D01*
X74187962Y-165697749D01*
X74192471Y-165700906D01*
X74192473Y-165700908D01*
X74253064Y-165743334D01*
X74368346Y-165824056D01*
X74567924Y-165917120D01*
X74780629Y-165974115D01*
X75000000Y-165993307D01*
X75219371Y-165974115D01*
X75432076Y-165917120D01*
X75631654Y-165824056D01*
X75792704Y-165711287D01*
X75864975Y-165688500D01*
X79359451Y-165688500D01*
X79362969Y-165688549D01*
X79439179Y-165690678D01*
X79439182Y-165690678D01*
X79445561Y-165690856D01*
X79459200Y-165688451D01*
X79502287Y-165680854D01*
X79511432Y-165679585D01*
X79523220Y-165678387D01*
X79568727Y-165673765D01*
X79594717Y-165665620D01*
X79610512Y-165661770D01*
X79631040Y-165658151D01*
X79631044Y-165658150D01*
X79637327Y-165657042D01*
X79643262Y-165654692D01*
X79643266Y-165654691D01*
X79690875Y-165635841D01*
X79699562Y-165632764D01*
X79754541Y-165615535D01*
X79778364Y-165602330D01*
X79793066Y-165595380D01*
X79812437Y-165587711D01*
X79812442Y-165587709D01*
X79818376Y-165585359D01*
X79866566Y-165553824D01*
X79874470Y-165549056D01*
X79880101Y-165545935D01*
X79924850Y-165521130D01*
X79943428Y-165505207D01*
X79959023Y-165493793D01*
X79967840Y-165488326D01*
X79970245Y-165486052D01*
X79971523Y-165485144D01*
X79977262Y-165481388D01*
X79977264Y-165481387D01*
X79981314Y-165478736D01*
X79986071Y-165474453D01*
X80023206Y-165437318D01*
X80030304Y-165430745D01*
X80072698Y-165394409D01*
X80076609Y-165389367D01*
X80076612Y-165389364D01*
X80082018Y-165382395D01*
X80094997Y-165368080D01*
X80109322Y-165354534D01*
X80142376Y-165307328D01*
X80147916Y-165300002D01*
X80184328Y-165255357D01*
X80196941Y-165231230D01*
X80205391Y-165217332D01*
X80217350Y-165200253D01*
X80221011Y-165195025D01*
X80233112Y-165167061D01*
X80243883Y-165142172D01*
X80247858Y-165133838D01*
X80271589Y-165088444D01*
X80274544Y-165082792D01*
X80282052Y-165056606D01*
X80287528Y-165041312D01*
X80298345Y-165016316D01*
X80310124Y-164959935D01*
X80312341Y-164950975D01*
X80312801Y-164949371D01*
X80328216Y-164895611D01*
X80330305Y-164868456D01*
X80332595Y-164852367D01*
X80338165Y-164825707D01*
X80338500Y-164819315D01*
X80338500Y-164766803D01*
X80338871Y-164757136D01*
X80342666Y-164707821D01*
X80342666Y-164707817D01*
X80343155Y-164701461D01*
X80339494Y-164672480D01*
X80338500Y-164656689D01*
X80338500Y-164080126D01*
X80358502Y-164012005D01*
X80375555Y-163990881D01*
X80418096Y-163948489D01*
X80421112Y-163944291D01*
X80421116Y-163944287D01*
X80545435Y-163771277D01*
X80548453Y-163767077D01*
X80552400Y-163759092D01*
X80645136Y-163571453D01*
X80645137Y-163571451D01*
X80647430Y-163566811D01*
X80688564Y-163431425D01*
X80710865Y-163358023D01*
X80710865Y-163358021D01*
X80712370Y-163353069D01*
X80741529Y-163131590D01*
X80743156Y-163065000D01*
X80724852Y-162842361D01*
X80670431Y-162625702D01*
X80581354Y-162420840D01*
X80529502Y-162340689D01*
X80462822Y-162237617D01*
X80462820Y-162237614D01*
X80460014Y-162233277D01*
X80309670Y-162068051D01*
X80305619Y-162064852D01*
X80305615Y-162064848D01*
X80138414Y-161932800D01*
X80138410Y-161932798D01*
X80134359Y-161929598D01*
X80092569Y-161906529D01*
X80042598Y-161856097D01*
X80027826Y-161786654D01*
X80052942Y-161720248D01*
X80080293Y-161693642D01*
X80129247Y-161658723D01*
X80137648Y-161648023D01*
X80130660Y-161634870D01*
X79392812Y-160897022D01*
X79378868Y-160889408D01*
X79377035Y-160889539D01*
X79370420Y-160893790D01*
X78626737Y-161637473D01*
X78619977Y-161649853D01*
X78625258Y-161656907D01*
X78671969Y-161684203D01*
X78720693Y-161735841D01*
X78733764Y-161805624D01*
X78707033Y-161871396D01*
X78666584Y-161904752D01*
X78653607Y-161911507D01*
X78649474Y-161914610D01*
X78649471Y-161914612D01*
X78486656Y-162036857D01*
X78474965Y-162045635D01*
X78320629Y-162207138D01*
X78194743Y-162391680D01*
X78175748Y-162432601D01*
X78106784Y-162581173D01*
X78100688Y-162594305D01*
X78040989Y-162809570D01*
X78017251Y-163031695D01*
X78017548Y-163036848D01*
X78017548Y-163036851D01*
X78029812Y-163249547D01*
X78030110Y-163254715D01*
X78031247Y-163259761D01*
X78031248Y-163259767D01*
X78049590Y-163341153D01*
X78079222Y-163472639D01*
X78107166Y-163541457D01*
X78130164Y-163598096D01*
X78137260Y-163668738D01*
X78105038Y-163732001D01*
X78043728Y-163767801D01*
X78013421Y-163771500D01*
X75864975Y-163771500D01*
X75792704Y-163748713D01*
X75701600Y-163684921D01*
X75631654Y-163635944D01*
X75432076Y-163542880D01*
X75219371Y-163485885D01*
X75000000Y-163466693D01*
X74780629Y-163485885D01*
X74567924Y-163542880D01*
X74527228Y-163561857D01*
X74373334Y-163633618D01*
X74373329Y-163633621D01*
X74368347Y-163635944D01*
X74363840Y-163639100D01*
X74363838Y-163639101D01*
X74192473Y-163759092D01*
X74192470Y-163759094D01*
X74187962Y-163762251D01*
X74032251Y-163917962D01*
X74029094Y-163922470D01*
X74029092Y-163922473D01*
X73918702Y-164080126D01*
X73905944Y-164098347D01*
X73903621Y-164103329D01*
X73903618Y-164103334D01*
X73856415Y-164204562D01*
X73812880Y-164297924D01*
X73755885Y-164510629D01*
X73736693Y-164730000D01*
X50000000Y-164730000D01*
X50000000Y-161050161D01*
X74314393Y-161050161D01*
X74323687Y-161062175D01*
X74364088Y-161090464D01*
X74373584Y-161095947D01*
X74563113Y-161184326D01*
X74573405Y-161188072D01*
X74775401Y-161242196D01*
X74786196Y-161244099D01*
X74994525Y-161262326D01*
X75005475Y-161262326D01*
X75213804Y-161244099D01*
X75224599Y-161242196D01*
X75426595Y-161188072D01*
X75436887Y-161184326D01*
X75626416Y-161095947D01*
X75635912Y-161090464D01*
X75677148Y-161061590D01*
X75685523Y-161051112D01*
X75678457Y-161037668D01*
X75012811Y-160372021D01*
X74998868Y-160364408D01*
X74997034Y-160364539D01*
X74990420Y-160368790D01*
X74320820Y-161038391D01*
X74314393Y-161050161D01*
X50000000Y-161050161D01*
X50000000Y-160005475D01*
X73737674Y-160005475D01*
X73755901Y-160213804D01*
X73757804Y-160224599D01*
X73811928Y-160426595D01*
X73815674Y-160436887D01*
X73904054Y-160626417D01*
X73909534Y-160635907D01*
X73938411Y-160677149D01*
X73948887Y-160685523D01*
X73962334Y-160678455D01*
X74627979Y-160012811D01*
X74634356Y-160001132D01*
X75364408Y-160001132D01*
X75364539Y-160002966D01*
X75368790Y-160009580D01*
X76038391Y-160679180D01*
X76050161Y-160685607D01*
X76062176Y-160676311D01*
X76090466Y-160635907D01*
X76095946Y-160626417D01*
X76156359Y-160496863D01*
X78018050Y-160496863D01*
X78030309Y-160709477D01*
X78031745Y-160719697D01*
X78078565Y-160927446D01*
X78081645Y-160937275D01*
X78161770Y-161134603D01*
X78166413Y-161143794D01*
X78246460Y-161274420D01*
X78256916Y-161283880D01*
X78265694Y-161280096D01*
X79007978Y-160537812D01*
X79014356Y-160526132D01*
X79744408Y-160526132D01*
X79744539Y-160527965D01*
X79748790Y-160534580D01*
X80490474Y-161276264D01*
X80502484Y-161282823D01*
X80514223Y-161273855D01*
X80545004Y-161231019D01*
X80550315Y-161222180D01*
X80644670Y-161031267D01*
X80648469Y-161021672D01*
X80710376Y-160817915D01*
X80712555Y-160807834D01*
X80740590Y-160594887D01*
X80741109Y-160588212D01*
X80742572Y-160528364D01*
X80742378Y-160521646D01*
X80724781Y-160307604D01*
X80723096Y-160297424D01*
X80671214Y-160090875D01*
X80667894Y-160081124D01*
X80582972Y-159885814D01*
X80578105Y-159876739D01*
X80513063Y-159776197D01*
X80502377Y-159766995D01*
X80492812Y-159771398D01*
X79752022Y-160512188D01*
X79744408Y-160526132D01*
X79014356Y-160526132D01*
X79015592Y-160523868D01*
X79015461Y-160522035D01*
X79011210Y-160515420D01*
X78269849Y-159774059D01*
X78258313Y-159767759D01*
X78246031Y-159777382D01*
X78198089Y-159847662D01*
X78193004Y-159856613D01*
X78103338Y-160049783D01*
X78099775Y-160059470D01*
X78042864Y-160264681D01*
X78040933Y-160274800D01*
X78018302Y-160486574D01*
X78018050Y-160496863D01*
X76156359Y-160496863D01*
X76184326Y-160436887D01*
X76188072Y-160426595D01*
X76242196Y-160224599D01*
X76244099Y-160213804D01*
X76262326Y-160005475D01*
X76262326Y-159994525D01*
X76244099Y-159786196D01*
X76242196Y-159775401D01*
X76188072Y-159573405D01*
X76184326Y-159563113D01*
X76095946Y-159373583D01*
X76090466Y-159364093D01*
X76061589Y-159322851D01*
X76051113Y-159314477D01*
X76037666Y-159321545D01*
X75372021Y-159987189D01*
X75364408Y-160001132D01*
X74634356Y-160001132D01*
X74635592Y-159998868D01*
X74635461Y-159997034D01*
X74631210Y-159990420D01*
X73961609Y-159320820D01*
X73949839Y-159314393D01*
X73937824Y-159323689D01*
X73909534Y-159364093D01*
X73904054Y-159373583D01*
X73815674Y-159563113D01*
X73811928Y-159573405D01*
X73757804Y-159775401D01*
X73755901Y-159786196D01*
X73737674Y-159994525D01*
X73737674Y-160005475D01*
X50000000Y-160005475D01*
X50000000Y-158948887D01*
X74314477Y-158948887D01*
X74321545Y-158962334D01*
X74987189Y-159627979D01*
X75001132Y-159635592D01*
X75002966Y-159635461D01*
X75009580Y-159631210D01*
X75679180Y-158961609D01*
X75685607Y-158949839D01*
X75676313Y-158937825D01*
X75635912Y-158909536D01*
X75626416Y-158904053D01*
X75436887Y-158815674D01*
X75426595Y-158811928D01*
X75224599Y-158757804D01*
X75213804Y-158755901D01*
X75005475Y-158737674D01*
X74994525Y-158737674D01*
X74786196Y-158755901D01*
X74775401Y-158757804D01*
X74573405Y-158811928D01*
X74563113Y-158815674D01*
X74373583Y-158904054D01*
X74364093Y-158909534D01*
X74322851Y-158938411D01*
X74314477Y-158948887D01*
X50000000Y-158948887D01*
X50000000Y-155492064D01*
X59997707Y-155492064D01*
X59998662Y-155498377D01*
X59998662Y-155498382D01*
X60008303Y-155562124D01*
X60009074Y-155568226D01*
X60016235Y-155638727D01*
X60018143Y-155644817D01*
X60018145Y-155644825D01*
X60020396Y-155652008D01*
X60024742Y-155670833D01*
X60025869Y-155678280D01*
X60026825Y-155684599D01*
X60051300Y-155751121D01*
X60053272Y-155756915D01*
X60074465Y-155824541D01*
X60081213Y-155836714D01*
X60089260Y-155854292D01*
X60090358Y-155857275D01*
X60094063Y-155867346D01*
X60097425Y-155872768D01*
X60131404Y-155927570D01*
X60134516Y-155932874D01*
X60168870Y-155994850D01*
X60173021Y-155999693D01*
X60177922Y-156005411D01*
X60189341Y-156021013D01*
X60196674Y-156032840D01*
X60245381Y-156084346D01*
X60249481Y-156088900D01*
X60295591Y-156142698D01*
X60300637Y-156146612D01*
X60300641Y-156146616D01*
X60306585Y-156151227D01*
X60320897Y-156164204D01*
X60330466Y-156174322D01*
X60335691Y-156177980D01*
X60335695Y-156177984D01*
X60388524Y-156214974D01*
X60393481Y-156218629D01*
X60449453Y-156262046D01*
X60461938Y-156268189D01*
X60478569Y-156278024D01*
X60489975Y-156286011D01*
X60495833Y-156288546D01*
X60555008Y-156314153D01*
X60560596Y-156316735D01*
X60624171Y-156348018D01*
X60637640Y-156351527D01*
X60655910Y-156357817D01*
X60668684Y-156363345D01*
X60674934Y-156364651D01*
X60674935Y-156364651D01*
X60738027Y-156377832D01*
X60744020Y-156379237D01*
X60806436Y-156395495D01*
X60806440Y-156395496D01*
X60812607Y-156397102D01*
X60826500Y-156397830D01*
X60845674Y-156400320D01*
X60854558Y-156402176D01*
X60854560Y-156402176D01*
X60859293Y-156403165D01*
X60865685Y-156403500D01*
X60931396Y-156403500D01*
X60937990Y-156403673D01*
X61000683Y-156406959D01*
X61000687Y-156406959D01*
X61007064Y-156407293D01*
X61022774Y-156404917D01*
X61041616Y-156403500D01*
X78362168Y-156403500D01*
X78430289Y-156423502D01*
X78442653Y-156432556D01*
X78573734Y-156541381D01*
X78598126Y-156561632D01*
X78609063Y-156568023D01*
X78671445Y-156604476D01*
X78720169Y-156656114D01*
X78733240Y-156725897D01*
X78706509Y-156791669D01*
X78666055Y-156825027D01*
X78653607Y-156831507D01*
X78649474Y-156834610D01*
X78649471Y-156834612D01*
X78486656Y-156956857D01*
X78474965Y-156965635D01*
X78431250Y-157011380D01*
X78324710Y-157122868D01*
X78320629Y-157127138D01*
X78194743Y-157311680D01*
X78174766Y-157354717D01*
X78106784Y-157501173D01*
X78100688Y-157514305D01*
X78040989Y-157729570D01*
X78017251Y-157951695D01*
X78017548Y-157956848D01*
X78017548Y-157956851D01*
X78023201Y-158054887D01*
X78030110Y-158174715D01*
X78031247Y-158179761D01*
X78031248Y-158179767D01*
X78051119Y-158267939D01*
X78079222Y-158392639D01*
X78134716Y-158529305D01*
X78160366Y-158592473D01*
X78163266Y-158599616D01*
X78194856Y-158651167D01*
X78275351Y-158782522D01*
X78279987Y-158790088D01*
X78426250Y-158958938D01*
X78598126Y-159101632D01*
X78627374Y-159118723D01*
X78671955Y-159144774D01*
X78720679Y-159196412D01*
X78733750Y-159266195D01*
X78707019Y-159331967D01*
X78666562Y-159365327D01*
X78658460Y-159369544D01*
X78649734Y-159375039D01*
X78629677Y-159390099D01*
X78621223Y-159401427D01*
X78627968Y-159413758D01*
X79367188Y-160152978D01*
X79381132Y-160160592D01*
X79382965Y-160160461D01*
X79389580Y-160156210D01*
X80133389Y-159412401D01*
X80140410Y-159399544D01*
X80133611Y-159390213D01*
X80129559Y-159387521D01*
X80092602Y-159367120D01*
X80042631Y-159316687D01*
X80027859Y-159247245D01*
X80052975Y-159180839D01*
X80080327Y-159154232D01*
X80130109Y-159118723D01*
X80142544Y-159109853D01*
X93859977Y-159109853D01*
X93865258Y-159116907D01*
X94026756Y-159211279D01*
X94036042Y-159215729D01*
X94235001Y-159291703D01*
X94244899Y-159294579D01*
X94453595Y-159337038D01*
X94463823Y-159338257D01*
X94676650Y-159346062D01*
X94686936Y-159345595D01*
X94898185Y-159318534D01*
X94908262Y-159316392D01*
X95112255Y-159255191D01*
X95121842Y-159251433D01*
X95313098Y-159157738D01*
X95321944Y-159152465D01*
X95369247Y-159118723D01*
X95377648Y-159108023D01*
X95370660Y-159094870D01*
X94632812Y-158357022D01*
X94618868Y-158349408D01*
X94617035Y-158349539D01*
X94610420Y-158353790D01*
X93866737Y-159097473D01*
X93859977Y-159109853D01*
X80142544Y-159109853D01*
X80259860Y-159026173D01*
X80289491Y-158996646D01*
X80382406Y-158904054D01*
X80418096Y-158868489D01*
X80443577Y-158833029D01*
X80545435Y-158691277D01*
X80548453Y-158687077D01*
X80550874Y-158682180D01*
X80645136Y-158491453D01*
X80645137Y-158491451D01*
X80647430Y-158486811D01*
X80712370Y-158273069D01*
X80741529Y-158051590D01*
X80741776Y-158041500D01*
X80743074Y-157988365D01*
X80743074Y-157988361D01*
X80743156Y-157985000D01*
X80740843Y-157956863D01*
X93258050Y-157956863D01*
X93270309Y-158169477D01*
X93271745Y-158179697D01*
X93318565Y-158387446D01*
X93321645Y-158397275D01*
X93401770Y-158594603D01*
X93406413Y-158603794D01*
X93486460Y-158734420D01*
X93496916Y-158743880D01*
X93505694Y-158740096D01*
X94247978Y-157997812D01*
X94254356Y-157986132D01*
X94984408Y-157986132D01*
X94984539Y-157987965D01*
X94988790Y-157994580D01*
X95730474Y-158736264D01*
X95742484Y-158742823D01*
X95754223Y-158733855D01*
X95785004Y-158691019D01*
X95790315Y-158682180D01*
X95884670Y-158491267D01*
X95888469Y-158481672D01*
X95950376Y-158277915D01*
X95952555Y-158267834D01*
X95980590Y-158054887D01*
X95981109Y-158048212D01*
X95982572Y-157988364D01*
X95982378Y-157981646D01*
X95964781Y-157767604D01*
X95963096Y-157757424D01*
X95911214Y-157550875D01*
X95907894Y-157541124D01*
X95822972Y-157345814D01*
X95818105Y-157336739D01*
X95753063Y-157236197D01*
X95742377Y-157226995D01*
X95732812Y-157231398D01*
X94992022Y-157972188D01*
X94984408Y-157986132D01*
X94254356Y-157986132D01*
X94255592Y-157983868D01*
X94255461Y-157982035D01*
X94251210Y-157975420D01*
X93509849Y-157234059D01*
X93498313Y-157227759D01*
X93486031Y-157237382D01*
X93438089Y-157307662D01*
X93433004Y-157316613D01*
X93343338Y-157509783D01*
X93339775Y-157519470D01*
X93282864Y-157724681D01*
X93280933Y-157734800D01*
X93258302Y-157946574D01*
X93258050Y-157956863D01*
X80740843Y-157956863D01*
X80724852Y-157762361D01*
X80670431Y-157545702D01*
X80581354Y-157340840D01*
X80460014Y-157153277D01*
X80309670Y-156988051D01*
X80305619Y-156984852D01*
X80305615Y-156984848D01*
X80138414Y-156852800D01*
X80138410Y-156852798D01*
X80134359Y-156849598D01*
X80093053Y-156826796D01*
X80043084Y-156776364D01*
X80028312Y-156706921D01*
X80053428Y-156640516D01*
X80080780Y-156613909D01*
X80145110Y-156568023D01*
X80259860Y-156486173D01*
X80263515Y-156482531D01*
X80263523Y-156482524D01*
X80305946Y-156440249D01*
X80368317Y-156406333D01*
X80394885Y-156403500D01*
X85495025Y-156403500D01*
X85567296Y-156426287D01*
X85728346Y-156539056D01*
X85927924Y-156632120D01*
X86140629Y-156689115D01*
X86360000Y-156708307D01*
X86579371Y-156689115D01*
X86792076Y-156632120D01*
X86925609Y-156569853D01*
X93859977Y-156569853D01*
X93865258Y-156576907D01*
X93912479Y-156604501D01*
X93961203Y-156656139D01*
X93974274Y-156725922D01*
X93947543Y-156791694D01*
X93907087Y-156825053D01*
X93898466Y-156829541D01*
X93889734Y-156835039D01*
X93869677Y-156850099D01*
X93861223Y-156861427D01*
X93867968Y-156873758D01*
X94607188Y-157612978D01*
X94621132Y-157620592D01*
X94622965Y-157620461D01*
X94629580Y-157616210D01*
X95373389Y-156872401D01*
X95380410Y-156859544D01*
X95373611Y-156850213D01*
X95369559Y-156847521D01*
X95332116Y-156826852D01*
X95282145Y-156776420D01*
X95267373Y-156706977D01*
X95292489Y-156640572D01*
X95319840Y-156613965D01*
X95369247Y-156578723D01*
X95377648Y-156568023D01*
X95370660Y-156554870D01*
X94632812Y-155817022D01*
X94618868Y-155809408D01*
X94617035Y-155809539D01*
X94610420Y-155813790D01*
X93866737Y-156557473D01*
X93859977Y-156569853D01*
X86925609Y-156569853D01*
X86991654Y-156539056D01*
X87144758Y-156431851D01*
X87167527Y-156415908D01*
X87167529Y-156415906D01*
X87172038Y-156412749D01*
X87327749Y-156257038D01*
X87337914Y-156242522D01*
X87450899Y-156081162D01*
X87450900Y-156081160D01*
X87454056Y-156076653D01*
X87456379Y-156071671D01*
X87456382Y-156071666D01*
X87521098Y-155932881D01*
X87547120Y-155877076D01*
X87604115Y-155664371D01*
X87623307Y-155445000D01*
X87620845Y-155416863D01*
X93258050Y-155416863D01*
X93270309Y-155629477D01*
X93271745Y-155639697D01*
X93318565Y-155847446D01*
X93321645Y-155857275D01*
X93401770Y-156054603D01*
X93406413Y-156063794D01*
X93486460Y-156194420D01*
X93496916Y-156203880D01*
X93505694Y-156200096D01*
X94247978Y-155457812D01*
X94254356Y-155446132D01*
X94984408Y-155446132D01*
X94984539Y-155447965D01*
X94988790Y-155454580D01*
X95730474Y-156196264D01*
X95742484Y-156202823D01*
X95754223Y-156193855D01*
X95785004Y-156151019D01*
X95790315Y-156142180D01*
X95884670Y-155951267D01*
X95888469Y-155941672D01*
X95950376Y-155737915D01*
X95952555Y-155727834D01*
X95980590Y-155514887D01*
X95981109Y-155508212D01*
X95982572Y-155448364D01*
X95982378Y-155441646D01*
X95964781Y-155227604D01*
X95963096Y-155217424D01*
X95911214Y-155010875D01*
X95907894Y-155001124D01*
X95822972Y-154805814D01*
X95818105Y-154796739D01*
X95753063Y-154696197D01*
X95742377Y-154686995D01*
X95732812Y-154691398D01*
X94992022Y-155432188D01*
X94984408Y-155446132D01*
X94254356Y-155446132D01*
X94255592Y-155443868D01*
X94255461Y-155442035D01*
X94251210Y-155435420D01*
X93509849Y-154694059D01*
X93498313Y-154687759D01*
X93486031Y-154697382D01*
X93438089Y-154767662D01*
X93433004Y-154776613D01*
X93343338Y-154969783D01*
X93339775Y-154979470D01*
X93282864Y-155184681D01*
X93280933Y-155194800D01*
X93258302Y-155406574D01*
X93258050Y-155416863D01*
X87620845Y-155416863D01*
X87604115Y-155225629D01*
X87547120Y-155012924D01*
X87503585Y-154919562D01*
X87456382Y-154818334D01*
X87456379Y-154818329D01*
X87454056Y-154813347D01*
X87450899Y-154808838D01*
X87330908Y-154637473D01*
X87330906Y-154637470D01*
X87327749Y-154632962D01*
X87172038Y-154477251D01*
X87156682Y-154466498D01*
X87073758Y-154408434D01*
X86991654Y-154350944D01*
X86928354Y-154321427D01*
X93861223Y-154321427D01*
X93867968Y-154333758D01*
X94607188Y-155072978D01*
X94621132Y-155080592D01*
X94622965Y-155080461D01*
X94629580Y-155076210D01*
X95373389Y-154332401D01*
X95380410Y-154319544D01*
X95373611Y-154310213D01*
X95369554Y-154307518D01*
X95183117Y-154204599D01*
X95173705Y-154200369D01*
X94972959Y-154129280D01*
X94962989Y-154126646D01*
X94753327Y-154089301D01*
X94743073Y-154088331D01*
X94530116Y-154085728D01*
X94519832Y-154086448D01*
X94309321Y-154118661D01*
X94299293Y-154121050D01*
X94096868Y-154187212D01*
X94087359Y-154191209D01*
X93898466Y-154289540D01*
X93889734Y-154295039D01*
X93869677Y-154310099D01*
X93861223Y-154321427D01*
X86928354Y-154321427D01*
X86792076Y-154257880D01*
X86579371Y-154200885D01*
X86360000Y-154181693D01*
X86140629Y-154200885D01*
X85927924Y-154257880D01*
X85854498Y-154292119D01*
X85733334Y-154348618D01*
X85733329Y-154348621D01*
X85728347Y-154350944D01*
X85723840Y-154354100D01*
X85723838Y-154354101D01*
X85567296Y-154463713D01*
X85495025Y-154486500D01*
X80399913Y-154486500D01*
X80331792Y-154466498D01*
X80313981Y-154452651D01*
X80313154Y-154451880D01*
X80309670Y-154448051D01*
X80259590Y-154408500D01*
X80138414Y-154312800D01*
X80138410Y-154312798D01*
X80134359Y-154309598D01*
X80093053Y-154286796D01*
X80043084Y-154236364D01*
X80028312Y-154166921D01*
X80053428Y-154100516D01*
X80080780Y-154073909D01*
X80124603Y-154042650D01*
X80259860Y-153946173D01*
X80418096Y-153788489D01*
X80548453Y-153607077D01*
X80567078Y-153569393D01*
X80645136Y-153411453D01*
X80645137Y-153411451D01*
X80647430Y-153406811D01*
X80712370Y-153193069D01*
X80741529Y-152971590D01*
X80743156Y-152905000D01*
X80724852Y-152682361D01*
X80670431Y-152465702D01*
X80581354Y-152260840D01*
X80460014Y-152073277D01*
X80309670Y-151908051D01*
X80305619Y-151904852D01*
X80305615Y-151904848D01*
X80138414Y-151772800D01*
X80138410Y-151772798D01*
X80134359Y-151769598D01*
X80093053Y-151746796D01*
X80043084Y-151696364D01*
X80028312Y-151626921D01*
X80053428Y-151560516D01*
X80080780Y-151533909D01*
X80124603Y-151502650D01*
X80259860Y-151406173D01*
X80418096Y-151248489D01*
X80459844Y-151190391D01*
X80545435Y-151071277D01*
X80548453Y-151067077D01*
X80565286Y-151033019D01*
X80645136Y-150871453D01*
X80645137Y-150871451D01*
X80647430Y-150866811D01*
X80712370Y-150653069D01*
X80741529Y-150431590D01*
X80743156Y-150365000D01*
X80724852Y-150142361D01*
X80670431Y-149925702D01*
X80581354Y-149720840D01*
X80460014Y-149533277D01*
X80309670Y-149368051D01*
X80305619Y-149364852D01*
X80305615Y-149364848D01*
X80138414Y-149232800D01*
X80138410Y-149232798D01*
X80134359Y-149229598D01*
X80093053Y-149206796D01*
X80043084Y-149156364D01*
X80028312Y-149086921D01*
X80053428Y-149020516D01*
X80080780Y-148993909D01*
X80124603Y-148962650D01*
X80259860Y-148866173D01*
X80320771Y-148805475D01*
X80371297Y-148755125D01*
X80418096Y-148708489D01*
X80477594Y-148625689D01*
X80545435Y-148531277D01*
X80548453Y-148527077D01*
X80568620Y-148486273D01*
X80645136Y-148331453D01*
X80645137Y-148331451D01*
X80647430Y-148326811D01*
X80686739Y-148197430D01*
X80710865Y-148118023D01*
X80710865Y-148118021D01*
X80712370Y-148113069D01*
X80741529Y-147891590D01*
X80742229Y-147862954D01*
X80743074Y-147828365D01*
X80743074Y-147828361D01*
X80743156Y-147825000D01*
X80724852Y-147602361D01*
X80670431Y-147385702D01*
X80581354Y-147180840D01*
X80460014Y-146993277D01*
X80309670Y-146828051D01*
X80305619Y-146824852D01*
X80305615Y-146824848D01*
X80138414Y-146692800D01*
X80138410Y-146692798D01*
X80134359Y-146689598D01*
X80093053Y-146666796D01*
X80043084Y-146616364D01*
X80028312Y-146546921D01*
X80053428Y-146480516D01*
X80080780Y-146453909D01*
X80142178Y-146410114D01*
X80259860Y-146326173D01*
X80290641Y-146295500D01*
X80392527Y-146193969D01*
X80418096Y-146168489D01*
X80548453Y-145987077D01*
X80561697Y-145960281D01*
X80645136Y-145791453D01*
X80645137Y-145791451D01*
X80647430Y-145786811D01*
X80712370Y-145573069D01*
X80741529Y-145351590D01*
X80743156Y-145285000D01*
X80724852Y-145062361D01*
X80670431Y-144845702D01*
X80581354Y-144640840D01*
X80541906Y-144579862D01*
X80462822Y-144457617D01*
X80462820Y-144457614D01*
X80460014Y-144453277D01*
X80309670Y-144288051D01*
X80305619Y-144284852D01*
X80305615Y-144284848D01*
X80138414Y-144152800D01*
X80138410Y-144152798D01*
X80134359Y-144149598D01*
X80093053Y-144126796D01*
X80043084Y-144076364D01*
X80028312Y-144006921D01*
X80053428Y-143940516D01*
X80080780Y-143913909D01*
X80124603Y-143882650D01*
X80259860Y-143786173D01*
X80263517Y-143782529D01*
X80263523Y-143782524D01*
X80305946Y-143740249D01*
X80368317Y-143706333D01*
X80394885Y-143703500D01*
X85012269Y-143703500D01*
X85080390Y-143723502D01*
X85126883Y-143777158D01*
X85133975Y-143796888D01*
X85171453Y-143936754D01*
X85171457Y-143936764D01*
X85172880Y-143942076D01*
X85203118Y-144006921D01*
X85263618Y-144136666D01*
X85263621Y-144136671D01*
X85265944Y-144141653D01*
X85269100Y-144146160D01*
X85269101Y-144146162D01*
X85381370Y-144306498D01*
X85392251Y-144322038D01*
X85547962Y-144477749D01*
X85728346Y-144604056D01*
X85927924Y-144697120D01*
X86140629Y-144754115D01*
X86360000Y-144773307D01*
X86579371Y-144754115D01*
X86792076Y-144697120D01*
X86991654Y-144604056D01*
X87172038Y-144477749D01*
X87327749Y-144322038D01*
X87338631Y-144306498D01*
X87450899Y-144146162D01*
X87450900Y-144146160D01*
X87454056Y-144141653D01*
X87456379Y-144136671D01*
X87456382Y-144136666D01*
X87516882Y-144006921D01*
X87547120Y-143942076D01*
X87604115Y-143729371D01*
X87623307Y-143510000D01*
X87604115Y-143290629D01*
X87547120Y-143077924D01*
X87461844Y-142895048D01*
X87456382Y-142883334D01*
X87456379Y-142883329D01*
X87454056Y-142878347D01*
X87417834Y-142826616D01*
X87330908Y-142702473D01*
X87330906Y-142702470D01*
X87327749Y-142697962D01*
X87323853Y-142694066D01*
X87320325Y-142689862D01*
X87321533Y-142688848D01*
X87289688Y-142627673D01*
X87288153Y-142618966D01*
X87288152Y-142618962D01*
X87287043Y-142612673D01*
X87265841Y-142559124D01*
X87262760Y-142550422D01*
X87247446Y-142501554D01*
X87247442Y-142501545D01*
X87245535Y-142495459D01*
X87232333Y-142471642D01*
X87225383Y-142456940D01*
X87217709Y-142437557D01*
X87215360Y-142431624D01*
X87211864Y-142426281D01*
X87211861Y-142426276D01*
X87183819Y-142383424D01*
X87179048Y-142375515D01*
X87154225Y-142330733D01*
X87154224Y-142330731D01*
X87151130Y-142325150D01*
X87133409Y-142304474D01*
X87123646Y-142291471D01*
X87108736Y-142268686D01*
X87104453Y-142263929D01*
X87067318Y-142226794D01*
X87060745Y-142219696D01*
X87033751Y-142188202D01*
X87024409Y-142177302D01*
X87001321Y-142159393D01*
X86989453Y-142148929D01*
X86918776Y-142078252D01*
X86916322Y-142075729D01*
X86886386Y-142044072D01*
X86854114Y-141980834D01*
X86861155Y-141910187D01*
X86905273Y-141854562D01*
X86977935Y-141831500D01*
X90692300Y-141831500D01*
X90760421Y-141851502D01*
X90806914Y-141905158D01*
X90817018Y-141975432D01*
X90787524Y-142040012D01*
X90774297Y-142053168D01*
X90742302Y-142080591D01*
X90738388Y-142085637D01*
X90738384Y-142085641D01*
X90733773Y-142091585D01*
X90720796Y-142105897D01*
X90710678Y-142115466D01*
X90707020Y-142120691D01*
X90707016Y-142120695D01*
X90670026Y-142173524D01*
X90666371Y-142178481D01*
X90622954Y-142234453D01*
X90616811Y-142246938D01*
X90606976Y-142263569D01*
X90598989Y-142274975D01*
X90577277Y-142325150D01*
X90570847Y-142340008D01*
X90568265Y-142345596D01*
X90536982Y-142409171D01*
X90533473Y-142422640D01*
X90527183Y-142440910D01*
X90521655Y-142453684D01*
X90520349Y-142459934D01*
X90520349Y-142459935D01*
X90507168Y-142523027D01*
X90505763Y-142529020D01*
X90487898Y-142597607D01*
X90487564Y-142603979D01*
X90487170Y-142611498D01*
X90484680Y-142630674D01*
X90481835Y-142644293D01*
X90481500Y-142650685D01*
X90481500Y-142716396D01*
X90481327Y-142722990D01*
X90480174Y-142745000D01*
X90477707Y-142792064D01*
X90478663Y-142798383D01*
X90480083Y-142807775D01*
X90481500Y-142826616D01*
X90481500Y-149844451D01*
X90481451Y-149847969D01*
X90479144Y-149930561D01*
X90480253Y-149936850D01*
X90489146Y-149987287D01*
X90490415Y-149996432D01*
X90496235Y-150053727D01*
X90504380Y-150079717D01*
X90508230Y-150095512D01*
X90512958Y-150122327D01*
X90515308Y-150128262D01*
X90515309Y-150128266D01*
X90534159Y-150175875D01*
X90537236Y-150184562D01*
X90554465Y-150239541D01*
X90566479Y-150261215D01*
X90567670Y-150263363D01*
X90574620Y-150278066D01*
X90582289Y-150297437D01*
X90582291Y-150297442D01*
X90584641Y-150303376D01*
X90588140Y-150308723D01*
X90616174Y-150351563D01*
X90620942Y-150359467D01*
X90648870Y-150409850D01*
X90653021Y-150414693D01*
X90666591Y-150430526D01*
X90676352Y-150443527D01*
X90686606Y-150459195D01*
X90691264Y-150466314D01*
X90695547Y-150471071D01*
X90732682Y-150508206D01*
X90739255Y-150515304D01*
X90775591Y-150557698D01*
X90780628Y-150561605D01*
X90780630Y-150561607D01*
X90798679Y-150575607D01*
X90810547Y-150586071D01*
X90871224Y-150646748D01*
X90873678Y-150649270D01*
X90930466Y-150709322D01*
X90935691Y-150712981D01*
X90935695Y-150712984D01*
X90977645Y-150742357D01*
X90985009Y-150747926D01*
X91029643Y-150784329D01*
X91053784Y-150796950D01*
X91067666Y-150805390D01*
X91089975Y-150821011D01*
X91095832Y-150823546D01*
X91095833Y-150823546D01*
X91142825Y-150843881D01*
X91151159Y-150847856D01*
X91202208Y-150874544D01*
X91228394Y-150882052D01*
X91243688Y-150887528D01*
X91268684Y-150898345D01*
X91274937Y-150899651D01*
X91274936Y-150899651D01*
X91325063Y-150910123D01*
X91334017Y-150912338D01*
X91389390Y-150928216D01*
X91416545Y-150930306D01*
X91432635Y-150932596D01*
X91459293Y-150938165D01*
X91465685Y-150938500D01*
X91518197Y-150938500D01*
X91527864Y-150938871D01*
X91577179Y-150942666D01*
X91577183Y-150942666D01*
X91583539Y-150943155D01*
X91612520Y-150939494D01*
X91628311Y-150938500D01*
X117660500Y-150938500D01*
X117728621Y-150958502D01*
X117775114Y-151012158D01*
X117786500Y-151064500D01*
X117786500Y-157971396D01*
X117786327Y-157977990D01*
X117785014Y-158003051D01*
X117782707Y-158047064D01*
X117783662Y-158053377D01*
X117783662Y-158053382D01*
X117793303Y-158117124D01*
X117794074Y-158123226D01*
X117801235Y-158193727D01*
X117803143Y-158199817D01*
X117803145Y-158199825D01*
X117805396Y-158207008D01*
X117809742Y-158225833D01*
X117810869Y-158233280D01*
X117811825Y-158239599D01*
X117836300Y-158306121D01*
X117838272Y-158311915D01*
X117859465Y-158379541D01*
X117866213Y-158391714D01*
X117874260Y-158409292D01*
X117879063Y-158422346D01*
X117904609Y-158463546D01*
X117916404Y-158482570D01*
X117919516Y-158487874D01*
X117953870Y-158549850D01*
X117958021Y-158554693D01*
X117962922Y-158560411D01*
X117974341Y-158576013D01*
X117981674Y-158587840D01*
X118030381Y-158639346D01*
X118034481Y-158643900D01*
X118080591Y-158697698D01*
X118085637Y-158701612D01*
X118085641Y-158701616D01*
X118091585Y-158706227D01*
X118105897Y-158719204D01*
X118115466Y-158729322D01*
X118120691Y-158732980D01*
X118120695Y-158732984D01*
X118173524Y-158769974D01*
X118178481Y-158773629D01*
X118234453Y-158817046D01*
X118246938Y-158823189D01*
X118263569Y-158833024D01*
X118274975Y-158841011D01*
X118338474Y-158868489D01*
X118340008Y-158869153D01*
X118345596Y-158871735D01*
X118409171Y-158903018D01*
X118422640Y-158906527D01*
X118440910Y-158912817D01*
X118453684Y-158918345D01*
X118459934Y-158919651D01*
X118459935Y-158919651D01*
X118523027Y-158932832D01*
X118529020Y-158934237D01*
X118591436Y-158950495D01*
X118591440Y-158950496D01*
X118597607Y-158952102D01*
X118611500Y-158952830D01*
X118630674Y-158955320D01*
X118639558Y-158957176D01*
X118639560Y-158957176D01*
X118644293Y-158958165D01*
X118650685Y-158958500D01*
X118716396Y-158958500D01*
X118722990Y-158958673D01*
X118785683Y-158961959D01*
X118785687Y-158961959D01*
X118792064Y-158962293D01*
X118807774Y-158959917D01*
X118826616Y-158958500D01*
X130653758Y-158958500D01*
X130722105Y-158978648D01*
X130737548Y-158988620D01*
X130835643Y-159028153D01*
X130928168Y-159065442D01*
X130928171Y-159065443D01*
X130933737Y-159067686D01*
X131141337Y-159108228D01*
X131146899Y-159108500D01*
X132802846Y-159108500D01*
X132960566Y-159093452D01*
X133163534Y-159033908D01*
X133168862Y-159031164D01*
X133346249Y-158939804D01*
X133346252Y-158939802D01*
X133351580Y-158937058D01*
X133517920Y-158806396D01*
X133521852Y-158801865D01*
X133521855Y-158801862D01*
X133652621Y-158651167D01*
X133656552Y-158646637D01*
X133659552Y-158641451D01*
X133659555Y-158641447D01*
X133759467Y-158468742D01*
X133762473Y-158463546D01*
X133831861Y-158263729D01*
X133844045Y-158179697D01*
X133861352Y-158060336D01*
X133861352Y-158060333D01*
X133862213Y-158054396D01*
X133852433Y-157843101D01*
X133815376Y-157689338D01*
X133804281Y-157643299D01*
X133804280Y-157643297D01*
X133802875Y-157637466D01*
X133798985Y-157628909D01*
X133717806Y-157450368D01*
X133715326Y-157444913D01*
X133592946Y-157272389D01*
X133440150Y-157126119D01*
X133262452Y-157011380D01*
X133158219Y-156969373D01*
X133071832Y-156934558D01*
X133071829Y-156934557D01*
X133066263Y-156932314D01*
X132858663Y-156891772D01*
X132853101Y-156891500D01*
X131197154Y-156891500D01*
X131039434Y-156906548D01*
X130836466Y-156966092D01*
X130831139Y-156968836D01*
X130831138Y-156968836D01*
X130800049Y-156984848D01*
X130728889Y-157021498D01*
X130717204Y-157027516D01*
X130659512Y-157041500D01*
X119829500Y-157041500D01*
X119761379Y-157021498D01*
X119714886Y-156967842D01*
X119703500Y-156915500D01*
X119703500Y-153000000D01*
X122766502Y-153000000D01*
X122786457Y-153228087D01*
X122787881Y-153233400D01*
X122787881Y-153233402D01*
X122820302Y-153354396D01*
X122845716Y-153449243D01*
X122848039Y-153454224D01*
X122848039Y-153454225D01*
X122940151Y-153651762D01*
X122940154Y-153651767D01*
X122942477Y-153656749D01*
X123015902Y-153761611D01*
X123069716Y-153838464D01*
X123073802Y-153844300D01*
X123235700Y-154006198D01*
X123240208Y-154009355D01*
X123240211Y-154009357D01*
X123253022Y-154018327D01*
X123423251Y-154137523D01*
X123428233Y-154139846D01*
X123428238Y-154139849D01*
X123625775Y-154231961D01*
X123630757Y-154234284D01*
X123636065Y-154235706D01*
X123636067Y-154235707D01*
X123846598Y-154292119D01*
X123846600Y-154292119D01*
X123851913Y-154293543D01*
X124080000Y-154313498D01*
X124308087Y-154293543D01*
X124313402Y-154292119D01*
X124422846Y-154262793D01*
X124455458Y-154258500D01*
X130653758Y-154258500D01*
X130722105Y-154278648D01*
X130737548Y-154288620D01*
X130797547Y-154312800D01*
X130928168Y-154365442D01*
X130928171Y-154365443D01*
X130933737Y-154367686D01*
X131141337Y-154408228D01*
X131146899Y-154408500D01*
X132802846Y-154408500D01*
X132960566Y-154393452D01*
X133163534Y-154333908D01*
X133168862Y-154331164D01*
X133346249Y-154239804D01*
X133346252Y-154239802D01*
X133351580Y-154237058D01*
X133517920Y-154106396D01*
X133521852Y-154101865D01*
X133521855Y-154101862D01*
X133652621Y-153951167D01*
X133656552Y-153946637D01*
X133659552Y-153941451D01*
X133659555Y-153941447D01*
X133759467Y-153768742D01*
X133762473Y-153763546D01*
X133831861Y-153563729D01*
X133832722Y-153557792D01*
X133861352Y-153360336D01*
X133861352Y-153360333D01*
X133862213Y-153354396D01*
X133852433Y-153143101D01*
X133802875Y-152937466D01*
X133715326Y-152744913D01*
X133592946Y-152572389D01*
X133440150Y-152426119D01*
X133262452Y-152311380D01*
X133202354Y-152287160D01*
X133071832Y-152234558D01*
X133071829Y-152234557D01*
X133066263Y-152232314D01*
X132858663Y-152191772D01*
X132853101Y-152191500D01*
X131197154Y-152191500D01*
X131039434Y-152206548D01*
X130836466Y-152266092D01*
X130728889Y-152321498D01*
X130717204Y-152327516D01*
X130659512Y-152341500D01*
X125281888Y-152341500D01*
X125213767Y-152321498D01*
X125178675Y-152287771D01*
X125163496Y-152266092D01*
X125086198Y-152155700D01*
X124924300Y-151993802D01*
X124919792Y-151990645D01*
X124919789Y-151990643D01*
X124801835Y-151908051D01*
X124736749Y-151862477D01*
X124731767Y-151860154D01*
X124731762Y-151860151D01*
X124534225Y-151768039D01*
X124534224Y-151768039D01*
X124529243Y-151765716D01*
X124523935Y-151764294D01*
X124523933Y-151764293D01*
X124313402Y-151707881D01*
X124313400Y-151707881D01*
X124308087Y-151706457D01*
X124080000Y-151686502D01*
X123851913Y-151706457D01*
X123846600Y-151707881D01*
X123846598Y-151707881D01*
X123636067Y-151764293D01*
X123636065Y-151764294D01*
X123630757Y-151765716D01*
X123625776Y-151768039D01*
X123625775Y-151768039D01*
X123428238Y-151860151D01*
X123428233Y-151860154D01*
X123423251Y-151862477D01*
X123358165Y-151908051D01*
X123240211Y-151990643D01*
X123240208Y-151990645D01*
X123235700Y-151993802D01*
X123073802Y-152155700D01*
X122942477Y-152343251D01*
X122940154Y-152348233D01*
X122940151Y-152348238D01*
X122848039Y-152545775D01*
X122845716Y-152550757D01*
X122844294Y-152556065D01*
X122844293Y-152556067D01*
X122795001Y-152740026D01*
X122786457Y-152771913D01*
X122766502Y-153000000D01*
X119703500Y-153000000D01*
X119703500Y-150008604D01*
X119703673Y-150002010D01*
X119706959Y-149939317D01*
X119706959Y-149939313D01*
X119707293Y-149932936D01*
X119706338Y-149926623D01*
X119706338Y-149926618D01*
X119696697Y-149862876D01*
X119695925Y-149856766D01*
X119689411Y-149792630D01*
X119689410Y-149792627D01*
X119688765Y-149786273D01*
X119688765Y-149786272D01*
X119689138Y-149786234D01*
X119694732Y-149719089D01*
X119737941Y-149662755D01*
X119804747Y-149638724D01*
X119812264Y-149638500D01*
X141155500Y-149638500D01*
X141223621Y-149658502D01*
X141270114Y-149712158D01*
X141281500Y-149764500D01*
X141281500Y-158971396D01*
X141281327Y-158977990D01*
X141278645Y-159029171D01*
X141277707Y-159047064D01*
X141278662Y-159053377D01*
X141278662Y-159053382D01*
X141281162Y-159069908D01*
X141286999Y-159108500D01*
X141288303Y-159117124D01*
X141289074Y-159123226D01*
X141296235Y-159193727D01*
X141298143Y-159199817D01*
X141298145Y-159199825D01*
X141300396Y-159207008D01*
X141304742Y-159225833D01*
X141305869Y-159233280D01*
X141306825Y-159239599D01*
X141331300Y-159306121D01*
X141333272Y-159311915D01*
X141354465Y-159379541D01*
X141361213Y-159391714D01*
X141369260Y-159409292D01*
X141374063Y-159422346D01*
X141377425Y-159427768D01*
X141411404Y-159482570D01*
X141414516Y-159487874D01*
X141448870Y-159549850D01*
X141453021Y-159554693D01*
X141457922Y-159560411D01*
X141469341Y-159576013D01*
X141476674Y-159587840D01*
X141525381Y-159639346D01*
X141529481Y-159643900D01*
X141575591Y-159697698D01*
X141580637Y-159701612D01*
X141580641Y-159701616D01*
X141586585Y-159706227D01*
X141600897Y-159719204D01*
X141610466Y-159729322D01*
X141615691Y-159732980D01*
X141615695Y-159732984D01*
X141668524Y-159769974D01*
X141673481Y-159773629D01*
X141676792Y-159776197D01*
X141729453Y-159817046D01*
X141741938Y-159823189D01*
X141758569Y-159833024D01*
X141769975Y-159841011D01*
X141775833Y-159843546D01*
X141835008Y-159869153D01*
X141840596Y-159871735D01*
X141904171Y-159903018D01*
X141917640Y-159906527D01*
X141935910Y-159912817D01*
X141948684Y-159918345D01*
X141954934Y-159919651D01*
X141954935Y-159919651D01*
X142018027Y-159932832D01*
X142024020Y-159934237D01*
X142086436Y-159950495D01*
X142086440Y-159950496D01*
X142092607Y-159952102D01*
X142106500Y-159952830D01*
X142125674Y-159955320D01*
X142134558Y-159957176D01*
X142134560Y-159957176D01*
X142139293Y-159958165D01*
X142145685Y-159958500D01*
X142211396Y-159958500D01*
X142217990Y-159958673D01*
X142280683Y-159961959D01*
X142280687Y-159961959D01*
X142287064Y-159962293D01*
X142302774Y-159959917D01*
X142321616Y-159958500D01*
X145092168Y-159958500D01*
X145160289Y-159978502D01*
X145172653Y-159987556D01*
X145328126Y-160116632D01*
X145390325Y-160152978D01*
X145401955Y-160159774D01*
X145450679Y-160211412D01*
X145463750Y-160281195D01*
X145437019Y-160346967D01*
X145396562Y-160380327D01*
X145388460Y-160384544D01*
X145379734Y-160390039D01*
X145359677Y-160405099D01*
X145351223Y-160416427D01*
X145357968Y-160428758D01*
X146097188Y-161167978D01*
X146111132Y-161175592D01*
X146112965Y-161175461D01*
X146119580Y-161171210D01*
X146863389Y-160427401D01*
X146870410Y-160414544D01*
X146863611Y-160405213D01*
X146859559Y-160402521D01*
X146822602Y-160382120D01*
X146772631Y-160331687D01*
X146757859Y-160262245D01*
X146782975Y-160195839D01*
X146810327Y-160169232D01*
X146833797Y-160152491D01*
X146989860Y-160041173D01*
X147148096Y-159883489D01*
X147152947Y-159876739D01*
X147275435Y-159706277D01*
X147278453Y-159702077D01*
X147283013Y-159692852D01*
X147375136Y-159506453D01*
X147375137Y-159506451D01*
X147377430Y-159501811D01*
X147424892Y-159345595D01*
X147440865Y-159293023D01*
X147440865Y-159293021D01*
X147442370Y-159288069D01*
X147471529Y-159066590D01*
X147472162Y-159040683D01*
X147473074Y-159003365D01*
X147473074Y-159003361D01*
X147473156Y-159000000D01*
X147454852Y-158777361D01*
X147400431Y-158560702D01*
X147311354Y-158355840D01*
X147236154Y-158239599D01*
X147192822Y-158172617D01*
X147192820Y-158172614D01*
X147190014Y-158168277D01*
X147186532Y-158164450D01*
X147042798Y-158006488D01*
X147011746Y-157942642D01*
X147020141Y-157872143D01*
X147065317Y-157817375D01*
X147091761Y-157803706D01*
X147198297Y-157763767D01*
X147206705Y-157760615D01*
X147323261Y-157673261D01*
X147410615Y-157556705D01*
X147426510Y-157514305D01*
X147431772Y-157500270D01*
X147474414Y-157443505D01*
X147540976Y-157418806D01*
X147549754Y-157418500D01*
X153855500Y-157418500D01*
X153923621Y-157438502D01*
X153970114Y-157492158D01*
X153981500Y-157544500D01*
X153981500Y-165285500D01*
X153961498Y-165353621D01*
X153907842Y-165400114D01*
X153855500Y-165411500D01*
X115004500Y-165411500D01*
X114936379Y-165391498D01*
X114889886Y-165337842D01*
X114878500Y-165285500D01*
X114878500Y-162967399D01*
X130174712Y-162967399D01*
X130196194Y-163056537D01*
X130200083Y-163067832D01*
X130282629Y-163249382D01*
X130288576Y-163259724D01*
X130403968Y-163422397D01*
X130411761Y-163431425D01*
X130555831Y-163569342D01*
X130565196Y-163576738D01*
X130732741Y-163684921D01*
X130743345Y-163690417D01*
X130928312Y-163764961D01*
X130939770Y-163768355D01*
X131136928Y-163806857D01*
X131145791Y-163807934D01*
X131148500Y-163808000D01*
X131727885Y-163808000D01*
X131743124Y-163803525D01*
X131744329Y-163802135D01*
X131746000Y-163794452D01*
X131746000Y-163789885D01*
X132254000Y-163789885D01*
X132258475Y-163805124D01*
X132259865Y-163806329D01*
X132267548Y-163808000D01*
X132799832Y-163808000D01*
X132805808Y-163807715D01*
X132954494Y-163793529D01*
X132966228Y-163791270D01*
X133157599Y-163735128D01*
X133168675Y-163730698D01*
X133345978Y-163639381D01*
X133356024Y-163632931D01*
X133512857Y-163509738D01*
X133521506Y-163501501D01*
X133652212Y-163350877D01*
X133659147Y-163341153D01*
X133759010Y-163168533D01*
X133763984Y-163157669D01*
X133829407Y-162969273D01*
X133829648Y-162968284D01*
X133828180Y-162957992D01*
X133814615Y-162954000D01*
X132272115Y-162954000D01*
X132256876Y-162958475D01*
X132255671Y-162959865D01*
X132254000Y-162967548D01*
X132254000Y-163789885D01*
X131746000Y-163789885D01*
X131746000Y-162972115D01*
X131741525Y-162956876D01*
X131740135Y-162955671D01*
X131732452Y-162954000D01*
X130189598Y-162954000D01*
X130176067Y-162957973D01*
X130174712Y-162967399D01*
X114878500Y-162967399D01*
X114878500Y-162664853D01*
X145349977Y-162664853D01*
X145355258Y-162671907D01*
X145516756Y-162766279D01*
X145526042Y-162770729D01*
X145725001Y-162846703D01*
X145734899Y-162849579D01*
X145943595Y-162892038D01*
X145953823Y-162893257D01*
X146166650Y-162901062D01*
X146176936Y-162900595D01*
X146388185Y-162873534D01*
X146398262Y-162871392D01*
X146602255Y-162810191D01*
X146611842Y-162806433D01*
X146803098Y-162712738D01*
X146811944Y-162707465D01*
X146859247Y-162673723D01*
X146867648Y-162663023D01*
X146860660Y-162649870D01*
X146122812Y-161912022D01*
X146108868Y-161904408D01*
X146107035Y-161904539D01*
X146100420Y-161908790D01*
X145356737Y-162652473D01*
X145349977Y-162664853D01*
X114878500Y-162664853D01*
X114878500Y-162431716D01*
X130170352Y-162431716D01*
X130171820Y-162442008D01*
X130185385Y-162446000D01*
X131727885Y-162446000D01*
X131743124Y-162441525D01*
X131744329Y-162440135D01*
X131746000Y-162432452D01*
X131746000Y-162427885D01*
X132254000Y-162427885D01*
X132258475Y-162443124D01*
X132259865Y-162444329D01*
X132267548Y-162446000D01*
X133810402Y-162446000D01*
X133823933Y-162442027D01*
X133825288Y-162432601D01*
X133803806Y-162343463D01*
X133799917Y-162332168D01*
X133717371Y-162150618D01*
X133711424Y-162140276D01*
X133596032Y-161977603D01*
X133588239Y-161968575D01*
X133444169Y-161830658D01*
X133434804Y-161823262D01*
X133267259Y-161715079D01*
X133256655Y-161709583D01*
X133071688Y-161635039D01*
X133060230Y-161631645D01*
X132863072Y-161593143D01*
X132854209Y-161592066D01*
X132851500Y-161592000D01*
X132272115Y-161592000D01*
X132256876Y-161596475D01*
X132255671Y-161597865D01*
X132254000Y-161605548D01*
X132254000Y-162427885D01*
X131746000Y-162427885D01*
X131746000Y-161610115D01*
X131741525Y-161594876D01*
X131740135Y-161593671D01*
X131732452Y-161592000D01*
X131200168Y-161592000D01*
X131194192Y-161592285D01*
X131045506Y-161606471D01*
X131033772Y-161608730D01*
X130842401Y-161664872D01*
X130831325Y-161669302D01*
X130654022Y-161760619D01*
X130643976Y-161767069D01*
X130487143Y-161890262D01*
X130478494Y-161898499D01*
X130347788Y-162049123D01*
X130340853Y-162058847D01*
X130240990Y-162231467D01*
X130236016Y-162242331D01*
X130170593Y-162430727D01*
X130170352Y-162431716D01*
X114878500Y-162431716D01*
X114878500Y-161511863D01*
X144748050Y-161511863D01*
X144760309Y-161724477D01*
X144761745Y-161734697D01*
X144808565Y-161942446D01*
X144811645Y-161952275D01*
X144891770Y-162149603D01*
X144896413Y-162158794D01*
X144976460Y-162289420D01*
X144986916Y-162298880D01*
X144995694Y-162295096D01*
X145737978Y-161552812D01*
X145744356Y-161541132D01*
X146474408Y-161541132D01*
X146474539Y-161542965D01*
X146478790Y-161549580D01*
X147220474Y-162291264D01*
X147232484Y-162297823D01*
X147244223Y-162288855D01*
X147275004Y-162246019D01*
X147280315Y-162237180D01*
X147374670Y-162046267D01*
X147378469Y-162036672D01*
X147440376Y-161832915D01*
X147442555Y-161822834D01*
X147470590Y-161609887D01*
X147471109Y-161603212D01*
X147472572Y-161543364D01*
X147472378Y-161536646D01*
X147454781Y-161322604D01*
X147453096Y-161312424D01*
X147401214Y-161105875D01*
X147397894Y-161096124D01*
X147312972Y-160900814D01*
X147308105Y-160891739D01*
X147243063Y-160791197D01*
X147232377Y-160781995D01*
X147222812Y-160786398D01*
X146482022Y-161527188D01*
X146474408Y-161541132D01*
X145744356Y-161541132D01*
X145745592Y-161538868D01*
X145745461Y-161537035D01*
X145741210Y-161530420D01*
X144999849Y-160789059D01*
X144988313Y-160782759D01*
X144976031Y-160792382D01*
X144928089Y-160862662D01*
X144923004Y-160871613D01*
X144833338Y-161064783D01*
X144829775Y-161074470D01*
X144772864Y-161279681D01*
X144770933Y-161289800D01*
X144748302Y-161501574D01*
X144748050Y-161511863D01*
X114878500Y-161511863D01*
X114878500Y-153944188D01*
X114898502Y-153876067D01*
X114915405Y-153855093D01*
X114926198Y-153844300D01*
X114930285Y-153838464D01*
X114984098Y-153761611D01*
X115057523Y-153656749D01*
X115059846Y-153651767D01*
X115059849Y-153651762D01*
X115151961Y-153454225D01*
X115151961Y-153454224D01*
X115154284Y-153449243D01*
X115179699Y-153354396D01*
X115212119Y-153233402D01*
X115212119Y-153233400D01*
X115213543Y-153228087D01*
X115233498Y-153000000D01*
X115213543Y-152771913D01*
X115204999Y-152740026D01*
X115155707Y-152556067D01*
X115155706Y-152556065D01*
X115154284Y-152550757D01*
X115151961Y-152545775D01*
X115059849Y-152348238D01*
X115059846Y-152348233D01*
X115057523Y-152343251D01*
X114926198Y-152155700D01*
X114764300Y-151993802D01*
X114759792Y-151990645D01*
X114759789Y-151990643D01*
X114641835Y-151908051D01*
X114576749Y-151862477D01*
X114571767Y-151860154D01*
X114571762Y-151860151D01*
X114374225Y-151768039D01*
X114374224Y-151768039D01*
X114369243Y-151765716D01*
X114363935Y-151764294D01*
X114363933Y-151764293D01*
X114153402Y-151707881D01*
X114153400Y-151707881D01*
X114148087Y-151706457D01*
X113920000Y-151686502D01*
X113691913Y-151706457D01*
X113686600Y-151707881D01*
X113686598Y-151707881D01*
X113476067Y-151764293D01*
X113476065Y-151764294D01*
X113470757Y-151765716D01*
X113465776Y-151768039D01*
X113465775Y-151768039D01*
X113268238Y-151860151D01*
X113268233Y-151860154D01*
X113263251Y-151862477D01*
X113198165Y-151908051D01*
X113080211Y-151990643D01*
X113080208Y-151990645D01*
X113075700Y-151993802D01*
X112913802Y-152155700D01*
X112782477Y-152343251D01*
X112780154Y-152348233D01*
X112780151Y-152348238D01*
X112688039Y-152545775D01*
X112685716Y-152550757D01*
X112684294Y-152556065D01*
X112684293Y-152556067D01*
X112635001Y-152740026D01*
X112626457Y-152771913D01*
X112606502Y-153000000D01*
X112626457Y-153228087D01*
X112627881Y-153233400D01*
X112627881Y-153233402D01*
X112660302Y-153354396D01*
X112685716Y-153449243D01*
X112688039Y-153454224D01*
X112688039Y-153454225D01*
X112780151Y-153651762D01*
X112780154Y-153651767D01*
X112782477Y-153656749D01*
X112855902Y-153761611D01*
X112909716Y-153838464D01*
X112913802Y-153844300D01*
X112924595Y-153855093D01*
X112958621Y-153917405D01*
X112961500Y-153944188D01*
X112961500Y-165285500D01*
X112941498Y-165353621D01*
X112887842Y-165400114D01*
X112835500Y-165411500D01*
X87224975Y-165411500D01*
X87152704Y-165388713D01*
X87103891Y-165354534D01*
X86991654Y-165275944D01*
X86792076Y-165182880D01*
X86579371Y-165125885D01*
X86360000Y-165106693D01*
X86140629Y-165125885D01*
X85927924Y-165182880D01*
X85854041Y-165217332D01*
X85733334Y-165273618D01*
X85733329Y-165273621D01*
X85728347Y-165275944D01*
X85723840Y-165279100D01*
X85723838Y-165279101D01*
X85552473Y-165399092D01*
X85552470Y-165399094D01*
X85547962Y-165402251D01*
X85392251Y-165557962D01*
X85389094Y-165562470D01*
X85389092Y-165562473D01*
X85269101Y-165733838D01*
X85265944Y-165738347D01*
X85263621Y-165743329D01*
X85263618Y-165743334D01*
X85227449Y-165820899D01*
X85172880Y-165937924D01*
X85115885Y-166150629D01*
X85096693Y-166370000D01*
X85115885Y-166589371D01*
X85172880Y-166802076D01*
X85195891Y-166851423D01*
X85263618Y-166996666D01*
X85263621Y-166996671D01*
X85265944Y-167001653D01*
X85269100Y-167006160D01*
X85269101Y-167006162D01*
X85379777Y-167164223D01*
X85392251Y-167182038D01*
X85547962Y-167337749D01*
X85728346Y-167464056D01*
X85927924Y-167557120D01*
X86140629Y-167614115D01*
X86360000Y-167633307D01*
X86579371Y-167614115D01*
X86792076Y-167557120D01*
X86991654Y-167464056D01*
X87152704Y-167351287D01*
X87224975Y-167328500D01*
X113891396Y-167328500D01*
X113897990Y-167328673D01*
X113960683Y-167331959D01*
X113960687Y-167331959D01*
X113967064Y-167332293D01*
X113982774Y-167329917D01*
X114001616Y-167328500D01*
X154911396Y-167328500D01*
X154917990Y-167328673D01*
X154980683Y-167331959D01*
X154980687Y-167331959D01*
X154987064Y-167332293D01*
X154993377Y-167331338D01*
X154993382Y-167331338D01*
X155035072Y-167325032D01*
X155057135Y-167321696D01*
X155063226Y-167320926D01*
X155133727Y-167313765D01*
X155139817Y-167311857D01*
X155139825Y-167311855D01*
X155147008Y-167309604D01*
X155165833Y-167305258D01*
X155173280Y-167304131D01*
X155173282Y-167304130D01*
X155179599Y-167303175D01*
X155246121Y-167278700D01*
X155251915Y-167276728D01*
X155319541Y-167255535D01*
X155331714Y-167248787D01*
X155349292Y-167240740D01*
X155356357Y-167238141D01*
X155356361Y-167238139D01*
X155362346Y-167235937D01*
X155422577Y-167198592D01*
X155427881Y-167195480D01*
X155484270Y-167164223D01*
X155489850Y-167161130D01*
X155500411Y-167152078D01*
X155516013Y-167140659D01*
X155527840Y-167133326D01*
X155579346Y-167084619D01*
X155583909Y-167080511D01*
X155637698Y-167034409D01*
X155641612Y-167029363D01*
X155641616Y-167029359D01*
X155646227Y-167023415D01*
X155659204Y-167009103D01*
X155669322Y-166999534D01*
X155672980Y-166994309D01*
X155672984Y-166994305D01*
X155709974Y-166941476D01*
X155713629Y-166936519D01*
X155753134Y-166885590D01*
X155757046Y-166880547D01*
X155763189Y-166868062D01*
X155773024Y-166851431D01*
X155781011Y-166840025D01*
X155809154Y-166774989D01*
X155811736Y-166769402D01*
X155840199Y-166711558D01*
X155843018Y-166705829D01*
X155846527Y-166692360D01*
X155852817Y-166674090D01*
X155858345Y-166661316D01*
X155872832Y-166591973D01*
X155874237Y-166585980D01*
X155890495Y-166523564D01*
X155890496Y-166523560D01*
X155892102Y-166517393D01*
X155892830Y-166503500D01*
X155895320Y-166484326D01*
X155897176Y-166475442D01*
X155897176Y-166475440D01*
X155898165Y-166470707D01*
X155898500Y-166464315D01*
X155898500Y-166398604D01*
X155898673Y-166392010D01*
X155901959Y-166329317D01*
X155901959Y-166329313D01*
X155902293Y-166322936D01*
X155899917Y-166307225D01*
X155898500Y-166288384D01*
X155898500Y-161506695D01*
X162527251Y-161506695D01*
X162527548Y-161511848D01*
X162527548Y-161511851D01*
X162532951Y-161605548D01*
X162540110Y-161729715D01*
X162541247Y-161734761D01*
X162541248Y-161734767D01*
X162561119Y-161822939D01*
X162589222Y-161947639D01*
X162673266Y-162154616D01*
X162708070Y-162211411D01*
X162782070Y-162332168D01*
X162789987Y-162345088D01*
X162936250Y-162513938D01*
X163108126Y-162656632D01*
X163301000Y-162769338D01*
X163509692Y-162849030D01*
X163514760Y-162850061D01*
X163514763Y-162850062D01*
X163619604Y-162871392D01*
X163728597Y-162893567D01*
X163733772Y-162893757D01*
X163733774Y-162893757D01*
X163946673Y-162901564D01*
X163946677Y-162901564D01*
X163951837Y-162901753D01*
X163956957Y-162901097D01*
X163956959Y-162901097D01*
X164168288Y-162874025D01*
X164168289Y-162874025D01*
X164173416Y-162873368D01*
X164178366Y-162871883D01*
X164382429Y-162810661D01*
X164382434Y-162810659D01*
X164387384Y-162809174D01*
X164587994Y-162710896D01*
X164769860Y-162581173D01*
X164928096Y-162423489D01*
X164987594Y-162340689D01*
X165055435Y-162246277D01*
X165058453Y-162242077D01*
X165060874Y-162237180D01*
X165155136Y-162046453D01*
X165155137Y-162046451D01*
X165157430Y-162041811D01*
X165209206Y-161871396D01*
X165220865Y-161833023D01*
X165220865Y-161833021D01*
X165222370Y-161828069D01*
X165251529Y-161606590D01*
X165251884Y-161592066D01*
X165253074Y-161543365D01*
X165253074Y-161543361D01*
X165253156Y-161540000D01*
X165234852Y-161317361D01*
X165180431Y-161100702D01*
X165091354Y-160895840D01*
X164970014Y-160708277D01*
X164819670Y-160543051D01*
X164815619Y-160539852D01*
X164815615Y-160539848D01*
X164648414Y-160407800D01*
X164648410Y-160407798D01*
X164644359Y-160404598D01*
X164603053Y-160381796D01*
X164553084Y-160331364D01*
X164538312Y-160261921D01*
X164563428Y-160195516D01*
X164590780Y-160168909D01*
X164634603Y-160137650D01*
X164769860Y-160041173D01*
X164928096Y-159883489D01*
X164932947Y-159876739D01*
X165055435Y-159706277D01*
X165058453Y-159702077D01*
X165063013Y-159692852D01*
X165155136Y-159506453D01*
X165155137Y-159506451D01*
X165157430Y-159501811D01*
X165204892Y-159345595D01*
X165220865Y-159293023D01*
X165220865Y-159293021D01*
X165222370Y-159288069D01*
X165251529Y-159066590D01*
X165252162Y-159040683D01*
X165253074Y-159003365D01*
X165253074Y-159003361D01*
X165253156Y-159000000D01*
X165234852Y-158777361D01*
X165180431Y-158560702D01*
X165091354Y-158355840D01*
X165016154Y-158239599D01*
X164972822Y-158172617D01*
X164972820Y-158172614D01*
X164970014Y-158168277D01*
X164819670Y-158003051D01*
X164815619Y-157999852D01*
X164815615Y-157999848D01*
X164648414Y-157867800D01*
X164648410Y-157867798D01*
X164644359Y-157864598D01*
X164603053Y-157841796D01*
X164553084Y-157791364D01*
X164538312Y-157721921D01*
X164563428Y-157655516D01*
X164590780Y-157628909D01*
X164634603Y-157597650D01*
X164769860Y-157501173D01*
X164928096Y-157343489D01*
X164932947Y-157336739D01*
X165055435Y-157166277D01*
X165058453Y-157162077D01*
X165076225Y-157126119D01*
X165155136Y-156966453D01*
X165155137Y-156966451D01*
X165157430Y-156961811D01*
X165222370Y-156748069D01*
X165251529Y-156526590D01*
X165253156Y-156460000D01*
X165234852Y-156237361D01*
X165180431Y-156020702D01*
X165091354Y-155815840D01*
X165010326Y-155690590D01*
X164972822Y-155632617D01*
X164972820Y-155632614D01*
X164970014Y-155628277D01*
X164819670Y-155463051D01*
X164815619Y-155459852D01*
X164815615Y-155459848D01*
X164648414Y-155327800D01*
X164648410Y-155327798D01*
X164644359Y-155324598D01*
X164448789Y-155216638D01*
X164443920Y-155214914D01*
X164443916Y-155214912D01*
X164243087Y-155143795D01*
X164243083Y-155143794D01*
X164238212Y-155142069D01*
X164233119Y-155141162D01*
X164233116Y-155141161D01*
X164023373Y-155103800D01*
X164023367Y-155103799D01*
X164018284Y-155102894D01*
X163944452Y-155101992D01*
X163800081Y-155100228D01*
X163800079Y-155100228D01*
X163794911Y-155100165D01*
X163574091Y-155133955D01*
X163361756Y-155203357D01*
X163163607Y-155306507D01*
X163159474Y-155309610D01*
X163159471Y-155309612D01*
X162989100Y-155437530D01*
X162984965Y-155440635D01*
X162830629Y-155602138D01*
X162827715Y-155606410D01*
X162827714Y-155606411D01*
X162784554Y-155669681D01*
X162704743Y-155786680D01*
X162662783Y-155877076D01*
X162628345Y-155951267D01*
X162610688Y-155989305D01*
X162550989Y-156204570D01*
X162527251Y-156426695D01*
X162527548Y-156431848D01*
X162527548Y-156431851D01*
X162534641Y-156554870D01*
X162540110Y-156649715D01*
X162541247Y-156654761D01*
X162541248Y-156654767D01*
X162557284Y-156725922D01*
X162589222Y-156867639D01*
X162673266Y-157074616D01*
X162707367Y-157130264D01*
X162772283Y-157236197D01*
X162789987Y-157265088D01*
X162936250Y-157433938D01*
X163108126Y-157576632D01*
X163170325Y-157612978D01*
X163181445Y-157619476D01*
X163230169Y-157671114D01*
X163243240Y-157740897D01*
X163216509Y-157806669D01*
X163176055Y-157840027D01*
X163163607Y-157846507D01*
X163159474Y-157849610D01*
X163159471Y-157849612D01*
X162991045Y-157976070D01*
X162984965Y-157980635D01*
X162830629Y-158142138D01*
X162827715Y-158146410D01*
X162827714Y-158146411D01*
X162811932Y-158169547D01*
X162704743Y-158326680D01*
X162660337Y-158422346D01*
X162628345Y-158491267D01*
X162610688Y-158529305D01*
X162550989Y-158744570D01*
X162527251Y-158966695D01*
X162527548Y-158971848D01*
X162527548Y-158971851D01*
X162536017Y-159118723D01*
X162540110Y-159189715D01*
X162541247Y-159194761D01*
X162541248Y-159194767D01*
X162554866Y-159255191D01*
X162589222Y-159407639D01*
X162673266Y-159614616D01*
X162675965Y-159619020D01*
X162772283Y-159776197D01*
X162789987Y-159805088D01*
X162936250Y-159973938D01*
X163108126Y-160116632D01*
X163170325Y-160152978D01*
X163181445Y-160159476D01*
X163230169Y-160211114D01*
X163243240Y-160280897D01*
X163216509Y-160346669D01*
X163176055Y-160380027D01*
X163163607Y-160386507D01*
X163159474Y-160389610D01*
X163159471Y-160389612D01*
X162989100Y-160517530D01*
X162984965Y-160520635D01*
X162981393Y-160524373D01*
X162835397Y-160677149D01*
X162830629Y-160682138D01*
X162827715Y-160686410D01*
X162827714Y-160686411D01*
X162809838Y-160712617D01*
X162704743Y-160866680D01*
X162671974Y-160937275D01*
X162613998Y-161062175D01*
X162610688Y-161069305D01*
X162550989Y-161284570D01*
X162527251Y-161506695D01*
X155898500Y-161506695D01*
X155898500Y-156251803D01*
X155898871Y-156242136D01*
X155902666Y-156192821D01*
X155902666Y-156192817D01*
X155903155Y-156186461D01*
X155899494Y-156157480D01*
X155898500Y-156141689D01*
X155898500Y-137188604D01*
X155898673Y-137182010D01*
X155901959Y-137119317D01*
X155901959Y-137119313D01*
X155902293Y-137112936D01*
X155899917Y-137097225D01*
X155898500Y-137078384D01*
X155898500Y-119664853D01*
X163129977Y-119664853D01*
X163135258Y-119671907D01*
X163296756Y-119766279D01*
X163306042Y-119770729D01*
X163505001Y-119846703D01*
X163514899Y-119849579D01*
X163723595Y-119892038D01*
X163733823Y-119893257D01*
X163946650Y-119901062D01*
X163956936Y-119900595D01*
X164168185Y-119873534D01*
X164178262Y-119871392D01*
X164382255Y-119810191D01*
X164391842Y-119806433D01*
X164583098Y-119712738D01*
X164591944Y-119707465D01*
X164639247Y-119673723D01*
X164647648Y-119663023D01*
X164640660Y-119649870D01*
X163902812Y-118912022D01*
X163888868Y-118904408D01*
X163887035Y-118904539D01*
X163880420Y-118908790D01*
X163136737Y-119652473D01*
X163129977Y-119664853D01*
X155898500Y-119664853D01*
X155898500Y-118511863D01*
X162528050Y-118511863D01*
X162540309Y-118724477D01*
X162541745Y-118734697D01*
X162588565Y-118942446D01*
X162591645Y-118952275D01*
X162671770Y-119149603D01*
X162676413Y-119158794D01*
X162756460Y-119289420D01*
X162766916Y-119298880D01*
X162775694Y-119295096D01*
X163517978Y-118552812D01*
X163524356Y-118541132D01*
X164254408Y-118541132D01*
X164254539Y-118542965D01*
X164258790Y-118549580D01*
X165000474Y-119291264D01*
X165012484Y-119297823D01*
X165024223Y-119288855D01*
X165055004Y-119246019D01*
X165060315Y-119237180D01*
X165154670Y-119046267D01*
X165158469Y-119036672D01*
X165220376Y-118832915D01*
X165222555Y-118822834D01*
X165250590Y-118609887D01*
X165251109Y-118603212D01*
X165252572Y-118543364D01*
X165252378Y-118536646D01*
X165234781Y-118322604D01*
X165233096Y-118312424D01*
X165181214Y-118105875D01*
X165177894Y-118096124D01*
X165092972Y-117900814D01*
X165088105Y-117891739D01*
X165023063Y-117791197D01*
X165012377Y-117781995D01*
X165002812Y-117786398D01*
X164262022Y-118527188D01*
X164254408Y-118541132D01*
X163524356Y-118541132D01*
X163525592Y-118538868D01*
X163525461Y-118537035D01*
X163521210Y-118530420D01*
X162779849Y-117789059D01*
X162768313Y-117782759D01*
X162756031Y-117792382D01*
X162708089Y-117862662D01*
X162703004Y-117871613D01*
X162613338Y-118064783D01*
X162609775Y-118074470D01*
X162552864Y-118279681D01*
X162550933Y-118289800D01*
X162528302Y-118501574D01*
X162528050Y-118511863D01*
X155898500Y-118511863D01*
X155898500Y-117084500D01*
X155918502Y-117016379D01*
X155972158Y-116969886D01*
X156024500Y-116958500D01*
X162872168Y-116958500D01*
X162940289Y-116978502D01*
X162952653Y-116987556D01*
X162987371Y-117016379D01*
X163108126Y-117116632D01*
X163181445Y-117159476D01*
X163181955Y-117159774D01*
X163230679Y-117211412D01*
X163243750Y-117281195D01*
X163217019Y-117346967D01*
X163176562Y-117380327D01*
X163168460Y-117384544D01*
X163159734Y-117390039D01*
X163139677Y-117405099D01*
X163131223Y-117416427D01*
X163137968Y-117428758D01*
X163877188Y-118167978D01*
X163891132Y-118175592D01*
X163892965Y-118175461D01*
X163899580Y-118171210D01*
X164643389Y-117427401D01*
X164650410Y-117414544D01*
X164643611Y-117405213D01*
X164639559Y-117402521D01*
X164602602Y-117382120D01*
X164552631Y-117331687D01*
X164537859Y-117262245D01*
X164562975Y-117195839D01*
X164590327Y-117169232D01*
X164613797Y-117152491D01*
X164769860Y-117041173D01*
X164928096Y-116883489D01*
X164987594Y-116800689D01*
X165055435Y-116706277D01*
X165058453Y-116702077D01*
X165157430Y-116501811D01*
X165222370Y-116288069D01*
X165251529Y-116066590D01*
X165253156Y-116000000D01*
X165234852Y-115777361D01*
X165180431Y-115560702D01*
X165091354Y-115355840D01*
X164970014Y-115168277D01*
X164819670Y-115003051D01*
X164815619Y-114999852D01*
X164815615Y-114999848D01*
X164648414Y-114867800D01*
X164648410Y-114867798D01*
X164644359Y-114864598D01*
X164603053Y-114841796D01*
X164553084Y-114791364D01*
X164538312Y-114721921D01*
X164563428Y-114655516D01*
X164590780Y-114628909D01*
X164634603Y-114597650D01*
X164769860Y-114501173D01*
X164928096Y-114343489D01*
X164987594Y-114260689D01*
X165055435Y-114166277D01*
X165058453Y-114162077D01*
X165157430Y-113961811D01*
X165222370Y-113748069D01*
X165251529Y-113526590D01*
X165253156Y-113460000D01*
X165234852Y-113237361D01*
X165180431Y-113020702D01*
X165091354Y-112815840D01*
X164970014Y-112628277D01*
X164881306Y-112530788D01*
X164850254Y-112466943D01*
X164848500Y-112445989D01*
X164848500Y-110565549D01*
X164848549Y-110562031D01*
X164850678Y-110485821D01*
X164850678Y-110485818D01*
X164850856Y-110479439D01*
X164840853Y-110422709D01*
X164839584Y-110413562D01*
X164836638Y-110384558D01*
X164833765Y-110356273D01*
X164825623Y-110330293D01*
X164821772Y-110314494D01*
X164818152Y-110293963D01*
X164817043Y-110287673D01*
X164795841Y-110234124D01*
X164792760Y-110225422D01*
X164777446Y-110176554D01*
X164777442Y-110176545D01*
X164775535Y-110170459D01*
X164769929Y-110160345D01*
X164762333Y-110146642D01*
X164755383Y-110131940D01*
X164747709Y-110112557D01*
X164745360Y-110106624D01*
X164741864Y-110101281D01*
X164741861Y-110101276D01*
X164713819Y-110058424D01*
X164709048Y-110050515D01*
X164684225Y-110005733D01*
X164684224Y-110005731D01*
X164681130Y-110000150D01*
X164663409Y-109979474D01*
X164653646Y-109966471D01*
X164638736Y-109943686D01*
X164634453Y-109938929D01*
X164597318Y-109901794D01*
X164590745Y-109894696D01*
X164561406Y-109860466D01*
X164554409Y-109852302D01*
X164531321Y-109834393D01*
X164519453Y-109823929D01*
X164518776Y-109823252D01*
X164516322Y-109820730D01*
X164514571Y-109818878D01*
X164459534Y-109760678D01*
X164412328Y-109727624D01*
X164405002Y-109722084D01*
X164360357Y-109685672D01*
X164336230Y-109673059D01*
X164322332Y-109664609D01*
X164305253Y-109652650D01*
X164300025Y-109648989D01*
X164277754Y-109639351D01*
X164247172Y-109626117D01*
X164238838Y-109622142D01*
X164210947Y-109607561D01*
X164187792Y-109595456D01*
X164161606Y-109587948D01*
X164146312Y-109582472D01*
X164121316Y-109571655D01*
X164115071Y-109570350D01*
X164115070Y-109570350D01*
X164064935Y-109559876D01*
X164055985Y-109557661D01*
X164000611Y-109541784D01*
X163973456Y-109539695D01*
X163957367Y-109537405D01*
X163930707Y-109531835D01*
X163924315Y-109531500D01*
X163871803Y-109531500D01*
X163862136Y-109531129D01*
X163812821Y-109527334D01*
X163812817Y-109527334D01*
X163806461Y-109526845D01*
X163792078Y-109528662D01*
X163777481Y-109530506D01*
X163761689Y-109531500D01*
X138458604Y-109531500D01*
X138452010Y-109531327D01*
X138389317Y-109528041D01*
X138389313Y-109528041D01*
X138382936Y-109527707D01*
X138376623Y-109528662D01*
X138376618Y-109528662D01*
X138334928Y-109534968D01*
X138312865Y-109538304D01*
X138306774Y-109539074D01*
X138236273Y-109546235D01*
X138230183Y-109548143D01*
X138230175Y-109548145D01*
X138222992Y-109550396D01*
X138204167Y-109554742D01*
X138196720Y-109555869D01*
X138196718Y-109555870D01*
X138190401Y-109556825D01*
X138123879Y-109581300D01*
X138118085Y-109583272D01*
X138050459Y-109604465D01*
X138038286Y-109611213D01*
X138020708Y-109619260D01*
X138013643Y-109621859D01*
X138013639Y-109621861D01*
X138007654Y-109624063D01*
X137961549Y-109652650D01*
X137947430Y-109661404D01*
X137942126Y-109664516D01*
X137880150Y-109698870D01*
X137875307Y-109703021D01*
X137869589Y-109707922D01*
X137853987Y-109719341D01*
X137842160Y-109726674D01*
X137790654Y-109775381D01*
X137786100Y-109779481D01*
X137732302Y-109825591D01*
X137728388Y-109830637D01*
X137728384Y-109830641D01*
X137723773Y-109836585D01*
X137710796Y-109850897D01*
X137700678Y-109860466D01*
X137697020Y-109865691D01*
X137697016Y-109865695D01*
X137660026Y-109918524D01*
X137656371Y-109923481D01*
X137612954Y-109979453D01*
X137606811Y-109991938D01*
X137596976Y-110008569D01*
X137588989Y-110019975D01*
X137586454Y-110025833D01*
X137560847Y-110085008D01*
X137558265Y-110090596D01*
X137526982Y-110154171D01*
X137523473Y-110167640D01*
X137517183Y-110185910D01*
X137511655Y-110198684D01*
X137510349Y-110204934D01*
X137510349Y-110204935D01*
X137497168Y-110268027D01*
X137495763Y-110274020D01*
X137481105Y-110330296D01*
X137477898Y-110342607D01*
X137477564Y-110348979D01*
X137477170Y-110356498D01*
X137474680Y-110375674D01*
X137471835Y-110389293D01*
X137471500Y-110395685D01*
X137471500Y-110461396D01*
X137471327Y-110467990D01*
X137470393Y-110485821D01*
X137467707Y-110537064D01*
X137468663Y-110543383D01*
X137470083Y-110552775D01*
X137471500Y-110571616D01*
X137471500Y-127140500D01*
X137451498Y-127208621D01*
X137397842Y-127255114D01*
X137345500Y-127266500D01*
X73630572Y-127266500D01*
X73627053Y-127266451D01*
X73550822Y-127264321D01*
X73550819Y-127264321D01*
X73544440Y-127264143D01*
X73538150Y-127265252D01*
X73538151Y-127265252D01*
X73487702Y-127274147D01*
X73478557Y-127275416D01*
X73427619Y-127280590D01*
X73427615Y-127280591D01*
X73421273Y-127281235D01*
X73395293Y-127289377D01*
X73379494Y-127293228D01*
X73358962Y-127296848D01*
X73358959Y-127296849D01*
X73352674Y-127297957D01*
X73346739Y-127300307D01*
X73346735Y-127300308D01*
X73299124Y-127319159D01*
X73290425Y-127322240D01*
X73235459Y-127339465D01*
X73229878Y-127342559D01*
X73229875Y-127342560D01*
X73211642Y-127352667D01*
X73196941Y-127359616D01*
X73171624Y-127369640D01*
X73166281Y-127373136D01*
X73166276Y-127373139D01*
X73123424Y-127401181D01*
X73115515Y-127405952D01*
X73070733Y-127430775D01*
X73070731Y-127430776D01*
X73065150Y-127433870D01*
X73060307Y-127438021D01*
X73044476Y-127451590D01*
X73031472Y-127461353D01*
X73008686Y-127476264D01*
X73003929Y-127480547D01*
X72966794Y-127517682D01*
X72959696Y-127524255D01*
X72917302Y-127560591D01*
X72901653Y-127580766D01*
X72888677Y-127595076D01*
X72840678Y-127640466D01*
X72807624Y-127687672D01*
X72802084Y-127694998D01*
X72765672Y-127739643D01*
X72762715Y-127745300D01*
X72762714Y-127745301D01*
X72753059Y-127763770D01*
X72744609Y-127777668D01*
X72728989Y-127799975D01*
X72726455Y-127805831D01*
X72706117Y-127852828D01*
X72702142Y-127861162D01*
X72675456Y-127912208D01*
X72667948Y-127938394D01*
X72662472Y-127953688D01*
X72651655Y-127978684D01*
X72650350Y-127984929D01*
X72650350Y-127984930D01*
X72639876Y-128035065D01*
X72637661Y-128044015D01*
X72621784Y-128099389D01*
X72621295Y-128105750D01*
X72619695Y-128126541D01*
X72617405Y-128142633D01*
X72611835Y-128169293D01*
X72611500Y-128175685D01*
X72611500Y-128228197D01*
X72611129Y-128237863D01*
X72606845Y-128293539D01*
X72607645Y-128299871D01*
X72610506Y-128322519D01*
X72611500Y-128338311D01*
X72611500Y-150259451D01*
X72611451Y-150262969D01*
X72609144Y-150345561D01*
X72610253Y-150351850D01*
X72619146Y-150402287D01*
X72620415Y-150411432D01*
X72626235Y-150468727D01*
X72634380Y-150494717D01*
X72638230Y-150510512D01*
X72642958Y-150537327D01*
X72645308Y-150543262D01*
X72645309Y-150543266D01*
X72664159Y-150590875D01*
X72667236Y-150599562D01*
X72684465Y-150654541D01*
X72687558Y-150660120D01*
X72697670Y-150678363D01*
X72704620Y-150693066D01*
X72712289Y-150712437D01*
X72712291Y-150712442D01*
X72714641Y-150718376D01*
X72718140Y-150723723D01*
X72746174Y-150766563D01*
X72750942Y-150774467D01*
X72778870Y-150824850D01*
X72783021Y-150829693D01*
X72796591Y-150845526D01*
X72806352Y-150858527D01*
X72816606Y-150874195D01*
X72821264Y-150881314D01*
X72825547Y-150886071D01*
X72862682Y-150923206D01*
X72869255Y-150930304D01*
X72905591Y-150972698D01*
X72910628Y-150976605D01*
X72910630Y-150976607D01*
X72928679Y-150990607D01*
X72940547Y-151001071D01*
X72971224Y-151031748D01*
X72973678Y-151034270D01*
X73030466Y-151094322D01*
X73077672Y-151127376D01*
X73084998Y-151132916D01*
X73129643Y-151169328D01*
X73135300Y-151172285D01*
X73135301Y-151172286D01*
X73153770Y-151181941D01*
X73167668Y-151190391D01*
X73189975Y-151206011D01*
X73195831Y-151208545D01*
X73242828Y-151228883D01*
X73251162Y-151232858D01*
X73302208Y-151259544D01*
X73328394Y-151267052D01*
X73343688Y-151272528D01*
X73368684Y-151283345D01*
X73374929Y-151284650D01*
X73374930Y-151284650D01*
X73425065Y-151295124D01*
X73434015Y-151297339D01*
X73489389Y-151313216D01*
X73516544Y-151315305D01*
X73532633Y-151317595D01*
X73559293Y-151323165D01*
X73565685Y-151323500D01*
X73618197Y-151323500D01*
X73627864Y-151323871D01*
X73677179Y-151327666D01*
X73677183Y-151327666D01*
X73683539Y-151328155D01*
X73712520Y-151324494D01*
X73728311Y-151323500D01*
X78362168Y-151323500D01*
X78430289Y-151343502D01*
X78442653Y-151352556D01*
X78598126Y-151481632D01*
X78668595Y-151522811D01*
X78671445Y-151524476D01*
X78720169Y-151576114D01*
X78733240Y-151645897D01*
X78706509Y-151711669D01*
X78666055Y-151745027D01*
X78653607Y-151751507D01*
X78649474Y-151754610D01*
X78649471Y-151754612D01*
X78479100Y-151882530D01*
X78474965Y-151885635D01*
X78471394Y-151889372D01*
X78454023Y-151907550D01*
X78392499Y-151942981D01*
X78362928Y-151946500D01*
X63344500Y-151946500D01*
X63276379Y-151926498D01*
X63229886Y-151872842D01*
X63218500Y-151820500D01*
X63218500Y-119664853D01*
X67349977Y-119664853D01*
X67355258Y-119671907D01*
X67516756Y-119766279D01*
X67526042Y-119770729D01*
X67725001Y-119846703D01*
X67734899Y-119849579D01*
X67943595Y-119892038D01*
X67953823Y-119893257D01*
X68166650Y-119901062D01*
X68176936Y-119900595D01*
X68388185Y-119873534D01*
X68398262Y-119871392D01*
X68602255Y-119810191D01*
X68611842Y-119806433D01*
X68803098Y-119712738D01*
X68811944Y-119707465D01*
X68859247Y-119673723D01*
X68867648Y-119663023D01*
X68860660Y-119649870D01*
X68122812Y-118912022D01*
X68108868Y-118904408D01*
X68107035Y-118904539D01*
X68100420Y-118908790D01*
X67356737Y-119652473D01*
X67349977Y-119664853D01*
X63218500Y-119664853D01*
X63218500Y-118511863D01*
X66748050Y-118511863D01*
X66760309Y-118724477D01*
X66761745Y-118734697D01*
X66808565Y-118942446D01*
X66811645Y-118952275D01*
X66891770Y-119149603D01*
X66896413Y-119158794D01*
X66976460Y-119289420D01*
X66986916Y-119298880D01*
X66995694Y-119295096D01*
X67737978Y-118552812D01*
X67744356Y-118541132D01*
X68474408Y-118541132D01*
X68474539Y-118542965D01*
X68478790Y-118549580D01*
X69220474Y-119291264D01*
X69232484Y-119297823D01*
X69244223Y-119288855D01*
X69275004Y-119246019D01*
X69280315Y-119237180D01*
X69374670Y-119046267D01*
X69378469Y-119036672D01*
X69440376Y-118832915D01*
X69442555Y-118822834D01*
X69470590Y-118609887D01*
X69471109Y-118603212D01*
X69472572Y-118543364D01*
X69472378Y-118536646D01*
X69469916Y-118506695D01*
X84527251Y-118506695D01*
X84527548Y-118511848D01*
X84527548Y-118511851D01*
X84533011Y-118606590D01*
X84540110Y-118729715D01*
X84541247Y-118734761D01*
X84541248Y-118734767D01*
X84561119Y-118822939D01*
X84589222Y-118947639D01*
X84673266Y-119154616D01*
X84789987Y-119345088D01*
X84936250Y-119513938D01*
X85108126Y-119656632D01*
X85301000Y-119769338D01*
X85509692Y-119849030D01*
X85514760Y-119850061D01*
X85514763Y-119850062D01*
X85619604Y-119871392D01*
X85728597Y-119893567D01*
X85733772Y-119893757D01*
X85733774Y-119893757D01*
X85946673Y-119901564D01*
X85946677Y-119901564D01*
X85951837Y-119901753D01*
X85956957Y-119901097D01*
X85956959Y-119901097D01*
X86168288Y-119874025D01*
X86168289Y-119874025D01*
X86173416Y-119873368D01*
X86178366Y-119871883D01*
X86382429Y-119810661D01*
X86382434Y-119810659D01*
X86387384Y-119809174D01*
X86587994Y-119710896D01*
X86769860Y-119581173D01*
X86928096Y-119423489D01*
X86931116Y-119419287D01*
X87055435Y-119246277D01*
X87058453Y-119242077D01*
X87060874Y-119237180D01*
X87155136Y-119046453D01*
X87155137Y-119046451D01*
X87157430Y-119041811D01*
X87222370Y-118828069D01*
X87251529Y-118606590D01*
X87253156Y-118540000D01*
X87234852Y-118317361D01*
X87180431Y-118100702D01*
X87091354Y-117895840D01*
X86970014Y-117708277D01*
X86819670Y-117543051D01*
X86815619Y-117539852D01*
X86815615Y-117539848D01*
X86648414Y-117407800D01*
X86648410Y-117407798D01*
X86644359Y-117404598D01*
X86603053Y-117381796D01*
X86553084Y-117331364D01*
X86538312Y-117261921D01*
X86563428Y-117195516D01*
X86590780Y-117168909D01*
X86634603Y-117137650D01*
X86769860Y-117041173D01*
X86928096Y-116883489D01*
X86987594Y-116800689D01*
X87055435Y-116706277D01*
X87058453Y-116702077D01*
X87157430Y-116501811D01*
X87222370Y-116288069D01*
X87251529Y-116066590D01*
X87253156Y-116000000D01*
X87234852Y-115777361D01*
X87180431Y-115560702D01*
X87091354Y-115355840D01*
X86970014Y-115168277D01*
X86819670Y-115003051D01*
X86815619Y-114999852D01*
X86815615Y-114999848D01*
X86648414Y-114867800D01*
X86648410Y-114867798D01*
X86644359Y-114864598D01*
X86603053Y-114841796D01*
X86553084Y-114791364D01*
X86538312Y-114721921D01*
X86563428Y-114655516D01*
X86590780Y-114628909D01*
X86634603Y-114597650D01*
X86769860Y-114501173D01*
X86928096Y-114343489D01*
X86987594Y-114260689D01*
X87055435Y-114166277D01*
X87058453Y-114162077D01*
X87157430Y-113961811D01*
X87222370Y-113748069D01*
X87251529Y-113526590D01*
X87253156Y-113460000D01*
X87234852Y-113237361D01*
X87180431Y-113020702D01*
X87091354Y-112815840D01*
X86970014Y-112628277D01*
X86819670Y-112463051D01*
X86815619Y-112459852D01*
X86815615Y-112459848D01*
X86648414Y-112327800D01*
X86648410Y-112327798D01*
X86644359Y-112324598D01*
X86448789Y-112216638D01*
X86443920Y-112214914D01*
X86443916Y-112214912D01*
X86243087Y-112143795D01*
X86243083Y-112143794D01*
X86238212Y-112142069D01*
X86233119Y-112141162D01*
X86233116Y-112141161D01*
X86023373Y-112103800D01*
X86023367Y-112103799D01*
X86018284Y-112102894D01*
X85944452Y-112101992D01*
X85800081Y-112100228D01*
X85800079Y-112100228D01*
X85794911Y-112100165D01*
X85574091Y-112133955D01*
X85361756Y-112203357D01*
X85163607Y-112306507D01*
X85159474Y-112309610D01*
X85159471Y-112309612D01*
X84989100Y-112437530D01*
X84984965Y-112440635D01*
X84929513Y-112498662D01*
X84842936Y-112589260D01*
X84830629Y-112602138D01*
X84827715Y-112606410D01*
X84827714Y-112606411D01*
X84782276Y-112673021D01*
X84704743Y-112786680D01*
X84681991Y-112835695D01*
X84615668Y-112978577D01*
X84610688Y-112989305D01*
X84550989Y-113204570D01*
X84527251Y-113426695D01*
X84527548Y-113431848D01*
X84527548Y-113431851D01*
X84533011Y-113526590D01*
X84540110Y-113649715D01*
X84541247Y-113654761D01*
X84541248Y-113654767D01*
X84561119Y-113742939D01*
X84589222Y-113867639D01*
X84673266Y-114074616D01*
X84789987Y-114265088D01*
X84936250Y-114433938D01*
X85108126Y-114576632D01*
X85178595Y-114617811D01*
X85181445Y-114619476D01*
X85230169Y-114671114D01*
X85243240Y-114740897D01*
X85216509Y-114806669D01*
X85176055Y-114840027D01*
X85163607Y-114846507D01*
X85159474Y-114849610D01*
X85159471Y-114849612D01*
X85035567Y-114942642D01*
X84984965Y-114980635D01*
X84929513Y-115038662D01*
X84842936Y-115129260D01*
X84830629Y-115142138D01*
X84827715Y-115146410D01*
X84827714Y-115146411D01*
X84782276Y-115213021D01*
X84704743Y-115326680D01*
X84681991Y-115375695D01*
X84615668Y-115518577D01*
X84610688Y-115529305D01*
X84550989Y-115744570D01*
X84527251Y-115966695D01*
X84527548Y-115971848D01*
X84527548Y-115971851D01*
X84533011Y-116066590D01*
X84540110Y-116189715D01*
X84541247Y-116194761D01*
X84541248Y-116194767D01*
X84561119Y-116282939D01*
X84589222Y-116407639D01*
X84673266Y-116614616D01*
X84789987Y-116805088D01*
X84936250Y-116973938D01*
X85108126Y-117116632D01*
X85178595Y-117157811D01*
X85181445Y-117159476D01*
X85230169Y-117211114D01*
X85243240Y-117280897D01*
X85216509Y-117346669D01*
X85176055Y-117380027D01*
X85163607Y-117386507D01*
X85159474Y-117389610D01*
X85159471Y-117389612D01*
X84989100Y-117517530D01*
X84984965Y-117520635D01*
X84830629Y-117682138D01*
X84704743Y-117866680D01*
X84610688Y-118069305D01*
X84550989Y-118284570D01*
X84527251Y-118506695D01*
X69469916Y-118506695D01*
X69454781Y-118322604D01*
X69453096Y-118312424D01*
X69401214Y-118105875D01*
X69397894Y-118096124D01*
X69312972Y-117900814D01*
X69308105Y-117891739D01*
X69243063Y-117791197D01*
X69232377Y-117781995D01*
X69222812Y-117786398D01*
X68482022Y-118527188D01*
X68474408Y-118541132D01*
X67744356Y-118541132D01*
X67745592Y-118538868D01*
X67745461Y-118537035D01*
X67741210Y-118530420D01*
X66999849Y-117789059D01*
X66988313Y-117782759D01*
X66976031Y-117792382D01*
X66928089Y-117862662D01*
X66923004Y-117871613D01*
X66833338Y-118064783D01*
X66829775Y-118074470D01*
X66772864Y-118279681D01*
X66770933Y-118289800D01*
X66748302Y-118501574D01*
X66748050Y-118511863D01*
X63218500Y-118511863D01*
X63218500Y-117084500D01*
X63238502Y-117016379D01*
X63292158Y-116969886D01*
X63344500Y-116958500D01*
X67092168Y-116958500D01*
X67160289Y-116978502D01*
X67172653Y-116987556D01*
X67207371Y-117016379D01*
X67328126Y-117116632D01*
X67401445Y-117159476D01*
X67401955Y-117159774D01*
X67450679Y-117211412D01*
X67463750Y-117281195D01*
X67437019Y-117346967D01*
X67396562Y-117380327D01*
X67388460Y-117384544D01*
X67379734Y-117390039D01*
X67359677Y-117405099D01*
X67351223Y-117416427D01*
X67357968Y-117428758D01*
X68097188Y-118167978D01*
X68111132Y-118175592D01*
X68112965Y-118175461D01*
X68119580Y-118171210D01*
X68863389Y-117427401D01*
X68870410Y-117414544D01*
X68863611Y-117405213D01*
X68859559Y-117402521D01*
X68822602Y-117382120D01*
X68772631Y-117331687D01*
X68757859Y-117262245D01*
X68782975Y-117195839D01*
X68810327Y-117169232D01*
X68833797Y-117152491D01*
X68989860Y-117041173D01*
X69148096Y-116883489D01*
X69207594Y-116800689D01*
X69275435Y-116706277D01*
X69278453Y-116702077D01*
X69377430Y-116501811D01*
X69442370Y-116288069D01*
X69471529Y-116066590D01*
X69473156Y-116000000D01*
X69454852Y-115777361D01*
X69400431Y-115560702D01*
X69311354Y-115355840D01*
X69190014Y-115168277D01*
X69186532Y-115164450D01*
X69042798Y-115006488D01*
X69011746Y-114942642D01*
X69020141Y-114872143D01*
X69065317Y-114817375D01*
X69091761Y-114803706D01*
X69198297Y-114763767D01*
X69206705Y-114760615D01*
X69323261Y-114673261D01*
X69410615Y-114556705D01*
X69461745Y-114420316D01*
X69468500Y-114358134D01*
X69468500Y-112561866D01*
X69461745Y-112499684D01*
X69410615Y-112363295D01*
X69323261Y-112246739D01*
X69206705Y-112159385D01*
X69070316Y-112108255D01*
X69008134Y-112101500D01*
X67211866Y-112101500D01*
X67149684Y-112108255D01*
X67013295Y-112159385D01*
X66896739Y-112246739D01*
X66809385Y-112363295D01*
X66806233Y-112371703D01*
X66788228Y-112419730D01*
X66745586Y-112476495D01*
X66679024Y-112501194D01*
X66670246Y-112501500D01*
X60988604Y-112501500D01*
X60982010Y-112501327D01*
X60919317Y-112498041D01*
X60919313Y-112498041D01*
X60912936Y-112497707D01*
X60906623Y-112498662D01*
X60906618Y-112498662D01*
X60864928Y-112504968D01*
X60842865Y-112508304D01*
X60836774Y-112509074D01*
X60766273Y-112516235D01*
X60760183Y-112518143D01*
X60760175Y-112518145D01*
X60752992Y-112520396D01*
X60734167Y-112524742D01*
X60726720Y-112525869D01*
X60726718Y-112525870D01*
X60720401Y-112526825D01*
X60653879Y-112551300D01*
X60648085Y-112553272D01*
X60580459Y-112574465D01*
X60568286Y-112581213D01*
X60550708Y-112589260D01*
X60543643Y-112591859D01*
X60543639Y-112591861D01*
X60537654Y-112594063D01*
X60524631Y-112602138D01*
X60477430Y-112631404D01*
X60472126Y-112634516D01*
X60410150Y-112668870D01*
X60405307Y-112673021D01*
X60399589Y-112677922D01*
X60383987Y-112689341D01*
X60372160Y-112696674D01*
X60320654Y-112745381D01*
X60316100Y-112749481D01*
X60262302Y-112795591D01*
X60258388Y-112800637D01*
X60258384Y-112800641D01*
X60253773Y-112806585D01*
X60240796Y-112820897D01*
X60230678Y-112830466D01*
X60227020Y-112835691D01*
X60227016Y-112835695D01*
X60190026Y-112888524D01*
X60186371Y-112893481D01*
X60142954Y-112949453D01*
X60136811Y-112961938D01*
X60126976Y-112978569D01*
X60118989Y-112989975D01*
X60116454Y-112995833D01*
X60090847Y-113055008D01*
X60088265Y-113060596D01*
X60056982Y-113124171D01*
X60053473Y-113137640D01*
X60047183Y-113155910D01*
X60041655Y-113168684D01*
X60040349Y-113174934D01*
X60040349Y-113174935D01*
X60027168Y-113238027D01*
X60025763Y-113244020D01*
X60007898Y-113312607D01*
X60007564Y-113318979D01*
X60007170Y-113326498D01*
X60004680Y-113345674D01*
X60001835Y-113359293D01*
X60001500Y-113365685D01*
X60001500Y-113431396D01*
X60001327Y-113437990D01*
X60000174Y-113460000D01*
X59997707Y-113507064D01*
X59998663Y-113513383D01*
X60000083Y-113522775D01*
X60001500Y-113541616D01*
X60001500Y-155416396D01*
X60001327Y-155422990D01*
X59998261Y-155481498D01*
X59997707Y-155492064D01*
X50000000Y-155492064D01*
X50000000Y-107685170D01*
X107782160Y-107685170D01*
X107787887Y-107692820D01*
X107959042Y-107797705D01*
X107967837Y-107802187D01*
X108177988Y-107889234D01*
X108187373Y-107892283D01*
X108408554Y-107945385D01*
X108418301Y-107946928D01*
X108645070Y-107964775D01*
X108654930Y-107964775D01*
X108881699Y-107946928D01*
X108891446Y-107945385D01*
X109112627Y-107892283D01*
X109122012Y-107889234D01*
X109332163Y-107802187D01*
X109340958Y-107797705D01*
X109508445Y-107695068D01*
X109517400Y-107685170D01*
X120482160Y-107685170D01*
X120487887Y-107692820D01*
X120659042Y-107797705D01*
X120667837Y-107802187D01*
X120877988Y-107889234D01*
X120887373Y-107892283D01*
X121108554Y-107945385D01*
X121118301Y-107946928D01*
X121345070Y-107964775D01*
X121354930Y-107964775D01*
X121581699Y-107946928D01*
X121591446Y-107945385D01*
X121812627Y-107892283D01*
X121822012Y-107889234D01*
X122032163Y-107802187D01*
X122040958Y-107797705D01*
X122208445Y-107695068D01*
X122217907Y-107684610D01*
X122214124Y-107675834D01*
X121362812Y-106824522D01*
X121348868Y-106816908D01*
X121347035Y-106817039D01*
X121340420Y-106821290D01*
X120488920Y-107672790D01*
X120482160Y-107685170D01*
X109517400Y-107685170D01*
X109517907Y-107684610D01*
X109514124Y-107675834D01*
X108662812Y-106824522D01*
X108648868Y-106816908D01*
X108647035Y-106817039D01*
X108640420Y-106821290D01*
X107788920Y-107672790D01*
X107782160Y-107685170D01*
X50000000Y-107685170D01*
X50000000Y-106457430D01*
X107137725Y-106457430D01*
X107155572Y-106684199D01*
X107157115Y-106693946D01*
X107210217Y-106915127D01*
X107213266Y-106924512D01*
X107300313Y-107134663D01*
X107304795Y-107143458D01*
X107407432Y-107310945D01*
X107417890Y-107320407D01*
X107426666Y-107316624D01*
X108277978Y-106465312D01*
X108284356Y-106453632D01*
X109014408Y-106453632D01*
X109014539Y-106455465D01*
X109018790Y-106462080D01*
X109870290Y-107313580D01*
X109882670Y-107320340D01*
X109890320Y-107314613D01*
X109995205Y-107143458D01*
X109999687Y-107134663D01*
X110086734Y-106924512D01*
X110089783Y-106915127D01*
X110142885Y-106693946D01*
X110144428Y-106684199D01*
X110162275Y-106457430D01*
X119837725Y-106457430D01*
X119855572Y-106684199D01*
X119857115Y-106693946D01*
X119910217Y-106915127D01*
X119913266Y-106924512D01*
X120000313Y-107134663D01*
X120004795Y-107143458D01*
X120107432Y-107310945D01*
X120117890Y-107320407D01*
X120126666Y-107316624D01*
X120977978Y-106465312D01*
X120984356Y-106453632D01*
X121714408Y-106453632D01*
X121714539Y-106455465D01*
X121718790Y-106462080D01*
X122570290Y-107313580D01*
X122582670Y-107320340D01*
X122590320Y-107314613D01*
X122695205Y-107143458D01*
X122699687Y-107134663D01*
X122786734Y-106924512D01*
X122789783Y-106915127D01*
X122842885Y-106693946D01*
X122844428Y-106684199D01*
X122862275Y-106457430D01*
X122862275Y-106447570D01*
X122844428Y-106220801D01*
X122842885Y-106211054D01*
X122789783Y-105989873D01*
X122786734Y-105980488D01*
X122699687Y-105770337D01*
X122695205Y-105761542D01*
X122592568Y-105594055D01*
X122582110Y-105584593D01*
X122573334Y-105588376D01*
X121722022Y-106439688D01*
X121714408Y-106453632D01*
X120984356Y-106453632D01*
X120985592Y-106451368D01*
X120985461Y-106449535D01*
X120981210Y-106442920D01*
X120129710Y-105591420D01*
X120117330Y-105584660D01*
X120109680Y-105590387D01*
X120004795Y-105761542D01*
X120000313Y-105770337D01*
X119913266Y-105980488D01*
X119910217Y-105989873D01*
X119857115Y-106211054D01*
X119855572Y-106220801D01*
X119837725Y-106447570D01*
X119837725Y-106457430D01*
X110162275Y-106457430D01*
X110162275Y-106447570D01*
X110144428Y-106220801D01*
X110142885Y-106211054D01*
X110089783Y-105989873D01*
X110086734Y-105980488D01*
X109999687Y-105770337D01*
X109995205Y-105761542D01*
X109892568Y-105594055D01*
X109882110Y-105584593D01*
X109873334Y-105588376D01*
X109022022Y-106439688D01*
X109014408Y-106453632D01*
X108284356Y-106453632D01*
X108285592Y-106451368D01*
X108285461Y-106449535D01*
X108281210Y-106442920D01*
X107429710Y-105591420D01*
X107417330Y-105584660D01*
X107409680Y-105590387D01*
X107304795Y-105761542D01*
X107300313Y-105770337D01*
X107213266Y-105980488D01*
X107210217Y-105989873D01*
X107157115Y-106211054D01*
X107155572Y-106220801D01*
X107137725Y-106447570D01*
X107137725Y-106457430D01*
X50000000Y-106457430D01*
X50000000Y-105220390D01*
X107782093Y-105220390D01*
X107785876Y-105229166D01*
X108637188Y-106080478D01*
X108651132Y-106088092D01*
X108652965Y-106087961D01*
X108659580Y-106083710D01*
X109511080Y-105232210D01*
X109517534Y-105220390D01*
X120482093Y-105220390D01*
X120485876Y-105229166D01*
X121337188Y-106080478D01*
X121351132Y-106088092D01*
X121352965Y-106087961D01*
X121359580Y-106083710D01*
X122211080Y-105232210D01*
X122217840Y-105219830D01*
X122212113Y-105212180D01*
X122040958Y-105107295D01*
X122032163Y-105102813D01*
X121822012Y-105015766D01*
X121812627Y-105012717D01*
X121591446Y-104959615D01*
X121581699Y-104958072D01*
X121354930Y-104940225D01*
X121345070Y-104940225D01*
X121118301Y-104958072D01*
X121108554Y-104959615D01*
X120887373Y-105012717D01*
X120877988Y-105015766D01*
X120667837Y-105102813D01*
X120659042Y-105107295D01*
X120491555Y-105209932D01*
X120482093Y-105220390D01*
X109517534Y-105220390D01*
X109517840Y-105219830D01*
X109512113Y-105212180D01*
X109340958Y-105107295D01*
X109332163Y-105102813D01*
X109122012Y-105015766D01*
X109112627Y-105012717D01*
X108891446Y-104959615D01*
X108881699Y-104958072D01*
X108654930Y-104940225D01*
X108645070Y-104940225D01*
X108418301Y-104958072D01*
X108408554Y-104959615D01*
X108187373Y-105012717D01*
X108177988Y-105015766D01*
X107967837Y-105102813D01*
X107959042Y-105107295D01*
X107791555Y-105209932D01*
X107782093Y-105220390D01*
X50000000Y-105220390D01*
X50000000Y-98126000D01*
X50020002Y-98057879D01*
X50073658Y-98011386D01*
X50126000Y-98000000D01*
X172874000Y-98000000D01*
X172942121Y-98020002D01*
G37*
%TD.AperFunction*%
%TA.AperFunction,Conductor*%
G36*
X112713621Y-134403502D02*
G01*
X112760114Y-134457158D01*
X112771500Y-134509500D01*
X112771500Y-136090037D01*
X112751498Y-136158158D01*
X112697842Y-136204651D01*
X112627568Y-136214755D01*
X112573275Y-136190484D01*
X112572038Y-136192251D01*
X112391654Y-136065944D01*
X112192076Y-135972880D01*
X111979371Y-135915885D01*
X111760000Y-135896693D01*
X111540629Y-135915885D01*
X111327924Y-135972880D01*
X111272242Y-135998845D01*
X111133334Y-136063618D01*
X111133329Y-136063621D01*
X111128347Y-136065944D01*
X111123840Y-136069100D01*
X111123838Y-136069101D01*
X110952473Y-136189092D01*
X110952470Y-136189094D01*
X110947962Y-136192251D01*
X110792251Y-136347962D01*
X110789094Y-136352470D01*
X110789092Y-136352473D01*
X110675561Y-136514612D01*
X110665944Y-136528347D01*
X110663621Y-136533329D01*
X110663618Y-136533334D01*
X110616415Y-136634562D01*
X110572880Y-136727924D01*
X110515885Y-136940629D01*
X110515406Y-136946107D01*
X110515404Y-136946117D01*
X110509789Y-137010289D01*
X110483926Y-137076407D01*
X110470848Y-137090849D01*
X110460678Y-137100466D01*
X110427624Y-137147672D01*
X110422084Y-137154998D01*
X110385672Y-137199643D01*
X110382715Y-137205300D01*
X110382714Y-137205301D01*
X110373059Y-137223770D01*
X110364609Y-137237668D01*
X110348989Y-137259975D01*
X110346455Y-137265831D01*
X110326117Y-137312828D01*
X110322142Y-137321162D01*
X110295456Y-137372208D01*
X110287948Y-137398394D01*
X110282472Y-137413688D01*
X110271655Y-137438684D01*
X110270350Y-137444929D01*
X110270350Y-137444930D01*
X110259876Y-137495065D01*
X110257661Y-137504015D01*
X110241784Y-137559389D01*
X110241295Y-137565750D01*
X110239695Y-137586541D01*
X110237405Y-137602633D01*
X110231835Y-137629293D01*
X110231500Y-137635685D01*
X110231500Y-137688197D01*
X110231129Y-137697864D01*
X110228279Y-137734908D01*
X110226845Y-137753539D01*
X110227645Y-137759871D01*
X110230506Y-137782519D01*
X110231500Y-137798311D01*
X110231500Y-139073559D01*
X110211498Y-139141680D01*
X110196594Y-139160610D01*
X110147609Y-139211870D01*
X110130629Y-139229638D01*
X110127720Y-139233903D01*
X110127714Y-139233911D01*
X110086059Y-139294975D01*
X110004743Y-139414180D01*
X109989003Y-139448090D01*
X109950202Y-139531680D01*
X109910688Y-139616805D01*
X109850989Y-139832070D01*
X109827251Y-140054195D01*
X109827548Y-140059348D01*
X109827548Y-140059351D01*
X109833011Y-140154090D01*
X109840110Y-140277215D01*
X109841247Y-140282261D01*
X109841248Y-140282267D01*
X109861119Y-140370439D01*
X109889222Y-140495139D01*
X109973266Y-140702116D01*
X110024019Y-140784938D01*
X110087291Y-140888188D01*
X110089987Y-140892588D01*
X110236250Y-141061438D01*
X110240225Y-141064738D01*
X110240231Y-141064744D01*
X110245425Y-141069056D01*
X110285059Y-141127960D01*
X110286555Y-141198941D01*
X110249439Y-141259462D01*
X110209168Y-141283980D01*
X110101946Y-141324176D01*
X110086351Y-141332714D01*
X109984276Y-141409215D01*
X109971715Y-141421776D01*
X109895214Y-141523851D01*
X109886676Y-141539446D01*
X109841522Y-141659894D01*
X109837895Y-141675149D01*
X109832369Y-141726014D01*
X109832000Y-141732828D01*
X109832000Y-142355385D01*
X109836475Y-142370624D01*
X109837865Y-142371829D01*
X109845548Y-142373500D01*
X111318000Y-142373500D01*
X111386121Y-142393502D01*
X111432614Y-142447158D01*
X111444000Y-142499500D01*
X111444000Y-142755500D01*
X111423998Y-142823621D01*
X111370342Y-142870114D01*
X111318000Y-142881500D01*
X109850116Y-142881500D01*
X109834877Y-142885975D01*
X109833672Y-142887365D01*
X109832001Y-142895048D01*
X109832001Y-143522169D01*
X109832371Y-143528990D01*
X109837895Y-143579852D01*
X109841521Y-143595103D01*
X109862577Y-143651270D01*
X109867760Y-143722077D01*
X109833839Y-143784446D01*
X109771584Y-143818576D01*
X109744595Y-143821500D01*
X105224500Y-143821500D01*
X105156379Y-143801498D01*
X105109886Y-143747842D01*
X105098500Y-143695500D01*
X105098500Y-137693604D01*
X105098673Y-137687010D01*
X105101959Y-137624317D01*
X105101959Y-137624313D01*
X105102293Y-137617936D01*
X105101338Y-137611623D01*
X105101338Y-137611618D01*
X105095032Y-137569928D01*
X105091696Y-137547865D01*
X105090925Y-137541766D01*
X105083765Y-137471273D01*
X105081857Y-137465183D01*
X105081855Y-137465175D01*
X105079604Y-137457992D01*
X105075258Y-137439167D01*
X105074131Y-137431720D01*
X105074130Y-137431718D01*
X105073175Y-137425401D01*
X105048700Y-137358879D01*
X105046724Y-137353074D01*
X105040627Y-137333618D01*
X105025535Y-137285459D01*
X105018787Y-137273286D01*
X105010740Y-137255708D01*
X105008141Y-137248643D01*
X105008139Y-137248639D01*
X105005937Y-137242654D01*
X104968592Y-137182423D01*
X104965480Y-137177119D01*
X104953232Y-137155022D01*
X104931130Y-137115150D01*
X104922078Y-137104589D01*
X104910659Y-137088987D01*
X104906688Y-137082583D01*
X104903326Y-137077160D01*
X104854619Y-137025654D01*
X104850511Y-137021091D01*
X104850296Y-137020840D01*
X104804409Y-136967302D01*
X104799363Y-136963388D01*
X104799359Y-136963384D01*
X104793415Y-136958773D01*
X104779103Y-136945796D01*
X104769534Y-136935678D01*
X104764309Y-136932020D01*
X104764305Y-136932016D01*
X104711476Y-136895026D01*
X104706519Y-136891371D01*
X104655590Y-136851866D01*
X104650547Y-136847954D01*
X104638062Y-136841811D01*
X104621431Y-136831976D01*
X104610025Y-136823989D01*
X104544989Y-136795846D01*
X104539402Y-136793264D01*
X104481558Y-136764801D01*
X104475829Y-136761982D01*
X104462360Y-136758473D01*
X104444090Y-136752183D01*
X104431316Y-136746655D01*
X104425065Y-136745349D01*
X104361973Y-136732168D01*
X104355980Y-136730763D01*
X104293564Y-136714505D01*
X104293560Y-136714504D01*
X104287393Y-136712898D01*
X104273500Y-136712170D01*
X104254326Y-136709680D01*
X104245442Y-136707824D01*
X104245440Y-136707824D01*
X104240707Y-136706835D01*
X104234315Y-136706500D01*
X104168604Y-136706500D01*
X104162010Y-136706327D01*
X104099317Y-136703041D01*
X104099313Y-136703041D01*
X104092936Y-136702707D01*
X104078821Y-136704842D01*
X104077225Y-136705083D01*
X104058384Y-136706500D01*
X95639913Y-136706500D01*
X95571792Y-136686498D01*
X95553981Y-136672651D01*
X95553154Y-136671880D01*
X95549670Y-136668051D01*
X95379090Y-136533334D01*
X95378414Y-136532800D01*
X95378410Y-136532798D01*
X95374359Y-136529598D01*
X95178789Y-136421638D01*
X95173920Y-136419914D01*
X95173916Y-136419912D01*
X94973087Y-136348795D01*
X94973083Y-136348794D01*
X94968212Y-136347069D01*
X94963119Y-136346162D01*
X94963116Y-136346161D01*
X94753373Y-136308800D01*
X94753367Y-136308799D01*
X94748284Y-136307894D01*
X94674452Y-136306992D01*
X94530081Y-136305228D01*
X94530079Y-136305228D01*
X94524911Y-136305165D01*
X94304091Y-136338955D01*
X94091756Y-136408357D01*
X93893607Y-136511507D01*
X93889474Y-136514610D01*
X93889471Y-136514612D01*
X93865247Y-136532800D01*
X93714965Y-136645635D01*
X93659512Y-136703663D01*
X93607132Y-136758476D01*
X93560629Y-136807138D01*
X93557715Y-136811410D01*
X93557714Y-136811411D01*
X93500676Y-136895026D01*
X93434743Y-136991680D01*
X93403974Y-137057967D01*
X93344819Y-137185406D01*
X93340688Y-137194305D01*
X93280989Y-137409570D01*
X93257251Y-137631695D01*
X93257548Y-137636848D01*
X93257548Y-137636851D01*
X93264276Y-137753539D01*
X93270110Y-137854715D01*
X93271247Y-137859761D01*
X93271248Y-137859767D01*
X93282469Y-137909555D01*
X93319222Y-138072639D01*
X93403266Y-138279616D01*
X93405965Y-138284020D01*
X93490926Y-138422665D01*
X93509464Y-138491199D01*
X93488007Y-138558876D01*
X93433368Y-138604209D01*
X93383493Y-138614500D01*
X87744671Y-138614500D01*
X87676550Y-138594498D01*
X87630057Y-138540842D01*
X87619150Y-138477519D01*
X87622828Y-138435475D01*
X87623307Y-138430000D01*
X87604115Y-138210629D01*
X87547120Y-137997924D01*
X87477931Y-137849547D01*
X87456382Y-137803334D01*
X87456379Y-137803329D01*
X87454056Y-137798347D01*
X87409636Y-137734908D01*
X87330908Y-137622473D01*
X87330906Y-137622470D01*
X87327749Y-137617962D01*
X87172038Y-137462251D01*
X87147302Y-137444930D01*
X87035372Y-137366556D01*
X86991654Y-137335944D01*
X86792076Y-137242880D01*
X86579371Y-137185885D01*
X86360000Y-137166693D01*
X86140629Y-137185885D01*
X85927924Y-137242880D01*
X85862701Y-137273294D01*
X85733334Y-137333618D01*
X85733329Y-137333621D01*
X85728347Y-137335944D01*
X85723840Y-137339100D01*
X85723838Y-137339101D01*
X85552473Y-137459092D01*
X85552470Y-137459094D01*
X85547962Y-137462251D01*
X85392251Y-137617962D01*
X85389094Y-137622470D01*
X85389092Y-137622473D01*
X85310364Y-137734908D01*
X85265944Y-137798347D01*
X85263621Y-137803329D01*
X85263618Y-137803334D01*
X85242069Y-137849547D01*
X85172880Y-137997924D01*
X85115885Y-138210629D01*
X85096693Y-138430000D01*
X85115885Y-138649371D01*
X85172880Y-138862076D01*
X85175205Y-138867061D01*
X85263618Y-139056666D01*
X85263621Y-139056671D01*
X85265944Y-139061653D01*
X85269100Y-139066160D01*
X85269101Y-139066162D01*
X85378713Y-139222704D01*
X85401500Y-139294975D01*
X85401500Y-139430451D01*
X85401451Y-139433969D01*
X85399144Y-139516561D01*
X85400253Y-139522850D01*
X85409146Y-139573287D01*
X85410415Y-139582432D01*
X85416235Y-139639727D01*
X85424380Y-139665717D01*
X85428230Y-139681512D01*
X85432958Y-139708327D01*
X85441385Y-139729610D01*
X85446336Y-139742116D01*
X85452815Y-139812817D01*
X85420043Y-139875797D01*
X85358423Y-139911060D01*
X85329184Y-139914500D01*
X80806071Y-139914500D01*
X80737950Y-139894498D01*
X80691457Y-139840842D01*
X80683867Y-139819194D01*
X80671691Y-139770717D01*
X80671690Y-139770713D01*
X80670431Y-139765702D01*
X80581354Y-139560840D01*
X80502527Y-139438992D01*
X80462822Y-139377617D01*
X80462820Y-139377614D01*
X80460014Y-139373277D01*
X80309670Y-139208051D01*
X80305619Y-139204852D01*
X80305615Y-139204848D01*
X80138414Y-139072800D01*
X80138410Y-139072798D01*
X80134359Y-139069598D01*
X80093053Y-139046796D01*
X80043084Y-138996364D01*
X80028312Y-138926921D01*
X80053428Y-138860516D01*
X80080780Y-138833909D01*
X80124603Y-138802650D01*
X80259860Y-138706173D01*
X80418096Y-138548489D01*
X80503239Y-138430000D01*
X80545435Y-138371277D01*
X80548453Y-138367077D01*
X80558317Y-138347120D01*
X80645136Y-138171453D01*
X80645137Y-138171451D01*
X80647430Y-138166811D01*
X80712370Y-137953069D01*
X80741529Y-137731590D01*
X80743156Y-137665000D01*
X80724852Y-137442361D01*
X80670431Y-137225702D01*
X80581354Y-137020840D01*
X80469509Y-136847954D01*
X80462822Y-136837617D01*
X80462820Y-136837614D01*
X80460014Y-136833277D01*
X80309670Y-136668051D01*
X80305619Y-136664852D01*
X80305615Y-136664848D01*
X80138414Y-136532800D01*
X80138410Y-136532798D01*
X80134359Y-136529598D01*
X80093053Y-136506796D01*
X80043084Y-136456364D01*
X80028312Y-136386921D01*
X80053428Y-136320516D01*
X80080780Y-136293909D01*
X80191750Y-136214755D01*
X80259860Y-136166173D01*
X80418096Y-136008489D01*
X80548453Y-135827077D01*
X80647430Y-135626811D01*
X80712370Y-135413069D01*
X80741529Y-135191590D01*
X80743156Y-135125000D01*
X80724852Y-134902361D01*
X80670431Y-134685702D01*
X80615662Y-134559742D01*
X80606841Y-134489296D01*
X80637508Y-134425264D01*
X80697924Y-134387976D01*
X80731211Y-134383500D01*
X112645500Y-134383500D01*
X112713621Y-134403502D01*
G37*
%TD.AperFunction*%
%TD*%
%TA.AperFunction,NonConductor*%
G36*
X66738367Y-114438502D02*
G01*
X66784860Y-114492158D01*
X66788228Y-114500270D01*
X66804810Y-114544500D01*
X66809385Y-114556705D01*
X66896739Y-114673261D01*
X67013295Y-114760615D01*
X67021704Y-114763767D01*
X67021705Y-114763768D01*
X67111733Y-114797518D01*
X67168498Y-114840159D01*
X67193198Y-114906721D01*
X67177991Y-114976070D01*
X67127705Y-115026188D01*
X67067504Y-115041500D01*
X62288604Y-115041500D01*
X62282010Y-115041327D01*
X62219317Y-115038041D01*
X62219313Y-115038041D01*
X62212936Y-115037707D01*
X62206623Y-115038662D01*
X62206618Y-115038662D01*
X62164928Y-115044968D01*
X62142865Y-115048304D01*
X62136774Y-115049074D01*
X62112191Y-115051571D01*
X62072630Y-115055589D01*
X62072627Y-115055590D01*
X62066992Y-115056162D01*
X62066272Y-115056235D01*
X62066234Y-115055862D01*
X61999089Y-115050268D01*
X61942755Y-115007059D01*
X61918724Y-114940253D01*
X61918500Y-114932736D01*
X61918500Y-114544500D01*
X61938502Y-114476379D01*
X61992158Y-114429886D01*
X62044500Y-114418500D01*
X66670246Y-114418500D01*
X66738367Y-114438502D01*
G37*
%TD.AperFunction*%
%TA.AperFunction,NonConductor*%
G36*
X162873621Y-111468502D02*
G01*
X162920114Y-111522158D01*
X162931500Y-111574500D01*
X162931500Y-112446059D01*
X162911498Y-112514180D01*
X162896594Y-112533110D01*
X162842936Y-112589260D01*
X162830629Y-112602138D01*
X162827715Y-112606410D01*
X162827714Y-112606411D01*
X162782276Y-112673021D01*
X162704743Y-112786680D01*
X162681991Y-112835695D01*
X162615668Y-112978577D01*
X162610688Y-112989305D01*
X162550989Y-113204570D01*
X162527251Y-113426695D01*
X162527548Y-113431848D01*
X162527548Y-113431851D01*
X162533011Y-113526590D01*
X162540110Y-113649715D01*
X162541247Y-113654761D01*
X162541248Y-113654767D01*
X162561119Y-113742939D01*
X162589222Y-113867639D01*
X162673266Y-114074616D01*
X162789987Y-114265088D01*
X162936250Y-114433938D01*
X163108126Y-114576632D01*
X163178595Y-114617811D01*
X163181445Y-114619476D01*
X163230169Y-114671114D01*
X163243240Y-114740897D01*
X163216509Y-114806669D01*
X163176055Y-114840027D01*
X163163607Y-114846507D01*
X163159474Y-114849610D01*
X163159471Y-114849612D01*
X163035567Y-114942642D01*
X162984965Y-114980635D01*
X162981394Y-114984372D01*
X162964023Y-115002550D01*
X162902499Y-115037981D01*
X162872928Y-115041500D01*
X154968604Y-115041500D01*
X154962010Y-115041327D01*
X154899317Y-115038041D01*
X154899313Y-115038041D01*
X154892936Y-115037707D01*
X154886623Y-115038662D01*
X154886618Y-115038662D01*
X154844928Y-115044968D01*
X154822865Y-115048304D01*
X154816774Y-115049074D01*
X154746273Y-115056235D01*
X154740183Y-115058143D01*
X154740175Y-115058145D01*
X154732992Y-115060396D01*
X154714167Y-115064742D01*
X154706720Y-115065869D01*
X154706718Y-115065870D01*
X154700401Y-115066825D01*
X154633879Y-115091300D01*
X154628085Y-115093272D01*
X154560459Y-115114465D01*
X154548286Y-115121213D01*
X154530708Y-115129260D01*
X154523643Y-115131859D01*
X154523639Y-115131861D01*
X154517654Y-115134063D01*
X154468646Y-115164450D01*
X154457430Y-115171404D01*
X154452126Y-115174516D01*
X154390150Y-115208870D01*
X154385307Y-115213021D01*
X154379589Y-115217922D01*
X154363987Y-115229341D01*
X154352160Y-115236674D01*
X154300654Y-115285381D01*
X154296100Y-115289481D01*
X154242302Y-115335591D01*
X154238388Y-115340637D01*
X154238384Y-115340641D01*
X154233773Y-115346585D01*
X154220796Y-115360897D01*
X154210678Y-115370466D01*
X154207020Y-115375691D01*
X154207016Y-115375695D01*
X154170026Y-115428524D01*
X154166371Y-115433481D01*
X154122954Y-115489453D01*
X154116811Y-115501938D01*
X154106976Y-115518569D01*
X154098989Y-115529975D01*
X154096454Y-115535833D01*
X154070847Y-115595008D01*
X154068265Y-115600596D01*
X154036982Y-115664171D01*
X154033473Y-115677640D01*
X154027183Y-115695910D01*
X154021655Y-115708684D01*
X154020349Y-115714934D01*
X154020349Y-115714935D01*
X154007168Y-115778027D01*
X154005763Y-115784020D01*
X153987898Y-115852607D01*
X153987564Y-115858979D01*
X153987170Y-115866498D01*
X153984680Y-115885674D01*
X153981835Y-115899293D01*
X153981500Y-115905685D01*
X153981500Y-115971396D01*
X153981327Y-115977990D01*
X153980174Y-116000000D01*
X153977707Y-116047064D01*
X153978663Y-116053383D01*
X153980083Y-116062775D01*
X153981500Y-116081616D01*
X153981500Y-136075500D01*
X153961498Y-136143621D01*
X153907842Y-136190114D01*
X153855500Y-136201500D01*
X118974975Y-136201500D01*
X118902704Y-136178713D01*
X118872692Y-136157699D01*
X118741654Y-136065944D01*
X118542076Y-135972880D01*
X118329371Y-135915885D01*
X118110000Y-135896693D01*
X117890629Y-135915885D01*
X117677924Y-135972880D01*
X117622242Y-135998845D01*
X117483334Y-136063618D01*
X117483329Y-136063621D01*
X117478347Y-136065944D01*
X117464700Y-136075500D01*
X117426771Y-136102058D01*
X117359497Y-136124746D01*
X117290636Y-136107461D01*
X117242052Y-136055691D01*
X117228500Y-135998845D01*
X117228500Y-132153604D01*
X117228673Y-132147010D01*
X117231959Y-132084317D01*
X117231959Y-132084313D01*
X117232293Y-132077936D01*
X117231338Y-132071623D01*
X117231338Y-132071618D01*
X117221697Y-132007876D01*
X117220925Y-132001766D01*
X117214411Y-131937630D01*
X117214410Y-131937627D01*
X117213765Y-131931273D01*
X117213765Y-131931272D01*
X117214138Y-131931234D01*
X117219732Y-131864089D01*
X117262941Y-131807755D01*
X117329747Y-131783724D01*
X117337264Y-131783500D01*
X143479451Y-131783500D01*
X143482969Y-131783549D01*
X143559179Y-131785678D01*
X143559182Y-131785678D01*
X143565561Y-131785856D01*
X143579200Y-131783451D01*
X143622287Y-131775854D01*
X143631432Y-131774585D01*
X143643220Y-131773387D01*
X143688727Y-131768765D01*
X143714717Y-131760620D01*
X143730512Y-131756770D01*
X143751040Y-131753151D01*
X143751044Y-131753150D01*
X143757327Y-131752042D01*
X143763262Y-131749692D01*
X143763266Y-131749691D01*
X143810875Y-131730841D01*
X143819562Y-131727764D01*
X143874541Y-131710535D01*
X143898364Y-131697330D01*
X143913066Y-131690380D01*
X143932437Y-131682711D01*
X143932442Y-131682709D01*
X143938376Y-131680359D01*
X143986566Y-131648824D01*
X143994470Y-131644056D01*
X144039270Y-131619223D01*
X144044850Y-131616130D01*
X144049983Y-131611730D01*
X144065526Y-131598409D01*
X144078527Y-131588648D01*
X144097261Y-131576388D01*
X144101314Y-131573736D01*
X144106071Y-131569453D01*
X144143206Y-131532318D01*
X144150304Y-131525745D01*
X144192698Y-131489409D01*
X144203597Y-131475357D01*
X144216585Y-131461035D01*
X144234681Y-131443923D01*
X144234682Y-131443921D01*
X144239322Y-131439534D01*
X144272376Y-131392328D01*
X144277916Y-131385002D01*
X144314328Y-131340357D01*
X144326941Y-131316230D01*
X144335391Y-131302332D01*
X144347350Y-131285253D01*
X144351011Y-131280025D01*
X144373883Y-131227172D01*
X144377858Y-131218838D01*
X144401589Y-131173444D01*
X144404544Y-131167792D01*
X144412052Y-131141606D01*
X144417528Y-131126312D01*
X144428345Y-131101316D01*
X144440124Y-131044935D01*
X144442341Y-131035975D01*
X144458216Y-130980611D01*
X144460305Y-130953456D01*
X144462595Y-130937367D01*
X144468165Y-130910707D01*
X144468500Y-130904315D01*
X144468500Y-130851803D01*
X144468871Y-130842136D01*
X144472666Y-130792821D01*
X144472666Y-130792817D01*
X144473155Y-130786461D01*
X144469494Y-130757480D01*
X144468500Y-130741689D01*
X144468500Y-117084500D01*
X144488502Y-117016379D01*
X144542158Y-116969886D01*
X144594500Y-116958500D01*
X145092168Y-116958500D01*
X145160289Y-116978502D01*
X145172653Y-116987556D01*
X145207371Y-117016379D01*
X145328126Y-117116632D01*
X145398595Y-117157811D01*
X145401445Y-117159476D01*
X145450169Y-117211114D01*
X145463240Y-117280897D01*
X145436509Y-117346669D01*
X145396055Y-117380027D01*
X145383607Y-117386507D01*
X145379474Y-117389610D01*
X145379471Y-117389612D01*
X145209100Y-117517530D01*
X145204965Y-117520635D01*
X145050629Y-117682138D01*
X144924743Y-117866680D01*
X144830688Y-118069305D01*
X144770989Y-118284570D01*
X144747251Y-118506695D01*
X144747548Y-118511848D01*
X144747548Y-118511851D01*
X144753011Y-118606590D01*
X144760110Y-118729715D01*
X144761247Y-118734761D01*
X144761248Y-118734767D01*
X144781119Y-118822939D01*
X144809222Y-118947639D01*
X144893266Y-119154616D01*
X145009987Y-119345088D01*
X145081062Y-119427138D01*
X145120737Y-119472940D01*
X145150220Y-119537525D01*
X145151500Y-119555438D01*
X145151500Y-122256523D01*
X145131498Y-122324644D01*
X145114595Y-122345618D01*
X145082251Y-122377962D01*
X145079094Y-122382470D01*
X145079092Y-122382473D01*
X145031500Y-122450442D01*
X144955944Y-122558347D01*
X144953621Y-122563329D01*
X144953618Y-122563334D01*
X144906415Y-122664562D01*
X144862880Y-122757924D01*
X144805885Y-122970629D01*
X144786693Y-123190000D01*
X144805885Y-123409371D01*
X144862880Y-123622076D01*
X144865205Y-123627061D01*
X144953618Y-123816666D01*
X144953621Y-123816671D01*
X144955944Y-123821653D01*
X145082251Y-124002038D01*
X145237962Y-124157749D01*
X145418346Y-124284056D01*
X145617924Y-124377120D01*
X145830629Y-124434115D01*
X146050000Y-124453307D01*
X146269371Y-124434115D01*
X146482076Y-124377120D01*
X146681654Y-124284056D01*
X146862038Y-124157749D01*
X147017749Y-124002038D01*
X147144056Y-123821653D01*
X147146379Y-123816671D01*
X147146382Y-123816666D01*
X147234795Y-123627061D01*
X147237120Y-123622076D01*
X147294115Y-123409371D01*
X147313307Y-123190000D01*
X147294115Y-122970629D01*
X147237120Y-122757924D01*
X147193585Y-122664562D01*
X147146382Y-122563334D01*
X147146379Y-122563329D01*
X147144056Y-122558347D01*
X147091287Y-122482985D01*
X147068500Y-122410714D01*
X147068500Y-119555126D01*
X147088502Y-119487005D01*
X147105555Y-119465881D01*
X147148096Y-119423489D01*
X147151112Y-119419291D01*
X147151116Y-119419287D01*
X147275435Y-119246277D01*
X147278453Y-119242077D01*
X147280874Y-119237180D01*
X147375136Y-119046453D01*
X147375137Y-119046451D01*
X147377430Y-119041811D01*
X147442370Y-118828069D01*
X147471529Y-118606590D01*
X147473156Y-118540000D01*
X147454852Y-118317361D01*
X147400431Y-118100702D01*
X147311354Y-117895840D01*
X147190014Y-117708277D01*
X147039670Y-117543051D01*
X147035619Y-117539852D01*
X147035615Y-117539848D01*
X146868414Y-117407800D01*
X146868410Y-117407798D01*
X146864359Y-117404598D01*
X146823053Y-117381796D01*
X146773084Y-117331364D01*
X146758312Y-117261921D01*
X146783428Y-117195516D01*
X146810780Y-117168909D01*
X146854603Y-117137650D01*
X146989860Y-117041173D01*
X147148096Y-116883489D01*
X147207594Y-116800689D01*
X147275435Y-116706277D01*
X147278453Y-116702077D01*
X147377430Y-116501811D01*
X147442370Y-116288069D01*
X147471529Y-116066590D01*
X147473156Y-116000000D01*
X147454852Y-115777361D01*
X147400431Y-115560702D01*
X147311354Y-115355840D01*
X147190014Y-115168277D01*
X147186532Y-115164450D01*
X147042798Y-115006488D01*
X147011746Y-114942642D01*
X147020141Y-114872143D01*
X147065317Y-114817375D01*
X147091761Y-114803706D01*
X147198297Y-114763767D01*
X147206705Y-114760615D01*
X147323261Y-114673261D01*
X147410615Y-114556705D01*
X147461745Y-114420316D01*
X147468500Y-114358134D01*
X147468500Y-112561866D01*
X147461745Y-112499684D01*
X147410615Y-112363295D01*
X147323261Y-112246739D01*
X147206705Y-112159385D01*
X147070316Y-112108255D01*
X147008134Y-112101500D01*
X145211866Y-112101500D01*
X145149684Y-112108255D01*
X145013295Y-112159385D01*
X144896739Y-112246739D01*
X144809385Y-112363295D01*
X144758255Y-112499684D01*
X144751500Y-112561866D01*
X144751500Y-114358134D01*
X144758255Y-114420316D01*
X144809385Y-114556705D01*
X144896739Y-114673261D01*
X145013295Y-114760615D01*
X145021704Y-114763767D01*
X145021705Y-114763768D01*
X145111733Y-114797518D01*
X145168498Y-114840159D01*
X145193198Y-114906721D01*
X145177991Y-114976070D01*
X145127705Y-115026188D01*
X145067504Y-115041500D01*
X143538604Y-115041500D01*
X143532010Y-115041327D01*
X143469317Y-115038041D01*
X143469313Y-115038041D01*
X143462936Y-115037707D01*
X143456623Y-115038662D01*
X143456618Y-115038662D01*
X143414928Y-115044968D01*
X143392865Y-115048304D01*
X143386774Y-115049074D01*
X143316273Y-115056235D01*
X143310183Y-115058143D01*
X143310175Y-115058145D01*
X143302992Y-115060396D01*
X143284167Y-115064742D01*
X143276720Y-115065869D01*
X143276718Y-115065870D01*
X143270401Y-115066825D01*
X143203879Y-115091300D01*
X143198085Y-115093272D01*
X143130459Y-115114465D01*
X143118286Y-115121213D01*
X143100708Y-115129260D01*
X143093643Y-115131859D01*
X143093639Y-115131861D01*
X143087654Y-115134063D01*
X143038646Y-115164450D01*
X143027430Y-115171404D01*
X143022126Y-115174516D01*
X142960150Y-115208870D01*
X142955307Y-115213021D01*
X142949589Y-115217922D01*
X142933987Y-115229341D01*
X142922160Y-115236674D01*
X142870654Y-115285381D01*
X142866100Y-115289481D01*
X142812302Y-115335591D01*
X142808388Y-115340637D01*
X142808384Y-115340641D01*
X142803773Y-115346585D01*
X142790796Y-115360897D01*
X142780678Y-115370466D01*
X142777020Y-115375691D01*
X142777016Y-115375695D01*
X142740026Y-115428524D01*
X142736371Y-115433481D01*
X142692954Y-115489453D01*
X142686811Y-115501938D01*
X142676976Y-115518569D01*
X142668989Y-115529975D01*
X142666454Y-115535833D01*
X142640847Y-115595008D01*
X142638265Y-115600596D01*
X142606982Y-115664171D01*
X142603473Y-115677640D01*
X142597183Y-115695910D01*
X142591655Y-115708684D01*
X142590349Y-115714934D01*
X142590349Y-115714935D01*
X142577168Y-115778027D01*
X142575763Y-115784020D01*
X142557898Y-115852607D01*
X142557564Y-115858979D01*
X142557170Y-115866498D01*
X142554680Y-115885674D01*
X142551835Y-115899293D01*
X142551500Y-115905685D01*
X142551500Y-115971396D01*
X142551327Y-115977990D01*
X142550174Y-116000000D01*
X142547707Y-116047064D01*
X142548663Y-116053383D01*
X142550083Y-116062775D01*
X142551500Y-116081616D01*
X142551500Y-129740500D01*
X142531498Y-129808621D01*
X142477842Y-129855114D01*
X142425500Y-129866500D01*
X142034567Y-129866500D01*
X141966446Y-129846498D01*
X141919953Y-129792842D01*
X141909849Y-129722568D01*
X141912635Y-129708741D01*
X141920494Y-129678567D01*
X141920494Y-129678565D01*
X141922102Y-129672393D01*
X141922830Y-129658500D01*
X141925320Y-129639326D01*
X141927176Y-129630442D01*
X141927176Y-129630440D01*
X141928165Y-129625707D01*
X141928500Y-129619315D01*
X141928500Y-129553604D01*
X141928673Y-129547010D01*
X141931959Y-129484317D01*
X141931959Y-129484313D01*
X141932293Y-129477936D01*
X141929917Y-129462225D01*
X141928500Y-129443384D01*
X141928500Y-124054975D01*
X141951287Y-123982704D01*
X142060899Y-123826162D01*
X142060900Y-123826160D01*
X142064056Y-123821653D01*
X142066379Y-123816671D01*
X142066382Y-123816666D01*
X142154795Y-123627061D01*
X142157120Y-123622076D01*
X142214115Y-123409371D01*
X142233307Y-123190000D01*
X142214115Y-122970629D01*
X142157120Y-122757924D01*
X142113585Y-122664562D01*
X142066382Y-122563334D01*
X142066379Y-122563329D01*
X142064056Y-122558347D01*
X141988500Y-122450442D01*
X141940908Y-122382473D01*
X141940906Y-122382470D01*
X141937749Y-122377962D01*
X141782038Y-122222251D01*
X141601654Y-122095944D01*
X141402076Y-122002880D01*
X141189371Y-121945885D01*
X140970000Y-121926693D01*
X140750629Y-121945885D01*
X140537924Y-122002880D01*
X140444562Y-122046415D01*
X140343334Y-122093618D01*
X140343329Y-122093621D01*
X140338347Y-122095944D01*
X140333840Y-122099100D01*
X140333838Y-122099101D01*
X140162473Y-122219092D01*
X140162470Y-122219094D01*
X140157962Y-122222251D01*
X140002251Y-122377962D01*
X139999094Y-122382470D01*
X139999092Y-122382473D01*
X139951500Y-122450442D01*
X139875944Y-122558347D01*
X139873621Y-122563329D01*
X139873618Y-122563334D01*
X139826415Y-122664562D01*
X139782880Y-122757924D01*
X139725885Y-122970629D01*
X139706693Y-123190000D01*
X139725885Y-123409371D01*
X139782880Y-123622076D01*
X139785205Y-123627061D01*
X139873618Y-123816666D01*
X139873621Y-123816671D01*
X139875944Y-123821653D01*
X139879100Y-123826160D01*
X139879101Y-123826162D01*
X139988713Y-123982704D01*
X140011500Y-124054975D01*
X140011500Y-128440500D01*
X139991498Y-128508621D01*
X139937842Y-128555114D01*
X139885500Y-128566500D01*
X139494567Y-128566500D01*
X139426446Y-128546498D01*
X139379953Y-128492842D01*
X139369849Y-128422568D01*
X139372635Y-128408741D01*
X139380494Y-128378567D01*
X139380494Y-128378565D01*
X139382102Y-128372393D01*
X139382830Y-128358500D01*
X139385320Y-128339326D01*
X139387176Y-128330442D01*
X139387176Y-128330440D01*
X139388165Y-128325707D01*
X139388500Y-128319315D01*
X139388500Y-128253604D01*
X139388673Y-128247010D01*
X139391959Y-128184317D01*
X139391959Y-128184313D01*
X139392293Y-128177936D01*
X139389917Y-128162225D01*
X139388500Y-128143384D01*
X139388500Y-111574500D01*
X139408502Y-111506379D01*
X139462158Y-111459886D01*
X139514500Y-111448500D01*
X162805500Y-111448500D01*
X162873621Y-111468502D01*
G37*
%TD.AperFunction*%
%TA.AperFunction,NonConductor*%
G36*
X115253621Y-133103502D02*
G01*
X115300114Y-133157158D01*
X115311500Y-133209500D01*
X115311500Y-139073559D01*
X115291498Y-139141680D01*
X115276594Y-139160610D01*
X115227609Y-139211870D01*
X115210629Y-139229638D01*
X115103201Y-139387121D01*
X115048293Y-139432121D01*
X114977768Y-139440292D01*
X114914021Y-139409038D01*
X114893324Y-139384554D01*
X114812824Y-139260120D01*
X114812822Y-139260117D01*
X114810014Y-139255777D01*
X114721306Y-139158288D01*
X114690254Y-139094443D01*
X114688500Y-139073489D01*
X114688500Y-133453604D01*
X114688673Y-133447010D01*
X114691959Y-133384317D01*
X114691959Y-133384313D01*
X114692293Y-133377936D01*
X114691338Y-133371623D01*
X114691338Y-133371618D01*
X114681697Y-133307876D01*
X114680925Y-133301766D01*
X114674411Y-133237630D01*
X114674410Y-133237627D01*
X114673765Y-133231273D01*
X114673765Y-133231272D01*
X114674138Y-133231234D01*
X114679732Y-133164089D01*
X114722941Y-133107755D01*
X114789747Y-133083724D01*
X114797264Y-133083500D01*
X115185500Y-133083500D01*
X115253621Y-133103502D01*
G37*
%TD.AperFunction*%
%TA.AperFunction,NonConductor*%
G36*
X112699675Y-138116204D02*
G01*
X112752577Y-138163552D01*
X112771500Y-138229963D01*
X112771500Y-139073559D01*
X112751498Y-139141680D01*
X112736594Y-139160610D01*
X112687609Y-139211870D01*
X112670629Y-139229638D01*
X112563201Y-139387121D01*
X112508293Y-139432121D01*
X112437768Y-139440292D01*
X112374021Y-139409038D01*
X112353324Y-139384554D01*
X112272824Y-139260120D01*
X112272822Y-139260117D01*
X112270014Y-139255777D01*
X112181306Y-139158288D01*
X112150254Y-139094443D01*
X112148500Y-139073489D01*
X112148500Y-138447711D01*
X112168502Y-138379590D01*
X112221250Y-138333516D01*
X112327395Y-138284020D01*
X112391654Y-138254056D01*
X112572038Y-138127749D01*
X112573320Y-138129580D01*
X112629572Y-138104974D01*
X112699675Y-138116204D01*
G37*
%TD.AperFunction*%
%TA.AperFunction,NonConductor*%
G36*
X112542026Y-140762644D02*
G01*
X112569875Y-140794494D01*
X112629987Y-140892588D01*
X112776250Y-141061438D01*
X112948126Y-141204132D01*
X113009860Y-141240206D01*
X113021445Y-141246976D01*
X113070169Y-141298614D01*
X113083240Y-141368397D01*
X113056509Y-141434169D01*
X113016055Y-141467527D01*
X113003607Y-141474007D01*
X112999474Y-141477110D01*
X112999471Y-141477112D01*
X112829100Y-141605030D01*
X112824965Y-141608135D01*
X112821393Y-141611873D01*
X112743898Y-141692966D01*
X112682374Y-141728395D01*
X112611462Y-141724938D01*
X112553676Y-141683692D01*
X112534823Y-141650144D01*
X112493324Y-141539446D01*
X112484786Y-141523851D01*
X112408285Y-141421776D01*
X112395724Y-141409215D01*
X112293649Y-141332714D01*
X112278054Y-141324176D01*
X112167813Y-141282848D01*
X112111049Y-141240206D01*
X112086349Y-141173645D01*
X112101557Y-141104296D01*
X112123104Y-141075615D01*
X112224430Y-140974644D01*
X112224440Y-140974632D01*
X112228096Y-140970989D01*
X112287594Y-140888189D01*
X112358453Y-140789577D01*
X112359776Y-140790528D01*
X112406645Y-140747357D01*
X112476580Y-140735125D01*
X112542026Y-140762644D01*
G37*
%TD.AperFunction*%
%TA.AperFunction,NonConductor*%
G36*
X115082026Y-140762644D02*
G01*
X115109875Y-140794494D01*
X115169987Y-140892588D01*
X115316250Y-141061438D01*
X115488126Y-141204132D01*
X115549860Y-141240206D01*
X115561445Y-141246976D01*
X115610169Y-141298614D01*
X115623240Y-141368397D01*
X115596509Y-141434169D01*
X115556055Y-141467527D01*
X115543607Y-141474007D01*
X115539474Y-141477110D01*
X115539471Y-141477112D01*
X115369100Y-141605030D01*
X115364965Y-141608135D01*
X115210629Y-141769638D01*
X115103201Y-141927121D01*
X115048293Y-141972121D01*
X114977768Y-141980292D01*
X114914021Y-141949038D01*
X114893324Y-141924554D01*
X114812822Y-141800117D01*
X114812820Y-141800114D01*
X114810014Y-141795777D01*
X114659670Y-141630551D01*
X114655619Y-141627352D01*
X114655615Y-141627348D01*
X114488414Y-141495300D01*
X114488410Y-141495298D01*
X114484359Y-141492098D01*
X114443053Y-141469296D01*
X114393084Y-141418864D01*
X114378312Y-141349421D01*
X114403428Y-141283016D01*
X114430780Y-141256409D01*
X114474603Y-141225150D01*
X114609860Y-141128673D01*
X114634323Y-141104296D01*
X114728860Y-141010088D01*
X114768096Y-140970989D01*
X114827594Y-140888189D01*
X114898453Y-140789577D01*
X114899776Y-140790528D01*
X114946645Y-140747357D01*
X115016580Y-140735125D01*
X115082026Y-140762644D01*
G37*
%TD.AperFunction*%
%TA.AperFunction,NonConductor*%
G36*
X117622026Y-140762644D02*
G01*
X117649875Y-140794494D01*
X117709987Y-140892588D01*
X117856250Y-141061438D01*
X118028126Y-141204132D01*
X118089860Y-141240206D01*
X118101445Y-141246976D01*
X118150169Y-141298614D01*
X118163240Y-141368397D01*
X118136509Y-141434169D01*
X118096055Y-141467527D01*
X118083607Y-141474007D01*
X118079474Y-141477110D01*
X118079471Y-141477112D01*
X117909100Y-141605030D01*
X117904965Y-141608135D01*
X117750629Y-141769638D01*
X117643201Y-141927121D01*
X117588293Y-141972121D01*
X117517768Y-141980292D01*
X117454021Y-141949038D01*
X117433324Y-141924554D01*
X117352822Y-141800117D01*
X117352820Y-141800114D01*
X117350014Y-141795777D01*
X117199670Y-141630551D01*
X117195619Y-141627352D01*
X117195615Y-141627348D01*
X117028414Y-141495300D01*
X117028410Y-141495298D01*
X117024359Y-141492098D01*
X116983053Y-141469296D01*
X116933084Y-141418864D01*
X116918312Y-141349421D01*
X116943428Y-141283016D01*
X116970780Y-141256409D01*
X117014603Y-141225150D01*
X117149860Y-141128673D01*
X117174323Y-141104296D01*
X117268860Y-141010088D01*
X117308096Y-140970989D01*
X117367594Y-140888189D01*
X117438453Y-140789577D01*
X117439776Y-140790528D01*
X117486645Y-140747357D01*
X117556580Y-140735125D01*
X117622026Y-140762644D01*
G37*
%TD.AperFunction*%
%TA.AperFunction,NonConductor*%
G36*
X77286259Y-138607635D02*
G01*
X77316433Y-138615494D01*
X77316435Y-138615494D01*
X77322607Y-138617102D01*
X77336500Y-138617830D01*
X77355674Y-138620320D01*
X77364558Y-138622176D01*
X77364560Y-138622176D01*
X77369293Y-138623165D01*
X77375685Y-138623500D01*
X77441396Y-138623500D01*
X77447990Y-138623673D01*
X77510683Y-138626959D01*
X77510687Y-138626959D01*
X77517064Y-138627293D01*
X77532774Y-138624917D01*
X77551616Y-138623500D01*
X78362168Y-138623500D01*
X78430289Y-138643502D01*
X78442653Y-138652556D01*
X78598126Y-138781632D01*
X78668595Y-138822811D01*
X78671445Y-138824476D01*
X78720169Y-138876114D01*
X78733240Y-138945897D01*
X78706509Y-139011669D01*
X78666055Y-139045027D01*
X78653607Y-139051507D01*
X78649474Y-139054610D01*
X78649471Y-139054612D01*
X78508295Y-139160610D01*
X78474965Y-139185635D01*
X78320629Y-139347138D01*
X78317715Y-139351410D01*
X78317714Y-139351411D01*
X78262593Y-139432215D01*
X78194743Y-139531680D01*
X78152912Y-139621797D01*
X78112747Y-139708327D01*
X78100688Y-139734305D01*
X78040989Y-139949570D01*
X78017251Y-140171695D01*
X78030110Y-140394715D01*
X78031247Y-140399761D01*
X78031248Y-140399767D01*
X78051605Y-140490096D01*
X78079222Y-140612639D01*
X78113611Y-140697329D01*
X78151069Y-140789577D01*
X78163266Y-140819616D01*
X78165965Y-140824020D01*
X78258263Y-140974637D01*
X78279987Y-141010088D01*
X78426250Y-141178938D01*
X78521958Y-141258396D01*
X78592352Y-141316838D01*
X78598126Y-141321632D01*
X78662582Y-141359297D01*
X78671445Y-141364476D01*
X78720169Y-141416114D01*
X78733240Y-141485897D01*
X78706509Y-141551669D01*
X78666055Y-141585027D01*
X78653607Y-141591507D01*
X78649474Y-141594610D01*
X78649471Y-141594612D01*
X78518476Y-141692966D01*
X78474965Y-141725635D01*
X78471393Y-141729373D01*
X78354684Y-141851502D01*
X78320629Y-141887138D01*
X78317715Y-141891410D01*
X78317714Y-141891411D01*
X78260399Y-141975432D01*
X78194743Y-142071680D01*
X78154028Y-142159393D01*
X78104958Y-142265107D01*
X78100688Y-142274305D01*
X78040989Y-142489570D01*
X78017251Y-142711695D01*
X78017548Y-142716848D01*
X78017548Y-142716851D01*
X78023011Y-142811590D01*
X78030110Y-142934715D01*
X78031247Y-142939761D01*
X78031248Y-142939767D01*
X78051119Y-143027939D01*
X78079222Y-143152639D01*
X78137477Y-143296106D01*
X78151069Y-143329577D01*
X78163266Y-143359616D01*
X78279987Y-143550088D01*
X78426250Y-143718938D01*
X78598126Y-143861632D01*
X78668595Y-143902811D01*
X78671445Y-143904476D01*
X78720169Y-143956114D01*
X78733240Y-144025897D01*
X78706509Y-144091669D01*
X78666055Y-144125027D01*
X78653607Y-144131507D01*
X78649474Y-144134610D01*
X78649471Y-144134612D01*
X78479100Y-144262530D01*
X78474965Y-144265635D01*
X78471394Y-144269372D01*
X78454023Y-144287550D01*
X78392499Y-144322981D01*
X78362928Y-144326500D01*
X77254500Y-144326500D01*
X77186379Y-144306498D01*
X77139886Y-144252842D01*
X77128500Y-144200500D01*
X77128500Y-138729567D01*
X77148502Y-138661446D01*
X77202158Y-138614953D01*
X77272432Y-138604849D01*
X77286259Y-138607635D01*
G37*
%TD.AperFunction*%
%TA.AperFunction,NonConductor*%
G36*
X115082026Y-143302644D02*
G01*
X115109875Y-143334494D01*
X115169987Y-143432588D01*
X115275150Y-143553990D01*
X115280737Y-143560440D01*
X115310220Y-143625025D01*
X115311500Y-143642938D01*
X115311500Y-144995500D01*
X115291498Y-145063621D01*
X115237842Y-145110114D01*
X115185500Y-145121500D01*
X114794567Y-145121500D01*
X114726446Y-145101498D01*
X114679953Y-145047842D01*
X114669849Y-144977568D01*
X114672635Y-144963741D01*
X114680494Y-144933567D01*
X114680494Y-144933565D01*
X114682102Y-144927393D01*
X114682830Y-144913500D01*
X114685320Y-144894326D01*
X114687176Y-144885442D01*
X114687176Y-144885440D01*
X114688165Y-144880707D01*
X114688500Y-144874315D01*
X114688500Y-144808604D01*
X114688673Y-144802010D01*
X114691959Y-144739317D01*
X114691959Y-144739313D01*
X114692293Y-144732936D01*
X114689917Y-144717225D01*
X114688500Y-144698384D01*
X114688500Y-143642626D01*
X114708502Y-143574505D01*
X114725555Y-143553381D01*
X114768096Y-143510989D01*
X114771112Y-143506791D01*
X114771116Y-143506787D01*
X114898453Y-143329577D01*
X114899776Y-143330528D01*
X114946645Y-143287357D01*
X115016580Y-143275125D01*
X115082026Y-143302644D01*
G37*
%TD.AperFunction*%
%TA.AperFunction,NonConductor*%
G36*
X117622026Y-143302644D02*
G01*
X117649875Y-143334494D01*
X117709987Y-143432588D01*
X117815150Y-143553990D01*
X117820737Y-143560440D01*
X117850220Y-143625025D01*
X117851500Y-143642938D01*
X117851500Y-146295500D01*
X117831498Y-146363621D01*
X117777842Y-146410114D01*
X117725500Y-146421500D01*
X117290107Y-146421500D01*
X117221986Y-146401498D01*
X117175493Y-146347842D01*
X117165389Y-146277568D01*
X117168987Y-146260773D01*
X117172051Y-146250089D01*
X117177528Y-146234790D01*
X117188345Y-146209794D01*
X117200124Y-146153412D01*
X117202341Y-146144451D01*
X117216457Y-146095221D01*
X117218216Y-146089088D01*
X117220306Y-146061933D01*
X117222597Y-146045836D01*
X117227176Y-146023918D01*
X117228165Y-146019185D01*
X117228500Y-146012793D01*
X117228500Y-145960281D01*
X117228871Y-145950614D01*
X117232666Y-145901299D01*
X117232666Y-145901295D01*
X117233155Y-145894939D01*
X117229494Y-145865958D01*
X117228500Y-145850167D01*
X117228500Y-143642626D01*
X117248502Y-143574505D01*
X117265555Y-143553381D01*
X117308096Y-143510989D01*
X117311112Y-143506791D01*
X117311116Y-143506787D01*
X117438453Y-143329577D01*
X117439776Y-143330528D01*
X117486645Y-143287357D01*
X117556580Y-143275125D01*
X117622026Y-143302644D01*
G37*
%TD.AperFunction*%
%TA.AperFunction,NonConductor*%
G36*
X75986259Y-146227635D02*
G01*
X76016433Y-146235494D01*
X76016435Y-146235494D01*
X76022607Y-146237102D01*
X76036500Y-146237830D01*
X76055674Y-146240320D01*
X76064558Y-146242176D01*
X76064560Y-146242176D01*
X76069293Y-146243165D01*
X76075685Y-146243500D01*
X76141396Y-146243500D01*
X76147990Y-146243673D01*
X76210683Y-146246959D01*
X76210687Y-146246959D01*
X76217064Y-146247293D01*
X76232774Y-146244917D01*
X76251616Y-146243500D01*
X78362168Y-146243500D01*
X78430289Y-146263502D01*
X78442653Y-146272556D01*
X78533336Y-146347842D01*
X78598126Y-146401632D01*
X78632126Y-146421500D01*
X78671445Y-146444476D01*
X78720169Y-146496114D01*
X78733240Y-146565897D01*
X78706509Y-146631669D01*
X78666055Y-146665027D01*
X78653607Y-146671507D01*
X78649474Y-146674610D01*
X78649471Y-146674612D01*
X78479100Y-146802530D01*
X78474965Y-146805635D01*
X78471394Y-146809372D01*
X78454023Y-146827550D01*
X78392499Y-146862981D01*
X78362928Y-146866500D01*
X75954500Y-146866500D01*
X75886379Y-146846498D01*
X75839886Y-146792842D01*
X75828500Y-146740500D01*
X75828500Y-146349567D01*
X75848502Y-146281446D01*
X75902158Y-146234953D01*
X75972432Y-146224849D01*
X75986259Y-146227635D01*
G37*
%TD.AperFunction*%
%TA.AperFunction,NonConductor*%
G36*
X100523621Y-141851502D02*
G01*
X100570114Y-141905158D01*
X100581500Y-141957500D01*
X100581500Y-147304451D01*
X100581451Y-147307969D01*
X100579144Y-147390561D01*
X100580253Y-147396850D01*
X100589146Y-147447287D01*
X100590415Y-147456432D01*
X100596235Y-147513727D01*
X100604380Y-147539717D01*
X100608230Y-147555512D01*
X100611423Y-147573622D01*
X100603553Y-147644181D01*
X100558785Y-147699284D01*
X100487337Y-147721500D01*
X96090713Y-147721500D01*
X96022592Y-147701498D01*
X95976099Y-147647842D01*
X95966874Y-147612488D01*
X95966119Y-147612613D01*
X95965276Y-147607522D01*
X95964852Y-147602361D01*
X95910431Y-147385702D01*
X95821354Y-147180840D01*
X95700014Y-146993277D01*
X95549670Y-146828051D01*
X95545619Y-146824852D01*
X95545615Y-146824848D01*
X95378414Y-146692800D01*
X95378410Y-146692798D01*
X95374359Y-146689598D01*
X95178789Y-146581638D01*
X95173920Y-146579914D01*
X95173916Y-146579912D01*
X94973087Y-146508795D01*
X94973083Y-146508794D01*
X94968212Y-146507069D01*
X94963119Y-146506162D01*
X94963116Y-146506161D01*
X94753373Y-146468800D01*
X94753367Y-146468799D01*
X94748284Y-146467894D01*
X94674452Y-146466992D01*
X94530081Y-146465228D01*
X94530079Y-146465228D01*
X94524911Y-146465165D01*
X94304091Y-146498955D01*
X94091756Y-146568357D01*
X93893607Y-146671507D01*
X93889474Y-146674610D01*
X93889471Y-146674612D01*
X93719100Y-146802530D01*
X93714965Y-146805635D01*
X93560629Y-146967138D01*
X93434743Y-147151680D01*
X93419003Y-147185590D01*
X93363011Y-147306215D01*
X93340688Y-147354305D01*
X93280989Y-147569570D01*
X93257251Y-147791695D01*
X93257548Y-147796848D01*
X93257548Y-147796851D01*
X93269812Y-148009547D01*
X93270110Y-148014715D01*
X93271247Y-148019761D01*
X93271248Y-148019767D01*
X93291119Y-148107939D01*
X93319222Y-148232639D01*
X93403266Y-148439616D01*
X93454019Y-148522438D01*
X93478800Y-148562876D01*
X93519987Y-148630088D01*
X93666250Y-148798938D01*
X93670236Y-148802247D01*
X93673532Y-148805475D01*
X93708208Y-148867428D01*
X93703886Y-148938293D01*
X93661937Y-148995571D01*
X93595681Y-149021078D01*
X93585375Y-149021500D01*
X92524500Y-149021500D01*
X92456379Y-149001498D01*
X92409886Y-148947842D01*
X92398500Y-148895500D01*
X92398500Y-143829500D01*
X92418502Y-143761379D01*
X92472158Y-143714886D01*
X92524500Y-143703500D01*
X93602168Y-143703500D01*
X93670289Y-143723502D01*
X93682653Y-143732556D01*
X93717371Y-143761379D01*
X93838126Y-143861632D01*
X94031000Y-143974338D01*
X94239692Y-144054030D01*
X94244760Y-144055061D01*
X94244763Y-144055062D01*
X94349466Y-144076364D01*
X94458597Y-144098567D01*
X94463772Y-144098757D01*
X94463774Y-144098757D01*
X94676673Y-144106564D01*
X94676677Y-144106564D01*
X94681837Y-144106753D01*
X94686957Y-144106097D01*
X94686959Y-144106097D01*
X94898288Y-144079025D01*
X94898289Y-144079025D01*
X94903416Y-144078368D01*
X94910096Y-144076364D01*
X95112429Y-144015661D01*
X95112434Y-144015659D01*
X95117384Y-144014174D01*
X95317994Y-143915896D01*
X95499860Y-143786173D01*
X95658096Y-143628489D01*
X95685533Y-143590307D01*
X95785435Y-143451277D01*
X95788453Y-143447077D01*
X95793686Y-143436490D01*
X95885136Y-143251453D01*
X95885137Y-143251451D01*
X95887430Y-143246811D01*
X95923129Y-143129311D01*
X95950865Y-143038023D01*
X95950865Y-143038021D01*
X95952370Y-143033069D01*
X95981529Y-142811590D01*
X95982162Y-142785683D01*
X95983074Y-142748365D01*
X95983074Y-142748361D01*
X95983156Y-142745000D01*
X95964852Y-142522361D01*
X95910431Y-142305702D01*
X95821354Y-142100840D01*
X95772899Y-142025940D01*
X95752692Y-141957880D01*
X95772488Y-141889699D01*
X95826003Y-141843045D01*
X95878691Y-141831500D01*
X100455500Y-141831500D01*
X100523621Y-141851502D01*
G37*
%TD.AperFunction*%
%TA.AperFunction,NonConductor*%
G36*
X74680259Y-148752031D02*
G01*
X74689363Y-148753933D01*
X74695069Y-148755125D01*
X74704015Y-148757339D01*
X74759389Y-148773216D01*
X74786544Y-148775305D01*
X74802633Y-148777595D01*
X74829293Y-148783165D01*
X74835685Y-148783500D01*
X74888197Y-148783500D01*
X74897864Y-148783871D01*
X74947179Y-148787666D01*
X74947183Y-148787666D01*
X74953539Y-148788155D01*
X74982520Y-148784494D01*
X74998311Y-148783500D01*
X78362168Y-148783500D01*
X78430289Y-148803502D01*
X78442653Y-148812556D01*
X78598126Y-148941632D01*
X78668595Y-148982811D01*
X78671445Y-148984476D01*
X78720169Y-149036114D01*
X78733240Y-149105897D01*
X78706509Y-149171669D01*
X78666055Y-149205027D01*
X78653607Y-149211507D01*
X78649474Y-149214610D01*
X78649471Y-149214612D01*
X78479100Y-149342530D01*
X78474965Y-149345635D01*
X78471394Y-149349372D01*
X78454023Y-149367550D01*
X78392499Y-149402981D01*
X78362928Y-149406500D01*
X74654500Y-149406500D01*
X74586379Y-149386498D01*
X74539886Y-149332842D01*
X74528500Y-149280500D01*
X74528500Y-148875369D01*
X74548502Y-148807248D01*
X74602158Y-148760755D01*
X74672432Y-148750651D01*
X74680259Y-148752031D01*
G37*
%TD.AperFunction*%
%TA.AperFunction,NonConductor*%
G36*
X62076259Y-153847635D02*
G01*
X62106433Y-153855494D01*
X62106435Y-153855494D01*
X62112607Y-153857102D01*
X62126500Y-153857830D01*
X62145674Y-153860320D01*
X62154558Y-153862176D01*
X62154560Y-153862176D01*
X62159293Y-153863165D01*
X62165685Y-153863500D01*
X62231396Y-153863500D01*
X62237990Y-153863673D01*
X62300683Y-153866959D01*
X62300687Y-153866959D01*
X62307064Y-153867293D01*
X62322774Y-153864917D01*
X62341616Y-153863500D01*
X78362168Y-153863500D01*
X78430289Y-153883502D01*
X78442653Y-153892556D01*
X78598126Y-154021632D01*
X78668595Y-154062811D01*
X78671445Y-154064476D01*
X78720169Y-154116114D01*
X78733240Y-154185897D01*
X78706509Y-154251669D01*
X78666055Y-154285027D01*
X78653607Y-154291507D01*
X78649474Y-154294610D01*
X78649471Y-154294612D01*
X78479100Y-154422530D01*
X78474965Y-154425635D01*
X78456610Y-154444843D01*
X78454023Y-154447550D01*
X78392499Y-154482981D01*
X78362928Y-154486500D01*
X62044500Y-154486500D01*
X61976379Y-154466498D01*
X61929886Y-154412842D01*
X61918500Y-154360500D01*
X61918500Y-153969567D01*
X61938502Y-153901446D01*
X61992158Y-153854953D01*
X62062432Y-153844849D01*
X62076259Y-153847635D01*
G37*
%TD.AperFunction*%
%TA.AperFunction,NonConductor*%
G36*
X153923621Y-138138502D02*
G01*
X153970114Y-138192158D01*
X153981500Y-138244500D01*
X153981500Y-155375500D01*
X153961498Y-155443621D01*
X153907842Y-155490114D01*
X153855500Y-155501500D01*
X147549754Y-155501500D01*
X147481633Y-155481498D01*
X147435140Y-155427842D01*
X147431772Y-155419730D01*
X147413767Y-155371703D01*
X147410615Y-155363295D01*
X147323261Y-155246739D01*
X147206705Y-155159385D01*
X147070316Y-155108255D01*
X147008134Y-155101500D01*
X145211866Y-155101500D01*
X145149684Y-155108255D01*
X145013295Y-155159385D01*
X144896739Y-155246739D01*
X144809385Y-155363295D01*
X144758255Y-155499684D01*
X144751500Y-155561866D01*
X144751500Y-157358134D01*
X144758255Y-157420316D01*
X144809385Y-157556705D01*
X144896739Y-157673261D01*
X145013295Y-157760615D01*
X145021704Y-157763767D01*
X145021705Y-157763768D01*
X145111733Y-157797518D01*
X145168498Y-157840159D01*
X145193198Y-157906721D01*
X145177991Y-157976070D01*
X145127705Y-158026188D01*
X145067504Y-158041500D01*
X143324500Y-158041500D01*
X143256379Y-158021498D01*
X143209886Y-157967842D01*
X143198500Y-157915500D01*
X143198500Y-148708604D01*
X143198673Y-148702010D01*
X143201959Y-148639317D01*
X143201959Y-148639313D01*
X143202293Y-148632936D01*
X143201338Y-148626623D01*
X143201338Y-148626618D01*
X143191697Y-148562876D01*
X143190925Y-148556766D01*
X143188336Y-148531277D01*
X143183765Y-148486273D01*
X143181857Y-148480183D01*
X143181855Y-148480175D01*
X143179604Y-148472992D01*
X143175258Y-148454167D01*
X143174131Y-148446720D01*
X143174130Y-148446718D01*
X143173175Y-148440401D01*
X143148700Y-148373879D01*
X143146724Y-148368074D01*
X143133793Y-148326811D01*
X143125535Y-148300459D01*
X143118787Y-148288286D01*
X143110740Y-148270708D01*
X143108141Y-148263643D01*
X143108139Y-148263639D01*
X143105937Y-148257654D01*
X143068592Y-148197423D01*
X143065480Y-148192119D01*
X143034223Y-148135730D01*
X143031130Y-148130150D01*
X143022078Y-148119589D01*
X143010659Y-148103987D01*
X143006688Y-148097583D01*
X143003326Y-148092160D01*
X142954619Y-148040654D01*
X142950511Y-148036091D01*
X142932190Y-148014715D01*
X142904409Y-147982302D01*
X142899363Y-147978388D01*
X142899359Y-147978384D01*
X142893415Y-147973773D01*
X142879103Y-147960796D01*
X142869534Y-147950678D01*
X142864309Y-147947020D01*
X142864305Y-147947016D01*
X142811476Y-147910026D01*
X142806519Y-147906371D01*
X142755590Y-147866866D01*
X142750547Y-147862954D01*
X142738062Y-147856811D01*
X142721431Y-147846976D01*
X142710025Y-147838989D01*
X142644989Y-147810846D01*
X142639402Y-147808264D01*
X142581558Y-147779801D01*
X142575829Y-147776982D01*
X142562360Y-147773473D01*
X142544090Y-147767183D01*
X142531316Y-147761655D01*
X142525065Y-147760349D01*
X142461973Y-147747168D01*
X142455980Y-147745763D01*
X142393564Y-147729505D01*
X142393560Y-147729504D01*
X142387393Y-147727898D01*
X142373500Y-147727170D01*
X142354326Y-147724680D01*
X142345442Y-147722824D01*
X142345440Y-147722824D01*
X142340707Y-147721835D01*
X142334315Y-147721500D01*
X142268604Y-147721500D01*
X142262010Y-147721327D01*
X142199317Y-147718041D01*
X142199313Y-147718041D01*
X142192936Y-147717707D01*
X142178821Y-147719842D01*
X142177225Y-147720083D01*
X142158384Y-147721500D01*
X119874567Y-147721500D01*
X119806446Y-147701498D01*
X119759953Y-147647842D01*
X119749849Y-147577568D01*
X119752635Y-147563741D01*
X119760494Y-147533567D01*
X119760494Y-147533565D01*
X119762102Y-147527393D01*
X119762830Y-147513500D01*
X119765320Y-147494326D01*
X119767176Y-147485442D01*
X119767176Y-147485440D01*
X119768165Y-147480707D01*
X119768500Y-147474315D01*
X119768500Y-147408604D01*
X119768673Y-147402010D01*
X119771959Y-147339317D01*
X119771959Y-147339313D01*
X119772293Y-147332936D01*
X119769917Y-147317225D01*
X119768500Y-147298384D01*
X119768500Y-143642626D01*
X119788502Y-143574505D01*
X119805555Y-143553381D01*
X119848096Y-143510989D01*
X119851112Y-143506791D01*
X119851116Y-143506787D01*
X119975435Y-143333777D01*
X119978453Y-143329577D01*
X119994996Y-143296106D01*
X120075136Y-143133953D01*
X120075137Y-143133951D01*
X120077430Y-143129311D01*
X120142370Y-142915569D01*
X120171529Y-142694090D01*
X120172590Y-142650685D01*
X120173074Y-142630865D01*
X120173074Y-142630861D01*
X120173156Y-142627500D01*
X120154852Y-142404861D01*
X120100431Y-142188202D01*
X120011354Y-141983340D01*
X119960020Y-141903989D01*
X119892822Y-141800117D01*
X119892820Y-141800114D01*
X119890014Y-141795777D01*
X119739670Y-141630551D01*
X119735619Y-141627352D01*
X119735615Y-141627348D01*
X119568414Y-141495300D01*
X119568410Y-141495298D01*
X119564359Y-141492098D01*
X119523053Y-141469296D01*
X119473084Y-141418864D01*
X119458312Y-141349421D01*
X119483428Y-141283016D01*
X119510780Y-141256409D01*
X119554603Y-141225150D01*
X119689860Y-141128673D01*
X119714323Y-141104296D01*
X119808860Y-141010088D01*
X119848096Y-140970989D01*
X119907594Y-140888189D01*
X119975435Y-140793777D01*
X119978453Y-140789577D01*
X119999320Y-140747357D01*
X120075136Y-140593953D01*
X120075137Y-140593951D01*
X120077430Y-140589311D01*
X120142370Y-140375569D01*
X120171529Y-140154090D01*
X120173156Y-140087500D01*
X120154852Y-139864861D01*
X120100431Y-139648202D01*
X120011354Y-139443340D01*
X119963557Y-139369457D01*
X119892822Y-139260117D01*
X119892820Y-139260114D01*
X119890014Y-139255777D01*
X119739670Y-139090551D01*
X119735619Y-139087352D01*
X119735615Y-139087348D01*
X119568414Y-138955300D01*
X119568410Y-138955298D01*
X119564359Y-138952098D01*
X119368789Y-138844138D01*
X119363920Y-138842414D01*
X119363916Y-138842412D01*
X119163087Y-138771295D01*
X119163083Y-138771294D01*
X119158212Y-138769569D01*
X119153119Y-138768662D01*
X119153116Y-138768661D01*
X118943373Y-138731300D01*
X118943367Y-138731299D01*
X118938284Y-138730394D01*
X118864452Y-138729492D01*
X118720081Y-138727728D01*
X118720079Y-138727728D01*
X118714911Y-138727665D01*
X118494091Y-138761455D01*
X118281756Y-138830857D01*
X118083607Y-138934007D01*
X118079474Y-138937110D01*
X118079471Y-138937112D01*
X117920240Y-139056666D01*
X117904965Y-139068135D01*
X117853266Y-139122235D01*
X117767609Y-139211870D01*
X117750629Y-139229638D01*
X117643201Y-139387121D01*
X117588293Y-139432121D01*
X117517768Y-139440292D01*
X117454021Y-139409038D01*
X117433324Y-139384554D01*
X117352824Y-139260120D01*
X117352822Y-139260117D01*
X117350014Y-139255777D01*
X117261306Y-139158288D01*
X117230254Y-139094443D01*
X117228500Y-139073489D01*
X117228500Y-138321156D01*
X117248502Y-138253035D01*
X117302158Y-138206542D01*
X117372432Y-138196438D01*
X117426770Y-138217943D01*
X117473832Y-138250896D01*
X117473837Y-138250899D01*
X117478346Y-138254056D01*
X117677924Y-138347120D01*
X117890629Y-138404115D01*
X118110000Y-138423307D01*
X118329371Y-138404115D01*
X118542076Y-138347120D01*
X118741654Y-138254056D01*
X118902704Y-138141287D01*
X118974975Y-138118500D01*
X153855500Y-138118500D01*
X153923621Y-138138502D01*
G37*
%TD.AperFunction*%
M02*
