%TF.GenerationSoftware,KiCad,Pcbnew,6.0.11+dfsg-1*%
%TF.CreationDate,2024-04-17T23:55:35+03:00*%
%TF.ProjectId,remote,72656d6f-7465-42e6-9b69-6361645f7063,rev?*%
%TF.SameCoordinates,Original*%
%TF.FileFunction,Soldermask,Bot*%
%TF.FilePolarity,Negative*%
%FSLAX46Y46*%
G04 Gerber Fmt 4.6, Leading zero omitted, Abs format (unit mm)*
G04 Created by KiCad (PCBNEW 6.0.11+dfsg-1) date 2024-04-17 23:55:35*
%MOMM*%
%LPD*%
G01*
G04 APERTURE LIST*
%TA.AperFunction,Profile*%
%ADD10C,0.100000*%
%TD*%
%ADD11R,1.700000X1.700000*%
%ADD12C,1.700000*%
%ADD13C,2.000000*%
%ADD14C,1.500000*%
%ADD15O,2.700000X1.200000*%
%ADD16C,1.600000*%
%ADD17O,1.600000X1.600000*%
G04 APERTURE END LIST*
D10*
X49000000Y-97000000D02*
X174000000Y-97000000D01*
X174000000Y-97000000D02*
X174000000Y-177000000D01*
X174000000Y-177000000D02*
X49000000Y-177000000D01*
X49000000Y-177000000D02*
X49000000Y-97000000D01*
D11*
%TO.C,U1*%
X111190000Y-142627500D03*
D12*
X111190000Y-140087500D03*
X113730000Y-142627500D03*
X113730000Y-140087500D03*
X116270000Y-142627500D03*
X116270000Y-140087500D03*
X118810000Y-142627500D03*
X118810000Y-140087500D03*
D13*
X121350000Y-106452500D03*
X108650000Y-106452500D03*
%TD*%
D12*
%TO.C,U2*%
X94620000Y-157985000D03*
X94620000Y-155445000D03*
X94620000Y-147825000D03*
X94620000Y-142745000D03*
X94620000Y-137665000D03*
X79380000Y-135125000D03*
X79380000Y-137665000D03*
X79380000Y-140205000D03*
X79380000Y-142745000D03*
X79380000Y-145285000D03*
X79380000Y-147825000D03*
X79380000Y-150365000D03*
X79380000Y-152905000D03*
X79380000Y-155445000D03*
X79380000Y-157985000D03*
X79380000Y-160525000D03*
X79380000Y-163065000D03*
%TD*%
D14*
%TO.C,X1.2*%
X75000000Y-160000000D03*
%TD*%
D15*
%TO.C,S1*%
X132000000Y-158000000D03*
X132000000Y-162700000D03*
X132000000Y-153300000D03*
%TD*%
D14*
%TO.C,X1.1*%
X75000000Y-164730000D03*
%TD*%
D11*
%TO.C,U5*%
X68110000Y-113460000D03*
D12*
X68110000Y-116000000D03*
X68110000Y-118540000D03*
X85890000Y-118540000D03*
X85890000Y-116000000D03*
X85890000Y-113460000D03*
%TD*%
D11*
%TO.C,U4*%
X146110000Y-113460000D03*
D12*
X146110000Y-116000000D03*
X146110000Y-118540000D03*
X163890000Y-118540000D03*
X163890000Y-116000000D03*
X163890000Y-113460000D03*
%TD*%
D16*
%TO.C,R1*%
X124080000Y-153000000D03*
D17*
X113920000Y-153000000D03*
%TD*%
D11*
%TO.C,U3*%
X146110000Y-156460000D03*
D12*
X146110000Y-159000000D03*
X146110000Y-161540000D03*
X163890000Y-161540000D03*
X163890000Y-159000000D03*
X163890000Y-156460000D03*
%TD*%
M02*
