%TF.GenerationSoftware,KiCad,Pcbnew,6.0.11+dfsg-1*%
%TF.CreationDate,2024-04-17T23:55:35+03:00*%
%TF.ProjectId,remote,72656d6f-7465-42e6-9b69-6361645f7063,rev?*%
%TF.SameCoordinates,Original*%
%TF.FileFunction,Legend,Top*%
%TF.FilePolarity,Positive*%
%FSLAX46Y46*%
G04 Gerber Fmt 4.6, Leading zero omitted, Abs format (unit mm)*
G04 Created by KiCad (PCBNEW 6.0.11+dfsg-1) date 2024-04-17 23:55:35*
%MOMM*%
%LPD*%
G01*
G04 APERTURE LIST*
%TA.AperFunction,Profile*%
%ADD10C,0.100000*%
%TD*%
%ADD11C,0.150000*%
%ADD12C,0.120000*%
G04 APERTURE END LIST*
D10*
X49000000Y-97000000D02*
X174000000Y-97000000D01*
X174000000Y-97000000D02*
X174000000Y-177000000D01*
X174000000Y-177000000D02*
X49000000Y-177000000D01*
X49000000Y-177000000D02*
X49000000Y-97000000D01*
D11*
%TO.C,U2*%
X94191428Y-164926428D02*
X95048571Y-164926428D01*
X94620000Y-164926428D02*
X94620000Y-166426428D01*
X94762857Y-166212142D01*
X94905714Y-166069285D01*
X95048571Y-165997857D01*
%TO.C,U5*%
X66633571Y-114138571D02*
X65776428Y-114138571D01*
X66205000Y-114138571D02*
X66205000Y-112638571D01*
X66062142Y-112852857D01*
X65919285Y-112995714D01*
X65776428Y-113067142D01*
%TO.C,U4*%
X144633571Y-114138571D02*
X143776428Y-114138571D01*
X144205000Y-114138571D02*
X144205000Y-112638571D01*
X144062142Y-112852857D01*
X143919285Y-112995714D01*
X143776428Y-113067142D01*
%TO.C,U3*%
X144633571Y-157138571D02*
X143776428Y-157138571D01*
X144205000Y-157138571D02*
X144205000Y-155638571D01*
X144062142Y-155852857D01*
X143919285Y-155995714D01*
X143776428Y-156067142D01*
D12*
%TO.C,U1*%
X111190000Y-102642500D02*
X111190000Y-103912500D01*
X118810000Y-103912500D02*
X122620000Y-103912500D01*
X122620000Y-144552500D02*
X118810000Y-144552500D01*
X118810000Y-102642500D02*
X118810000Y-103912500D01*
X122620000Y-140742500D02*
X122620000Y-144552500D01*
X111190000Y-103912500D02*
X107380000Y-103912500D01*
X122620000Y-103912500D02*
X122620000Y-110897500D01*
X107380000Y-144552500D02*
X111190000Y-144552500D01*
X107380000Y-140742500D02*
X107380000Y-144552500D01*
X107380000Y-103912500D02*
X107380000Y-110897500D01*
%TO.C,U2*%
X78110000Y-133855000D02*
X82555000Y-133855000D01*
X95890000Y-168145000D02*
X95890000Y-161795000D01*
X78110000Y-168145000D02*
X82555000Y-168145000D01*
X91445000Y-168145000D02*
X95890000Y-168145000D01*
X78110000Y-138300000D02*
X78110000Y-133855000D01*
X78110000Y-161795000D02*
X78110000Y-168145000D01*
X91445000Y-168780000D02*
X91445000Y-168145000D01*
X82555000Y-168145000D02*
X82555000Y-168780000D01*
X95890000Y-133855000D02*
X91445000Y-133855000D01*
X95890000Y-138300000D02*
X95890000Y-133855000D01*
%TO.C,S1*%
X135175000Y-164350000D02*
X128825000Y-164350000D01*
X128825000Y-164350000D02*
X128825000Y-151650000D01*
X128825000Y-151650000D02*
X135175000Y-151650000D01*
X135175000Y-151650000D02*
X135175000Y-164350000D01*
%TO.C,U5*%
X64935000Y-103935000D02*
X89065000Y-103935000D01*
X89065000Y-103935000D02*
X89065000Y-128065000D01*
X89065000Y-128065000D02*
X64935000Y-128065000D01*
X64935000Y-128065000D02*
X64935000Y-103935000D01*
%TO.C,U4*%
X142935000Y-103935000D02*
X167065000Y-103935000D01*
X167065000Y-103935000D02*
X167065000Y-128065000D01*
X167065000Y-128065000D02*
X142935000Y-128065000D01*
X142935000Y-128065000D02*
X142935000Y-103935000D01*
%TO.C,R1*%
X122270000Y-154370000D02*
X122270000Y-151630000D01*
X122270000Y-151630000D02*
X115730000Y-151630000D01*
X115730000Y-154370000D02*
X122270000Y-154370000D01*
X114960000Y-153000000D02*
X115730000Y-153000000D01*
X123040000Y-153000000D02*
X122270000Y-153000000D01*
X115730000Y-151630000D02*
X115730000Y-154370000D01*
%TO.C,U3*%
X142935000Y-146935000D02*
X167065000Y-146935000D01*
X167065000Y-146935000D02*
X167065000Y-171065000D01*
X167065000Y-171065000D02*
X142935000Y-171065000D01*
X142935000Y-171065000D02*
X142935000Y-146935000D01*
%TD*%
M02*
